<svg xmlns="http://www.w3.org/2000/svg" width="1024" height="676"><path fill="#ab8e88" d="M0 0h1024v676H0z"/><g fill-opacity=".502"><path d="M726-6l240 76-360 280z"/><path fill="#370000" d="M970 186L826 738l260-72z"/><path fill="#ffdfc9" d="M10 234l-64 504 916-80z"/><path fill="#fffce5" d="M870 458l-360-60 436-228z"/><path fill="#5f0100" d="M122 198l136 208L358 98z"/><path fill="#450000" d="M810 438l-260 28 360 124z"/><path d="M542 238l-64-120 24 308z"/><path fill="#99b4d9" d="M914-10L-62 206 26-62z"/><path fill="#dd4c31" d="M386 482l172-172-324-104z"/><path fill="#020000" d="M906 22L650 82l176 124z"/><path fill="#cfd6db" d="M414 38l280 164-68 100z"/><path fill="#3b220e" d="M10 190l-72 68 316-12z"/><path fill="#fffbc1" d="M578 334L478 738l-180-36z"/><path fill="#5d88d6" d="M1038-62L886 6l172 360z"/><path fill="#f4d7c3" d="M158 414l272-108-180 316z"/><path fill="#2d1c14" d="M1086 514L946 170l40 568z"/><path fill="#846782" d="M74 738l32-196 248 180z"/><path fill="#eeccbc" d="M990 446l-340 16 120-264z"/><path fill="#370b00" d="M890 702l-40-228-104-44z"/><path fill="#e2efea" d="M446 306l-92-172 136 48z"/><path fill="#ae5949" d="M558 482l76 176 20-444z"/><path fill="#ca929c" d="M818 546l-44 192-132-252z"/><path fill="#110f04" d="M162 170l52 108 52-144z"/><path fill="#d6d2c7" d="M-62 182l252 24-88-128z"/><path fill="#b35b52" d="M962 678l-200 16 156-224z"/><path fill="#b0c0d1" d="M518 62l40 256L682 78z"/><path fill="#c44c3e" d="M450 274L238 390V198z"/><path fill="#2f1c18" d="M906 318l132 200-44-260z"/><path fill="#98afd5" d="M850 146l-36 88 272-96z"/><path fill="#4b201a" d="M722 306L650 86 814 2z"/><path fill="#ead5b6" d="M318 590L174 266l-236-16z"/><path fill="#e1d7c5" d="M798 334l208-80-240-52z"/><path fill="#ffe7bb" d="M394 494l92-92 104 216z"/><path fill="#ffe4b8" d="M542 442l-36-116 132 40z"/><path fill="#9a1f0c" d="M562 618l-24-16-60 76z"/><path fill="#fff" d="M858 446l36 56-28 36z"/><path fill="#010912" d="M774 178L874 14l56 84z"/><path fill="#000003" d="M522 174l-48 92 80 32z"/><path fill="#9a9eb3" d="M586 150L-62 70 830-62z"/><path fill="#b95344" d="M358 250l4 284 144-232z"/><path fill="#bf4c40" d="M386 266L362 98 250 390z"/><path fill="#b0261a" d="M1010 394l-76 128-60-64z"/><path fill="#3e1a0a" d="M642 454l-100 32 240 20z"/><path fill="#c6cad1" d="M998 366l68-64-48-124z"/><path fill="#fff" d="M962 658l-16 80-8-88z"/><path fill="#5a73b5" d="M854 54l48-72-220-28z"/><path fill="#7a120d" d="M810 590l76 60 24-144z"/><path fill="#250b00" d="M502 430l24 12-16-84z"/><path fill="#fff" d="M62 630l-88 108-36-112z"/><path fill="#fbe5b6" d="M290 358l36 60 76-116z"/><path fill="#3e2316" d="M314 214l-68-92-76 80z"/><path fill="#efd5c6" d="M742 286L626 430l128 48z"/><path fill="#f2e8cf" d="M202 290L-62 410v152z"/><path fill="#e9c7b3" d="M954 398l-16-32-88-12z"/><path fill="#c99ba4" d="M766 534L542 738l92-252z"/><path fill="#dcb" d="M694 242l-128-84-28 140z"/><path fill="#c5cbcf" d="M370 150l120-80-84 204z"/><path fill="#a25443" d="M654 338l-92-52-148 52z"/><path fill="#b0737a" d="M386 518l-12 80-120 80z"/><path fill="#ffdcb7" d="M506 738l-168-76 160-284z"/><path fill="#f5e5db" d="M410 470L234 626l28-116z"/><path fill="#4e180b" d="M746 98l-40 108h116z"/><path fill="#ffefe4" d="M646 606l-4 132 96-76z"/><path fill="#c192a0" d="M194 594L26 614l72-236z"/><path fill="#84544d" d="M778 246l-88 68 52-80z"/><path fill="#391810" d="M706 502l164 60-68-116z"/><path fill="#faa292" d="M386 174l-68-20 20 56z"/><path fill="#fffffa" d="M930 582l-12 24 32-12z"/><path fill="#d3695f" d="M602 446l168-4-28 44z"/><path fill="#909bbb" d="M930 254l40-208-120 172z"/><path fill="#aa6a52" d="M690 150l-12 156-100 40z"/><path fill="#ba9398" d="M858 622l-264-88 252 204z"/><path fill="#301101" d="M638 470l-60 8-16 32z"/><path fill="#222226" d="M494 142l24 76-64-92z"/><path fill="#8288ac" d="M650 118L778-62H394z"/><path fill="#4a2d25" d="M926 558l160-376-4 552z"/><path fill="#e44a4e" d="M862 538l64 64-8-84z"/><path fill="#f4d8b4" d="M422 426l132 12-76 296z"/><path fill="#151512" d="M946 214l24 40 4-72z"/><path fill="#b3b5be" d="M498 166l156 60 12-164z"/><path fill="#3c211a" d="M918 298l-8 76 96-84z"/><path fill="#6170a3" d="M1086-50l-64 140L770-10z"/><path fill="#5e3d30" d="M310 118l76 28-164 40z"/><path fill="#be4837" d="M334 450l60 24 100-144z"/><path fill="#e6c089" d="M-18 258l-44 256 220-252z"/><path fill="#fbdcc6" d="M502 694l96-92-4-68z"/><path fill="#341b10" d="M238 310l-48-24 28-140z"/><path fill="#db8d7f" d="M870 410l68-56 52 112z"/><path fill="#afa9b0" d="M546 134L30 114 454 14z"/><path fill="#ceccc7" d="M86 202l96-108-16 100z"/><path fill="#fadac7" d="M850 214l-92-4-16 32z"/><path fill="#c9a2a3" d="M266 394l20 128-128-124z"/><path fill="#181719" d="M922 46l-4 80-260 12z"/><path fill="#976c59" d="M174 274l12-52-56-4z"/><path fill="#a74135" d="M1014 670l-20-104 40-8z"/><path fill="#f696b4" d="M1086 482l-84-120 84 48z"/><path fill="#82473a" d="M222 210l36-92h72z"/><path fill="#d37160" d="M646 378l-132 72 116-8z"/><path fill="#7d786c" d="M490 270l-124 40 24-52z"/><path fill="#bd4c3f" d="M374 330l-184 8 188-144z"/><path fill="#391e1a" d="M678 166l-24 12 12 40z"/><path fill="#94301f" d="M546 602l-44 28 68-8z"/><path fill="#586d8d" d="M66 682l312 32-152-60z"/><path fill="#7f3c1f" d="M474 418l-68 12 80-40z"/><path fill="#e0d9cb" d="M706 338l188 172-84-268z"/><path fill="#abb5c0" d="M1086 66L974 226l112 116z"/><path fill="#a89186" d="M898 662l-116-20 172-20z"/><path fill="#49271c" d="M846 566l80 124-44 48z"/><path fill="#dfddd7" d="M626 274l-88-68 40 88z"/><path fill="#f6d0b3" d="M650 226l28-4-36 52z"/><path fill="#d6d3ca" d="M386 234l92 36-24-148z"/><path fill="#1f1819" d="M1006 578l56-80-76-180z"/><path fill="#4f2621" d="M758 458l88 8 24 168z"/><path fill="#1f1d1b" d="M546 298l-16-100-52 92z"/><path fill="#f5d7b6" d="M534 434l-20-96 112 56z"/><path fill="#3a2b1e" d="M1018 730l-72-104 28-140z"/><path fill="#fffcf9" d="M682 202l-16 8 16-24z"/><path fill="#fff6d5" d="M842 638l16-4-8 52z"/><path fill="#9a7071" d="M758 554l104 184-44-188z"/><path fill="#f7d8b3" d="M458 738l112-252-168 80z"/><path fill="#f5d7c6" d="M298 674l-28-104 92 108z"/><path fill="#934334" d="M642 370l-12 56-16-20z"/><path fill="#87422f" d="M550 490l72-32-76-24z"/><path fill="#730d04" d="M930 438l-28 84-16-64z"/><path fill="#8b9ac1" d="M834 194l32-60 116-20z"/><path fill="#bb7b77" d="M842 466l-32-8 24-80z"/><path fill="#ad624b" d="M522 558l80-36-24 32z"/><path fill="#d09692" d="M410 466l-60 20 4 144z"/><path fill="#c8a2a7" d="M50 738l52-388 92 136z"/><path fill="#f4dab6" d="M346 722l208-280-120-20z"/><path fill="#271d19" d="M910 46l-100 72 48-92z"/><path fill="#c2c1c1" d="M422 94l60 184-124-120z"/><path fill="#351703" d="M634 270l8 28-28 20z"/><path fill="#3e1609" d="M370 238l-24-24 28-4z"/><path fill="#5d493c" d="M102 254l48-56-212 44z"/><path fill="#2b211f" d="M522 278l-12 76-24-148z"/><path fill="#dc756b" d="M506 362l-64-92 60 36z"/><path fill="#e18f80" d="M658 314l24 40-120 96z"/><path fill="#45251f" d="M758 22l-92 60 44 192z"/><path fill="#cf9697" d="M718 418l76 16-108 24z"/><path fill="#d26458" d="M254 314l104-56-32-84z"/><path fill="#9f7d7a" d="M910 662l-28-4 48-88z"/><path fill="#7f0f0a" d="M906 554l12 36-76 40z"/><path fill="#e0d4c8" d="M470 262l-96-16 116-64z"/><path fill="#be3c2f" d="M506 326l-48-24-88 80z"/><path fill="#f6d0ae" d="M402 310l-32-12 16 28z"/><path fill="#b9b2b3" d="M42 198L342 90-62 66z"/><path fill="#e5e2d2" d="M718 302l136-36-228 172z"/><path fill="#8d8fb2" d="M894-10l80 196 112 36z"/><path fill="#412317" d="M290 230l-36-24 64-76z"/><path fill="#ede0c9" d="M158 258l-48 92 104 24z"/><path fill="#3a3033" d="M966 282l16-80-32-28z"/><path fill="#b78a8e" d="M578 650l56 88 4-252z"/><path fill="#b68573" d="M478 302l80-8 72 44z"/><path fill="#828cb8" d="M834 34l192-96-352 32z"/><path fill="#d5bdad" d="M922 446l-16-148-56-8z"/><path fill="#e46957" d="M946 410l44 40-56 8z"/><path fill="#f0ddbc" d="M318 566l-28-196 76-40z"/><path fill="#4a2720" d="M170 222l16-64 68-28z"/><path fill="#c45347" d="M354 274l-116-80 40 180z"/><path fill="#8e6961" d="M174 594l-44-12 80 64z"/><path fill="#aa3c2b" d="M254 390l-56-76 76-8z"/><path fill="#f69f8b" d="M374 334l72-36-72 72z"/><path fill="#a07058" d="M902 298l60 8-20-36z"/><path fill="#46241b" d="M746 74l-16 136 96-12z"/><path fill="#d9b0b2" d="M210 658l52-12-76-124z"/><path fill="#c4948f" d="M258 386l44 100-32 36z"/><path fill="#ffffd1" d="M938 642l8 52 68 32z"/><path fill="#170e0e" d="M462 142l20 8-8 20z"/><path fill="#8d96b1" d="M94-62L-62 50l516-40z"/><path fill="#fc9b83" d="M386 390l-36 12-4 88z"/><path fill="#2f2019" d="M782 182l-20-92 80 120z"/><path fill="#ce2628" d="M862 550l28 20 60-104z"/><path fill="#ffeddd" d="M858 518l8-20-4 40z"/><path fill="#cdcac1" d="M90 174l80 36-12-56z"/></g></svg>