<svg xmlns="http://www.w3.org/2000/svg" width="828" height="1024"><path fill="#6b6b6b" d="M0 0h828v1024H0z"/><g fill-opacity=".502"><path d="M366 990l416-840 108 936z"/><path fill="#fbfbfb" d="M-14 1022l232-840 216 872z"/><path fill="#fff" d="M438 766l140-604 108 152z"/><path d="M310 630L190 758l316 116z"/><path fill="#d5d5d5" d="M102 906l272-404L6 290z"/><path d="M98 234l108-132 132 108zM378 1050l488-804 24 768zM414 698l-12-176 160-200z"/><path fill="#a9a9a9" d="M890 378L778-62l-64 360z"/><path fill="#2b2b2b" d="M54 754l48-156 96 164z"/><path fill="#fff" d="M518 698l104-380-168 280z"/><path fill="#dedede" d="M338 726l40 64 168-144z"/><path fill="#0d0d0d" d="M706 82l16 144L478 82z"/><path fill="#dbdbdb" d="M-58 450l380 180 28-232z"/><path fill="#040404" d="M890 374l-376 712-128-280z"/><path d="M270 406l-36-44 108-128zM470 558L210 734l116 8z"/><path fill="#dcdcdc" d="M482 1086L-62 970l284-212z"/><path fill="#8e8e8e" d="M-62 78l52 600L178 22z"/><path fill="#b3b3b3" d="M546 410l-44-244 176 4z"/><path d="M670 354l220-8-340 204z"/><path fill="#fff" d="M686 514v-52l44 40zM614 418l100-124-88 8z"/><path d="M426 586l52-184 68-12z"/><path fill="#8a8a8a" d="M-58 498l324-324 32 128z"/><path fill="#fff" d="M550 382l-44 276 172-364z"/><path d="M262 134l88 72-36 64z"/><path d="M178 242l96-116-152 28z"/><path fill="#b0b0b0" d="M478 762l4-92-168 116z"/><path fill="#ccc" d="M426 1074L302 798l104 36z"/><path fill="#ebebeb" d="M110 526l88 200 160-216z"/><path fill="#252525" d="M334 366l80 124-44 56z"/><path fill="#373737" d="M710 90l-92 228 120-64z"/><path d="M366 618l76 72 28-132z"/><path fill="#4c4c4c" d="M106 590L30 854l104-172z"/><path fill="#8c8c8c" d="M-14 622l336 160-176-20z"/><path fill="#070707" d="M362 1086l528-44V458z"/><path fill="#b2b2b2" d="M350 578l84-48-120 136z"/><path fill="#111" d="M478 698l404-100-344 488z"/><path fill="#999" d="M382 642l88 100-140-92z"/><path fill="#868686" d="M722 302l16-364 152 444z"/><path fill="#8f8f8f" d="M446 258l264-16-236 164z"/><path fill="#dadada" d="M98 750l244 68-328 84z"/><path fill="#eaeaea" d="M490 506l16 188-52-32z"/><path fill="#9c9c9c" d="M298 194l-72 260-72-204z"/><path fill="#7f7f7f" d="M590 46l300 164-76-272z"/><path d="M130 266l-4-60 80-84z"/><path fill="#010101" d="M398 686l32-176 120-116z"/><path fill="#0c0c0c" d="M254 738l16-84 68-40z"/><path fill="#878787" d="M138 46L-62 378l164 56z"/><path fill="#0a0a0a" d="M818 594L694 270l196 200zM562 722l-160 96 44 236z"/><path fill="#fff" d="M714 506l-40 4 28-36z"/><path fill="#151515" d="M554 590l336-156-396 360z"/><path d="M238 126l-88 20 204 84z"/><path fill="#8d8d8d" d="M298 642l104-112 32 52z"/><path d="M334 298l-20-96-40 164z"/><path fill="silver" d="M354 394L54 418l296 96z"/><path fill="#1e1e1e" d="M486 118l252 32-136-84z"/><path fill="#101010" d="M174 322l-40-28-12-96z"/><path fill="#bebebe" d="M642 210l-92 92-32-144z"/><path d="M694 106l36 68-24 116z"/><path fill="#f4f4f4" d="M302 710l8-40-28 52z"/><path fill="#222" d="M698 470l-76-44-72 168z"/><path fill="#0f0f0f" d="M282 754l80-28-8-116z"/><path fill="#b4b4b4" d="M218 258l76-60h-68z"/><path fill="#aeaeae" d="M122 418L22 554l60 136z"/><path fill="#676767" d="M122 746l168 52-76-84z"/><path d="M354 818l-28-24h112z"/><path fill="#959595" d="M286 766l132 20 4-104z"/><path fill="#a0a0a0" d="M218 1086l64-48-28-216z"/><path fill="#666" d="M10-62L734 62l-552 68z"/><path fill="#868686" d="M-62 446L42 82l148 308z"/><path fill="#595959" d="M614 118l124 84-264-76z"/><path d="M86 678l16-76 4 72z"/><path fill="#dbdbdb" d="M162 714l200-152-248 52z"/><path fill="#d8d8d8" d="M282 1086l-244-16 172-268z"/><path fill="#8f8f8f" d="M314 878l-4 152 28-52z"/><path fill="#707070" d="M326 242l8 196 188-152z"/><path fill="#0b0b0b" d="M858 406L722 306l-12 192z"/><path fill="#e6e6e6" d="M474 562l52 124 28-304z"/><path fill="#929292" d="M14 666l40-80 88 172z"/><path fill="#797979" d="M434 734l40 36-156 32z"/><path fill="#383838" d="M342 554l80-132 4 100z"/><path fill="#bbb" d="M378 750l100-4-8-72z"/><path fill="#121212" d="M466 1066l288-392-268 20z"/><path fill="#a4a4a4" d="M386 954l28-64-4 136z"/><path fill="#060606" d="M530 426L430 610l-12-72z"/><path fill="#7c7c7c" d="M-46-62L54 194l188-92z"/><path fill="#5f5f5f" d="M358-62l-4 284L158 26z"/><path fill="#090909" d="M294 354l-4-52-44 76z"/><path d="M186 246l-68-48 40-52z"/><path fill="#7b7b7b" d="M442 126l156-72-84-48z"/><path fill="#0c0c0c" d="M890 382l-264 36 80-104z"/><path fill="#f4f4f4" d="M698 322l-4-40-36 28z"/><path fill="#9c9c9c" d="M166 242l4 160 104-56z"/><path fill="#e7e7e7" d="M242 614l-56 92 72-8z"/><path d="M462 522l24-128 60-20z"/><path fill="#787878" d="M-58 766l76-360 48 388z"/><path fill="#ededed" d="M510 518l96-72-116 240z"/><path fill="#1f1f1f" d="M346 806l-92-20 32-12z"/><path fill="#e5e5e5" d="M570 518l-32-152 120-16z"/><path fill="#717171" d="M622 326l-44 36-44-4z"/><path d="M294 742l92-56-60 4z"/><path fill="#7f7f7f" d="M410 42l-72 208 64 208z"/><path fill="#4d4d4d" d="M278 238l-44 4 32 40z"/><path fill="#131313" d="M538 98l-36 20-8 44z"/><path fill="#141414" d="M150 222l56-72-16 104z"/><path fill="#868686" d="M890 354L722 190l16 132z"/><path fill="#9c9c9c" d="M142 254l164 24-80 68z"/><path fill="#7d7d7d" d="M562 122L426 222l32 236z"/><path fill="#2c2c2c" d="M542 614l56-148 64-8z"/><path fill="#414141" d="M414 138l-4-200h56z"/><path fill="#b4b4b4" d="M98 490l-72 12 64 160z"/><path fill="#d5d5d5" d="M198 406l-44 240-56-240z"/><path d="M-62 606l92-8-92-28z"/><path fill="#7d7d7d" d="M874 246L814-62 634 58z"/><path fill="#5c5c5c" d="M562 358l-32-16-52 56z"/><path fill="#b0b0b0" d="M618 162l-16 224-88-200z"/><path fill="#7d7d7d" d="M442 354l32 64-72 128z"/><path d="M238 130l52 32-32 44z"/><path fill="#909090" d="M42 162l64 84 28-96z"/><path fill="#e1e1e1" d="M722 502l24 4-20-16z"/><path fill="#0f0f0f" d="M442 682l-60-36 96-152z"/><path fill="#acacac" d="M418 686l-60 24 36 64z"/><path fill="#686868" d="M278 1018l-16-72-4 88z"/><path fill="#111" d="M538 862l108-348 244 12z"/><path fill="#d3d3d3" d="M510 622l-60 4 56-104z"/><path fill="#e9e9e9" d="M458 642l60 44 56-212z"/><path fill="#0e0e0e" d="M290 694l-64 8 48 36z"/><path fill="#464646" d="M698 162l12 76-96-80z"/><path fill="#414141" d="M406 410l24-88-24-72z"/><path fill="#1b1b1b" d="M390 474l-28 64V418z"/><path fill="#8f8f8f" d="M674 234l-60 96 4-172z"/><path fill="#2a2a2a" d="M558 714l4-128-28 52z"/><path fill="#7e7e7e" d="M86 502l20-40-4 72z"/><path fill="#909090" d="M410 482l-20 28h-20z"/><path fill="#b2b2b2" d="M122 1086L18 898l-56 160z"/><path fill="#6a6a6a" d="M354 398l-136-4 132-48z"/><path fill="#dfdfdf" d="M314 866l-48-60 20 208z"/><path fill="#a0a0a0" d="M346 666l20-24 24 24z"/><path fill="#575757" d="M562 126l16 52 64-104z"/><path fill="#c3c3c3" d="M278 914l144 4-28-96z"/><path fill="#d7d7d7" d="M414 586l-12 8 12-32z"/><path fill="#949494" d="M102 734l172 32L78 666z"/><path fill="#d4d4d4" d="M286 638l60-152-144 28z"/><path fill="#dfdfdf" d="M362 570l-60-44 8-56z"/><path fill="#0f0f0f" d="M350 806l152-36 200 160z"/><path fill="#121212" d="M738 522l-20-196 172 36z"/><path fill="#131313" d="M614 458l276 36-172-196z"/><path fill="#101010" d="M282 378v-16l-52-8z"/><path fill="#606060" d="M118 730L18 842l-44-28z"/><path fill="#696969" d="M298 782h-36l28-68z"/><path fill="#7e7e7e" d="M418 458l-40-112v116z"/><path fill="#414141" d="M434 210l-28 56 4-116z"/><path fill="#727272" d="M526 258L414 434l4-484z"/><path fill="#d0d0d0" d="M494 634l-44 4 56-156z"/><path d="M270 722l8-52 28-24zM418 786l-24 24 24 72z"/><path fill="#696969" d="M178 66l200 164L254 22z"/><path fill="#414141" d="M62 738l-28-44 116 64z"/><path fill="#0d0d0d" d="M686 98l8 52-60-64z"/><path fill="#848484" d="M710 66l180 104-120 164z"/><path fill="#868686" d="M-62 122l168 44-92 396z"/><path fill="#dcdcdc" d="M130 758l68 252 32-228z"/><path fill="#bcbcbc" d="M274 398l28 100-196-44z"/><path fill="#aeaeae" d="M498 222l-4 52-12-8z"/><path fill="#050505" d="M722 214l-24 60 8-108z"/><path fill="#5f5f5f" d="M634 258l36-84v52z"/><path fill="#050505" d="M134 250l24 32v36z"/><path d="M318 730l40-8-68-8z"/><path fill="#7a7a7a" d="M318 794l-4-56h60z"/><path fill="#939393" d="M342 942l-20-56 4 100z"/><path d="M306 310l32-92-32-20z"/><path fill="#6b6b6b" d="M274 298l-36 4 32 44z"/></g></svg>