<svg xmlns="http://www.w3.org/2000/svg" width="788" height="1024"><path fill="#868686" d="M0 0h788v1024H0z"/><g fill-opacity=".502"><path d="M850 298v712L306 86z"/><path fill="#fff" d="M238 526l612 484-768 76z"/><path d="M-62 394L402 94 250 606z"/><path fill="#fff" d="M850 6L78 226-26-62zM762 1086l-560-64 488-376z"/><path d="M646 174l204 540-496-272zM414 86L170 594l80-480z"/><path fill="#fff" d="M210 262L318-62 46 266zM470 246l16 196-168-184z"/><path fill="#fefefe" d="M850 62L462 182 254-62z"/><path fill="#fff" d="M198 774l152-168L6 566z"/><path fill="#131313" d="M166 910H-62V386z"/><path fill="#030303" d="M366 322l-428-84 280 372z"/><path d="M474 650L318 754l232-372z"/><path fill="#fff" d="M50 250l196 12L90-62z"/><path d="M698 734l88-376 28 728z"/><path fill="#121212" d="M30 62l60 348-148 288z"/><path fill="#efefef" d="M586 542l-88 40 120 252z"/><path fill="#fff" d="M662 682l-212 404 340-32z"/><path d="M322 86l-88 92 200 72z"/><path fill="#fff" d="M134 174L666-62-62 2zM62 958l-68 92-40-200z"/><path fill="#7d7d7d" d="M450 674L46 998l68-196z"/><path d="M290 330l208 208-48-132z"/><path fill="#0f0f0f" d="M722 226l128 652-404-696z"/><path fill="#e1e1e1" d="M10 602l80-132 144 296z"/><path fill="#aeaeae" d="M214 514l156-112-20 264z"/><path fill="#858585" d="M682 646L490 850 378 706z"/><path fill="#292929" d="M206 34l72 32-104 4z"/><path fill="#090909" d="M550 170l192 392-296-16z"/><path fill="#fff" d="M426 310l24-172 28 176z"/><path fill="#ababab" d="M850-6v380L522 86z"/><path d="M334 582l104 76 36-64z"/><path fill="#d6d6d6" d="M394 394l-80-116 60-56z"/><path d="M38 862L26 622l56 52z"/><path fill="#e6e6e6" d="M198 866L50 1086l608-320z"/><path fill="#f7f7f7" d="M138 586l96 172 168-92z"/><path fill="#252525" d="M494 826l-36-84-28 44z"/><path fill="#030303" d="M330 90l92 40-8 144z"/><path fill="#232323" d="M54 66L34 562l-96-380z"/><path fill="#010101" d="M690 686l152 232-88 20z"/><path fill="#ededed" d="M118 714l-52 72 52 4z"/><path fill="#525252" d="M370 66l-72-24-84 28z"/><path fill="#d4d4d4" d="M722 694l-20-56-112 20z"/><path fill="#fff" d="M398 482l20-24 36 88z"/><path fill="#404040" d="M-62 342l260 260 132-112z"/><path d="M434 546l-60-52 12 52z"/><path fill="#fff" d="M-6 10l572-72L334 58z"/><path fill="#eee" d="M398 586l56-20-88-32z"/><path fill="#c4c4c4" d="M446 182l276-20-332-88z"/><path fill="#fff" d="M506 674l100-80-32-36z"/><path fill="#080808" d="M2 822l40 48 144-92z"/><path fill="#d8d8d8" d="M154 798l160-8-220 92z"/><path fill="#fff" d="M466 18h384L558-62z"/><path fill="#bbb" d="M450 422l20-88 44 132z"/><path fill="#090909" d="M238 490L30 254l336 104z"/><path fill="#f8f8f8" d="M322 422l44-16-8 88z"/><path fill="#fff" d="M722 834l56 252-332-356z"/><path d="M666 506l8 148-80-16z"/><path fill="#fff" d="M274 90l-92 172L22 34z"/><path fill="#0d0d0d" d="M430 242l-200-80 76-68z"/><path fill="#878787" d="M106 494L54 606l124-68z"/><path fill="#171717" d="M370 386l92-40-88 148z"/><path fill="#272727" d="M850 662l-56-396-232-84z"/><path fill="#222" d="M230 842l-72 52-92 8z"/><path fill="#3b3b3b" d="M426 666l-184 92 124-20z"/><path fill="#222" d="M70 1086l-8-120 44-12z"/><path fill="#3e3e3e" d="M586 710l-76-8 16 72z"/><path fill="#191919" d="M166 570l40-28 120 56z"/><path fill="#fff" d="M66 270L42-62l180 300z"/><path fill="#0c0c0c" d="M714 470l-308-36 72 128z"/><path fill="#2c2c2c" d="M750 722l-80 8 136-180z"/><path fill="#e4e4e4" d="M426 730l60-68 72-4z"/><path fill="#fff" d="M782 966l-16 112-136-260z"/><path fill="#b4b4b4" d="M222 70L50 58l80-40z"/><path fill="#838383" d="M762 334L642 158l184-16z"/><path fill="#d0d0d0" d="M594 566l-132 16 136 120z"/><path fill="#dedede" d="M694 30l-72 100-324-44z"/><path fill="#0f0f0f" d="M374 618l128-72-92 144z"/><path fill="#919191" d="M282 306l168 28-28 48z"/><path fill="#dcdcdc" d="M426 766L46 1086l592-60z"/><path fill="#bcbcbc" d="M54 938l128-64 16 72z"/><path fill="#e7e7e7" d="M138 670l116-84 108 16z"/><path fill="#9e9e9e" d="M786 742l64 116-68 52z"/><path fill="#1f1f1f" d="M326 98l120 112-36 64z"/><path fill="#151515" d="M558 550l292-144-400-236z"/><path fill="#121212" d="M290 386l-352 16 404-192z"/><path fill="#5b5b5b" d="M74 502l92-96-152-4z"/><path fill="#fcfcfc" d="M370 230l-8 52 104 44z"/><path fill="#737373" d="M150 690L58 794l20-128z"/><path fill="#fff" d="M62 10l152 256 28-124z"/><path fill="#9d9d9d" d="M598 190L738 10l112 228z"/><path fill="#efefef" d="M98 542l-52 16-8-60z"/><path fill="#c7c7c7" d="M722 646L390 854l188-4z"/><path fill="#3c3c3c" d="M214 790l52-40-116 48z"/><path fill="#0d0d0d" d="M34 902L22 770l56 148z"/><path fill="#dadada" d="M430 662l28 20-36 96z"/><path fill="#626262" d="M462 666l128 60-16 36z"/><path fill="#0e0e0e" d="M622 194l24 232-156-244z"/><path fill="#fff" d="M590 882l108-144 40 164z"/><path fill="#121212" d="M150 270l212 76-56 112z"/><path fill="#424242" d="M466 610l-20-76 76 128z"/><path fill="#b2b2b2" d="M194 918l228-184-92-4z"/><path fill="#888" d="M46 646L6 542l-4 72z"/><path fill="#121212" d="M234 170l8 212 172-264z"/><path fill="#e8e8e8" d="M326 594l68 88-224 96z"/><path fill="#b3b3b3" d="M382 570l-92-84 12 120z"/><path fill="#949494" d="M70 878l96-100-56 116z"/><path fill="#fff" d="M306 18l544-8-284-72z"/><path fill="#dcdcdc" d="M394 322l64 16V210z"/><path fill="#fff" d="M2 78L154 6-10-62z"/><path fill="#353535" d="M-62 318L46 82l16 288z"/><path fill="#060606" d="M150 482l32 108 4-192z"/><path fill="#fbfbfb" d="M54 918l-68-4-48 72z"/><path fill="#fefefe" d="M226 130l8 136-32-20z"/><path fill="#969696" d="M74 466l100 100-140-64z"/><path fill="#606060" d="M466 726l64-32 88 72z"/><path fill="#8a8a8a" d="M194 458l8 44 12-36z"/><path fill="#d4d4d4" d="M250 702L122 562l108 48z"/><path fill="#252525" d="M646 686l-56 8 36-28z"/><path fill="#d1d1d1" d="M430 362l-76-24 28 44z"/><path fill="#cacaca" d="M662 794l-76-80 84-56z"/><path fill="#9a9a9a" d="M710 662l-20 36 20 8z"/><path fill="#f0f0f0" d="M50 558l20 96-52-52z"/><path d="M462 750l-20 20 28 20z"/><path fill="#eaeaea" d="M374 434l-32-40 20 76z"/><path fill="#141414" d="M470 310l24-108 264 292z"/><path fill="#2f2f2f" d="M314 74l-8-16 60 4z"/><path fill="#212121" d="M42 554L14 450l-4 124z"/><path fill="#efefef" d="M562 666l52-68-44-40z"/><path fill="#dbdbdb" d="M590 646l40 4-92 76z"/><path fill="#3c3c3c" d="M706 310l-48-76-24 148z"/><path fill="#a4a4a4" d="M490 586l108 80-64 12z"/><path fill="#e0e0e0" d="M490 658l64 4-68 40z"/><path fill="#656565" d="M38 186L34 74l-96 64z"/><path d="M14 462l52-44-68 8z"/><path fill="#d4d4d4" d="M450 518l-56-8 16-60z"/><path fill="#131313" d="M234 538L110 426l96 176z"/><path fill="#252525" d="M442 254l-40 8-4-36z"/><path fill="#dbdbdb" d="M598 574l-60-24-68 68z"/><path fill="#101010" d="M850 470L626 614 498 422z"/><path fill="#fefefe" d="M258 54l60 4 4-120z"/><path fill="#b2b2b2" d="M650 194l-144-20L718 54z"/><path fill="#101010" d="M370 382L154 486l56-224z"/><path fill="#fff" d="M178 198L66 70h256z"/><path fill="#1e1e1e" d="M114 690l16 12v32z"/><path fill="#0f0f0f" d="M746 926l96 72-132-268z"/><path fill="#6f6f6f" d="M306 594l-56-8-56-104z"/><path fill="#212121" d="M602 1014l12 72H514z"/><path fill="#262626" d="M390 630l92 48-48-64z"/><path fill="#0e0e0e" d="M446 222L350 98l60 16z"/><path fill="#1d1d1d" d="M402 690l52-104-64-8z"/><path fill="#616161" d="M90 562v20l-48 20z"/><path fill="#eee" d="M650 790l-92-32-92 328z"/><path fill="#151515" d="M330 466h-28l-8 12z"/><path fill="#444" d="M446 690l88 28-4-28z"/><path fill="#131313" d="M274 122l72 124 76-64z"/><path fill="#f5f5f5" d="M462 562l-68 8 40-20z"/><path fill="#afafaf" d="M170 726l-40-60-4 64z"/><path fill="#a5a5a5" d="M606 722l8 36-84-28z"/><path fill="#464646" d="M166 750l-36-4-16 44z"/><path fill="#ebebeb" d="M414 10l-64 24 64 88z"/><path fill="#121212" d="M246 518l-16 80-56-40z"/><path fill="#e5e5e5" d="M686 634l32 44-12-32z"/><path fill="#696969" d="M774 1054l12-216 32 140z"/><path fill="#060606" d="M370 506l28-4-4 44z"/><path fill="#737373" d="M450 358l-36 32-20-52z"/><path fill="#dadada" d="M218 870l140-72 256 184z"/><path fill="#fcfcfc" d="M438 234l28-4v80z"/><path fill="#656565" d="M34 634l-12 92-84-32z"/><path fill="#d1d1d1" d="M178 798l172-28-144 72z"/><path fill="#0c0c0c" d="M530 466L426 606l168-124z"/><path fill="#d0d0d0" d="M450 422l-8-48 32 4z"/><path fill="#fff" d="M354 70L62 214 86 70z"/><path fill="#e7e7e7" d="M286 738L154 566l16 192z"/></g></svg>