<svg xmlns="http://www.w3.org/2000/svg" width="680" height="1024"><path fill="#706868" d="M0 0h680v1024H0z"/><g fill-opacity=".502"><path fill="#fff" d="M-62-62l456 760-288 184z"/><path d="M742 30L278-62 398 942z"/><path fill="#d7cecc" d="M282 62L-62-50l416 664z"/><path d="M-62 882l188 120-140-660z"/><path fill="#b7a9a9" d="M414 666l-60 420 388-164z"/><path fill="#020000" d="M246 398H138l16-220zM546 6L438 706l220 16z"/><path d="M478 658L254 914l-272 60z"/><path fill="#fff" d="M470 154l-88 72-36-68z"/><path fill="#ddd0cd" d="M482 466l-72 44-12-176z"/><path fill="#dacdcc" d="M554 182l188 144v228z"/><path d="M422-34l-212-4 140 200zM342 214l252 4 72 280z"/><path fill="#fff" d="M618 526l32-56-64 4z"/><path d="M10 450l84 452-156 16zM342 522l64-180-96-216z"/><path fill="#c9c2c1" d="M-30 270l352-92L2-62z"/><path fill="#f7f0f0" d="M146 502l-28 388-136-652z"/><path fill="#fff" d="M418 810l44-96 4 80z"/><path fill="#aa9e9e" d="M742 526L498 958l244-144z"/><path fill="#e4dddc" d="M106 898l244-180-268 4z"/><path fill="#e2d6d3" d="M362 198l92 12-64-80z"/><path fill="#271d1b" d="M590 458L430 858l172-180z"/><path fill="#fff" d="M494 842l36 8 28-120z"/><path fill="#1b1514" d="M246 258l-100 72-12-92z"/><path fill="#605451" d="M354-38l292 180-36 140z"/><path fill="#baaead" d="M310 366l-148-12 208 348z"/><path fill="#948a8a" d="M134 94l96 244 92-148z"/><path fill="#e5d9d2" d="M398 350l24 20-12-100z"/><path d="M402-62L54-6l336 60z"/><path fill="#958a89" d="M590 566l76 12-104 60z"/><path fill="#0f0404" d="M666 258L642-22l100 60z"/><path d="M374 718L154 870l224-76zM398 250l-4 332-96-368z"/><path fill="#0f0b08" d="M462 422l-48 4 12-136z"/><path fill="#564846" d="M346 866l96-344 20 176z"/><path fill="#807674" d="M346 578l-228 84 148 4z"/><path fill="#c9bfbe" d="M394 474l64 16 28-88z"/><path fill="#070100" d="M454 150l28 332 72-288z"/><path fill="#0f0706" d="M662 582l-32 144-148-8z"/><path d="M150 322l-8 88 32-16z"/><path fill="#110a08" d="M78 898l156-48-136 156z"/><path fill="#625453" d="M478 798l-280 80-172 208z"/><path fill="#bbb3b1" d="M210 594L110 254 46 402z"/><path fill="#0f0808" d="M534 546l112 32 8-60z"/><path fill="#6c5d5b" d="M66 914l68 172-196-116z"/><path fill="#7c7777" d="M62 462l80-8-84-32z"/><path fill="#b2a5a2" d="M410 74L390-62l40 88z"/><path fill="#dad2d1" d="M642 394l100-64-116-56z"/><path fill="#c2bab8" d="M306 194L278 26l-96 64z"/><path fill="#e5dfde" d="M26 130L-62-62 106 78z"/><path fill="#504845" d="M134 246l-104 8 28 20z"/><path fill="#fff" d="M634 478l-48 16 36 28zM50 294l-92-176 24 196z"/><path fill="#7f7473" d="M242 390l-40 68-68-204z"/><path fill="#5a5352" d="M30 334l248-4-84-44z"/><path fill="#fff" d="M326 190l-40-48 16 48z"/><path fill="#1f1613" d="M438 166l-60-52L502 2z"/><path d="M202 254l-52-32-8 64z"/><path fill="#8a7c7b" d="M490 170l40-20-36-140z"/><path fill="#9c9191" d="M742 1050L326 882l140-60z"/><path d="M270-18l48 196 80-152z"/><path fill="#8e8988" d="M126 106L94 210l-80-44z"/><path fill="#201311" d="M366 714l48-32-48-168z"/><path fill="#241c1a" d="M538 846l-48 28-8-28z"/><path fill="#130a09" d="M622 350l-68 104 96 24z"/><path fill="#807272" d="M406 1086L210 906l528 72z"/><path fill="#f1eceb" d="M58 434l84-64-40 72z"/><path fill="#fff8f6" d="M406 818l56-36-64 20z"/><path fill="#261d1c" d="M490 470l176-76-20 80z"/><path fill="#4b4645" d="M90 394l36-24-60 16z"/><path d="M394 226l-28 344-40-200z"/><path fill="#261c1c" d="M470 454l84 284 56-388z"/><path d="M222 330l-12 28 16 28z"/><path fill="#b1a8a6" d="M214 658l140 8-228 136z"/><path fill="#f8f2f2" d="M94 198l-48 8-4 60z"/><path fill="#564a49" d="M550 142l192 120-148-4z"/><path fill="#e4dcd9" d="M446 710l36 16-40 60z"/><path d="M-62 726L86 854 34 578z"/><path fill="#5b4e4d" d="M638 566l8-108 96-12z"/><path fill="#776d69" d="M454 334l-16 56-4-116z"/><path fill="#050000" d="M410 198l108 28-128 48z"/><path fill="#c7bdba" d="M390 302l24-8 4-28z"/><path fill="#0d0a07" d="M526-2h48l-44 164z"/><path fill="#4d413f" d="M374 502l56 260 44-276z"/><path fill="#cfc7c5" d="M122 682l16-312 52 236z"/><path fill="#c9c0be" d="M298 730l36-260 36 248z"/><path fill="#a29791" d="M358 210l-8-32 68 52z"/><path fill="#7d7473" d="M210 194l56 8-76-116z"/><path fill="#706969" d="M130 658v40l64-40z"/><path fill="#807473" d="M742 702L522 866l80-144z"/><path fill="#918583" d="M198 370l-36-80 12 164z"/><path fill="#786a68" d="M530-14l-12 128-32-172z"/><path fill="#ded6d5" d="M110 190l32-8-8 100z"/><path fill="#060000" d="M742 26L614-62 398-38z"/><path fill="#8d8281" d="M514 758l-60-44 148 36z"/><path fill="#645958" d="M202 254l92-8-40 28z"/><path fill="#29201f" d="M594 726l-128 4 16-380z"/><path fill="#fff" d="M610 474l36 32-48-4z"/><path fill="#b2aaa8" d="M426 166l-20 56-24-108z"/><path fill="#dcd0cc" d="M450 182l-32 20 32-36z"/><path d="M298 138l104-48L282-34z"/><path fill="#f5f3f1" d="M646 502l-48 20-4-20z"/><path fill="#eee8e8" d="M110 810l8 60 172-104z"/><path fill="#ede7e7" d="M-38 330l156 16-56 40z"/><path fill="#706363" d="M354 798L98 1010l340 76z"/><path fill="#b8aeae" d="M326 190l-172 20 72 48z"/><path fill="#2a2522" d="M430 818l-48 20-48-28z"/><path fill="#e3dbd9" d="M38 310l44-44 56 40z"/><path fill="#ada4a4" d="M482 958l-44-108 116 48z"/><path fill="#4b4543" d="M294 402l-44 28 8-20z"/><path fill="#140c0d" d="M598 594l44 32v84z"/><path fill="#999291" d="M458 330l24 12-60-4z"/><path fill="#b4abaa" d="M466 438l-68 68v-80z"/><path fill="#948989" d="M678 594L578 958l164 88z"/><path fill="#150e0b" d="M354 602l52-16-12-176z"/><path fill="#6d6160" d="M530 754l-40 104-16-128z"/><path fill="#89807e" d="M658 578l-88 40v-44z"/><path fill="#7f797a" d="M42 378l76-8-60 40z"/><path d="M310 214l108 12-88 124z"/><path fill="#0d0909" d="M442 322l108-196 20 204z"/><path fill="#b1a6a7" d="M266 50l-96-28-60 92z"/><path fill="#fffffd" d="M542 842l-32-8 20-60z"/><path fill="#070201" d="M418 346v72l24-8z"/><path fill="#c3b7b7" d="M654 458l32-16-16-24z"/><path fill="#150a0a" d="M114 890l224-132-96 120z"/><path fill="#524847" d="M382 830l72-124-64-104z"/><path fill="#aca59e" d="M402 274l-4 52 32 24z"/><path fill="#8e827f" d="M418 2l-8 88-12-44z"/><path fill="#8b8380" d="M282 562l28 68-48 16z"/><path fill="#a59d9d" d="M594 638l4-48-20-16z"/><path fill="#979191" d="M62 158l-24 52-76-144z"/><path d="M462 814l-44 8 56-28z"/><path fill="#d3cbc9" d="M466 786l-88 28 96-64z"/><path fill="#28201f" d="M586 614l-24-240-104 340z"/><path fill="#050100" d="M614 542l16-28 28 64z"/><path fill="#cec7c5" d="M398 138l-64 32 72 24z"/><path fill="#c1b7b8" d="M434 394v68l28 20z"/><path fill="#231e1c" d="M482 70v56L426 18z"/><path fill="#0c0707" d="M458 150l56 32-72 204z"/><path fill="#66615f" d="M458 314v104l36-52z"/><path fill="#020000" d="M374 362l-36-232-20 112z"/><path fill="#030100" d="M394 94L166-26 394 6z"/><path fill="#e5e0e0" d="M78 714l84-92-116-76z"/><path fill="#736868" d="M634 142l-8 172-36-56z"/><path d="M146 306h20l-24 72z"/><path fill="#a69c9c" d="M230 354l-28-84 92 4z"/><path fill="#0e0c0a" d="M474 342l12 64-24 8z"/><path fill="#746868" d="M698 594l-60-188v124z"/><path d="M-62 414l64 4 24 144z"/><path fill="#d2ccc9" d="M562 746l-24 80-8-84z"/><path fill="#9b9090" d="M274 306l40-16-16-112z"/><path fill="#29201f" d="M714 250l-84 8 20-320z"/><path fill="#a29a98" d="M438 54l12-64 4 48z"/><path fill="#0b0503" d="M214 310l-32-24-4-60z"/><path fill="#eee7e7" d="M-62 138l92 96-4 176z"/><path fill="#c2b9b9" d="M86 170l168 88-76-72z"/><path fill="#cbc7c3" d="M138 326l-32 8 40 68z"/><path fill="#1d1615" d="M578 326L450 694l16-220z"/><path fill="#3d3332" d="M742 450l-100 16 4 40z"/><path fill="#cec6c5" d="M266 674l-40 56 36-144z"/><path fill="#beb4b4" d="M286 350l-60 132 8-152z"/><path fill="#9e9594" d="M142 282l28 40 20-4z"/><path fill="#c7c0be" d="M106 638L82 458l180 144z"/><path fill="#7d7674" d="M190 146l-32-28 8 92z"/><path fill="#c4baba" d="M166 182l48 24-12 52z"/><path fill="#5b504f" d="M622 258L566 14l-8 176z"/><path fill="#b1a7a7" d="M742 442l-40-184-76 8z"/><path fill="#afa4a4" d="M178 126l92-76L70-2z"/><path fill="#13100d" d="M554 158l-28-64 32-68z"/><path fill="#efeaea" d="M70 406l60 20-108 12z"/><path fill="#9f9494" d="M210 426l-52 16 48-108z"/><path fill="#bab1b0" d="M478 418l-52 12 16 68z"/><path fill="#3c302e" d="M34 930L2 962l-12-156z"/><path fill="#eae4e4" d="M34 174L-62 18v68z"/></g></svg>