<svg xmlns="http://www.w3.org/2000/svg" width="1024" height="752"><path fill="#665f5b" d="M0 0h1024v752H0z"/><g fill-opacity=".502"><path fill="#fff" d="M-62 334L738-62H-30z"/><path d="M1086 582L-62 430 874-2z"/><path fill="#fffadf" d="M1078 530L974 798 86 674z"/><path d="M358 78L-6 418l1092-168z"/><path fill="#edfefa" d="M926-62L378 10l596 144z"/><path fill="#fff" d="M-62 386l480 392-480-212zM594-62L14 322-62-38z"/><path fill="#ffc1a4" d="M374 466l104-184 248 92z"/><path d="M230 146L42 494l492 124zM746 642l340-396L586 58z"/><path fill="#f7bd9c" d="M118 626l280 188-64-384z"/><path d="M134 598l-12 216-184-136z"/><path fill="#fff" d="M70 602l-132 56 88-336z"/><path fill="#ffd8c4" d="M1034 718l-528 40 572-296z"/><path fill="#00000e" d="M566 594L386 754l148-12z"/><path fill="#000005" d="M118 258l968 132L570 62z"/><path fill="#ff9e70" d="M590 814l356-92-444-228z"/><path d="M178 214L34 470l192 132zM882 702l204 64-164 32z"/><path fill="#fff" d="M262 50L42 362 26-62z"/><path fill="#ffb9a2" d="M402 458l-20-88 304-44z"/><path fill="#fff" d="M142 630l128-40-324-88z"/><path d="M1086 466L754 594l84-620z"/><path fill="#d6e8ec" d="M706 46l380 188L930 90z"/><path d="M310 466l144 172 72-192zM234 814l-296-96h300z"/><path fill="#fffff1" d="M1086 238l-84-20 8-280z"/><path fill="#f5f6e8" d="M550-62l96 88-308 88z"/><path fill="#000108" d="M1002 170l-68-56 56-176z"/><path fill="#f3ffff" d="M754 590l152-16 180 208z"/><path fill="#ffe7cd" d="M490 534l152 4-144 56z"/><path fill="#fff" d="M394 614l108 20-100 104z"/><path fill="#410000" d="M606 610l-132 4 244-84z"/><path fill="#000205" d="M558 310l-588-12 260 136z"/><path fill="#fff" d="M130 698l64-96-8 116z"/><path d="M406-2l-8-60-56 108zM706-62h-84L734 58z"/><path fill="#f8ffff" d="M-62 402l72 80 52-156z"/><path fill="#000c58" d="M826 114L498 62 218 178z"/><path d="M618 542l-148-76 236-92z"/><path fill="#00000e" d="M162 626L-34 814l80-200z"/><path d="M270 486L94 530 26 418z"/><path fill="ivory" d="M918-62l-228 4 76 140z"/><path d="M646 546l356-332 84 268z"/><path fill="#fff" d="M10 126l332-16-404 220z"/><path fill="#62280e" d="M418 814l-32-172-76 172z"/><path fill="#fff" d="M-62 242v476L82 554z"/><path fill="#000115" d="M882 2l16 104-88-68z"/><path fill="#7e4837" d="M654 450l116-164v140z"/><path fill="#ffc69c" d="M718 538L554 638l248 168z"/><path fill="#eb9984" d="M398 370l84 92 228-128z"/><path fill="#083e2d" d="M14 78l-28 44 60-16z"/><path fill="#8e4d47" d="M386 298l148-28 60 68z"/><path fill="#fdd5c1" d="M326 482l44 60-140-24z"/><path fill="#f3c09f" d="M226 650l36 164 132-204z"/><path d="M382 450l184 8-188 160zM822 814l112-92 148 36z"/><path fill="#e2e1d4" d="M310 66L654-62V66z"/><path fill="#00002f" d="M470 762l72-132-168 132z"/><path fill="#917065" d="M1086 678l-156-64 4-80z"/><path d="M274 146L78 506l136 72zM46 802l176-108 48 120z"/><path fill="#f4ffff" d="M-62 462l276 120-64 52z"/><path fill="#894e36" d="M226 618l-16 76 152-100z"/><path fill="#b66a44" d="M554 674l72 140H410z"/><path fill="azure" d="M974 726L762 626l256 12z"/><path fill="#001c46" d="M666 178L598 66l192 36z"/><path fill="#98442f" d="M634 534l56-72 96 192z"/><path fill="#000006" d="M170 558l84-400 352-32z"/><path fill="#ffb7a7" d="M606 574l-80-84-48 96z"/><path fill="#ffb9a0" d="M366 558l12 56-144-32z"/><path fill="#ebd8c8" d="M946 166l12-116-76-112z"/><path fill="#bd816f" d="M906 790L670 586l228 108z"/><path fill="#090000" d="M358 558l-92-12 56-12z"/><path d="M390 610l124-8-168-112zM926 154l160 128-448 52z"/><path fill="#00234d" d="M118 346l84-152L66 330z"/><path fill="#c0a697" d="M1086 478l-188 72 188 184z"/><path fill="#74362b" d="M498 430l56 8-40-112z"/><path fill="#fff" d="M390 614l20 108 84-68z"/><path fill="#fffffe" d="M58 314l4-376 180 208z"/><path fill="#f0ccba" d="M458 374l-44-32-16 80z"/><path fill="#e6eae0" d="M930 138L730 22l84 88z"/><path d="M934-62h56l-4 188zM710 390l376 56-348 148z"/><path fill="#d0ad90" d="M218 510l44-12-28 104z"/><path fill="#fff" d="M518 634l-60-12 76-8z"/><path fill="#4a0802" d="M350 622l-12-36-32 24z"/><path d="M38 446l84 96 124-380z"/><path fill="#000d15" d="M162 814L-62 706 90 606z"/><path fill="#001c4c" d="M442 214l92-148-232 72z"/><path fill="#001251" d="M494 638l-28 88 88-64z"/><path fill="#497aa4" d="M902 642l8 20 52-56z"/><path fill="#feffff" d="M162 714l52-44-72-28z"/><path fill="#77abbb" d="M130 622l20 28 96-72z"/><path fill="#809597" d="M226 66l32-80-68-40z"/><path fill="#287ad8" d="M438 698l20 24 44-72z"/><path fill="#ffbea9" d="M558 330l92 60-104 24z"/><path fill="#0a0300" d="M502 534l-60 104-128-224z"/><path fill="#000004" d="M678 414l152-304-148 48z"/><path d="M722 26l-68-36 56-36z"/><path fill="#8095b4" d="M778 634l140-92-164 52z"/><path fill="#ffc59d" d="M574 682l212 132-96-264z"/><path d="M610 526l-192-64 272-20z"/><path fill="#00304a" d="M202 226l-72 8-64 124z"/><path fill="#2c857e" d="M10 358l80-56-112-12z"/><path fill="#f0cbac" d="M274 626l-24 188 124-188z"/><path fill="#341d16" d="M746 318l-208-48-16 64z"/><path d="M46 474l-12-72 240 100z"/><path fill="#c9cfca" d="M842 94L542-30l-32 88z"/><path fill="#6a140d" d="M638 598l72-76-196 92z"/><path fill="#987b66" d="M714 454l64-72-16-24z"/><path fill="#c7caaf" d="M398 90L194 190 474-62z"/><path fill="#af967d" d="M350 454l-112 64 56-64z"/><path fill="#260000" d="M250 574l44-40h-32z"/><path fill="#001336" d="M346 46l56-108 32 28z"/><path fill="#faf4df" d="M154 86L398-62 290 142z"/><path d="M942 726l-132 72 268-48z"/><path fill="#f8e0e0" d="M946 530l64 12-20-32z"/><path fill="#ccc4b7" d="M990 190l96 108-56-352z"/><path fill="#125485" d="M-50 618l88 8-64 188z"/><path fill="#4f6f80" d="M822 58l40 48 100-8z"/><path d="M94 354l320-160-44 256z"/><path fill="#fffff9" d="M-2-62l-60 176L342-62z"/><path fill="#3b9d9c" d="M162 718l-44-40 4 44z"/><path fill="#fff" d="M50 586L34 414l-96 168z"/><path fill="#764a3a" d="M390 706l-4-96-20 40z"/><path fill="#da896d" d="M518 450l-124-8-8-60z"/><path d="M230 582l-124-60 72-120z"/><path fill="#fffffc" d="M878 666l44-96-140 56z"/><path fill="#eebca1" d="M234 606l136-16-88-40z"/><path fill="#395553" d="M342 90l-24 12 16 32z"/><path fill="#ffbda6" d="M466 578l184-36-120-20z"/><path fill="#e3e0d4" d="M458-62L622 38l-276 64z"/><path fill="#001a43" d="M738 162l188-8-260-76z"/><path fill="#98756a" d="M718 394l-36 36 36-80z"/><path fill="#875848" d="M914 538l44 84v-56z"/><path d="M1082 498l-56-248-288 160z"/><path fill="#aab5b7" d="M930 98l64 84-208-84z"/><path fill="#001454" d="M798 578l72-20-24-12z"/><path fill="#511300" d="M290 606l-32 28-28-28z"/><path d="M218 686l44 128-136-16z"/><path fill="#ffc5a3" d="M834 682l-324-56 404 188z"/><path fill="#94afba" d="M574 302l-8 28-16-12z"/><path fill="#fff" d="M1018 674l-56 56-88-56z"/><path fill="#c1a691" d="M286 662l-104-72 64 152z"/><path fill="#676a77" d="M454 606l40 44-76-28z"/><path fill="#000e21" d="M218 186L86 310l328-156z"/><path fill="#8e5046" d="M526 278l-48 44-36-48z"/><path fill="#000200" d="M410 190l452-40-276 164z"/><path fill="#886f65" d="M934 718l-48 8-60-68z"/><path d="M490 726l-136 88 44-80z"/><path fill="#7c2f30" d="M610 318l20-32 44 56z"/><path fill="#fffff8" d="M-58 650l184-92-108-88z"/><path fill="#e5ae96" d="M378 686l-16-132-68 260z"/><path fill="#fffffd" d="M386 610l100 52-76 52z"/><path fill="#00254e" d="M434 154l8-72-164 68z"/><path fill="#2f0901" d="M570 606l-16 16-56-32z"/><path fill="#c89074" d="M702 566l-84 36 280 112z"/><path d="M502 610L314 342l96 268z"/><path fill="#180600" d="M530 430l120 84 44-132z"/><path d="M86 618l52 196H14z"/><path fill="#ffc4b9" d="M474 414l48-12-36-24z"/><path fill="#000a06" d="M834 30l48-36-44 80z"/><path fill="#f4ebdc" d="M742 50l112 60L710-62z"/><path fill="#210c05" d="M514 318l-124-8 52 48z"/><path fill="#82b1b6" d="M130 626l-40-40-20 16z"/><path fill="#d37f73" d="M630 394l56-44-76-28z"/><path fill="#9e7e69" d="M350 462l-40-24-44 64z"/><path fill="#95a79e" d="M830 110L638-14l88 100z"/><path fill="#acad9a" d="M1070 410l-84 152 48 248z"/><path fill="#8f5644" d="M462 434l8-56 16 64z"/><path fill="#ecb1a5" d="M630 402l-12-68-100 4z"/><path fill="#fcbb92" d="M542 642l88 172 72-252z"/><path fill="#00143a" d="M738 90L478 74 366 218z"/></g></svg>