<svg xmlns="http://www.w3.org/2000/svg" width="768" height="1024"><path fill="#a4a88a" d="M0 0h768v1024H0z"/><g fill-opacity=".502"><path fill="#fafbef" d="M78-62L30 542 566-62z"/><path fill="#3e4f1e" d="M450 146l380-56-268 492z"/><path fill="#052e1f" d="M414 1046l52-188 364 48z"/><path fill="#556700" d="M-62 878l92-276 212 248z"/><path d="M234 426l128-108-120-52z"/><path fill="#dfe1d6" d="M830 450l-528 636-12-384z"/><path fill="#164526" d="M58 378L26-62l-88 384z"/><path fill="#d2d9cd" d="M338 442L318-62l244 496z"/><path fill="#e2ce26" d="M202 634l-4 196-260-308z"/><path fill="#694a30" d="M262 506l500-56-236 120z"/><path fill="#e4bdaf" d="M822 346l-384-12 384 160z"/><path fill="#f5f6e5" d="M754 338l76-104L742 2z"/><path fill="#386a28" d="M546 102l204 228-276 4z"/><path fill="#653b08" d="M134 578l60-64 120 92z"/><path fill="#475340" d="M406 942l320 24 104-168z"/><path fill="#212b1e" d="M734 158l-260 28L746 74z"/><path fill="#9faa95" d="M570 998L406 514l140 24z"/><path fill="#e2e4d4" d="M282 526l-168-36 96-164z"/><path fill="#f3f2e2" d="M282-62l84 312-132 40z"/><path fill="#214224" d="M-34 806l-28-116 312 176z"/><path d="M242 302l76-12-84 112z"/><path fill="#cbca93" d="M-62 870l532 28-396 188z"/><path fill="#c6504f" d="M726 370L522 510l24-120z"/><path fill="#eae3e1" d="M686 1086L562 986l244-24z"/><path fill="#b16126" d="M314 358l-20 164-64-148z"/><path fill="#ebe3d7" d="M714 666l116-132-336 76z"/><path fill="#efda44" d="M-62 646l148 44-4 64z"/><path fill="#c7c8ad" d="M718 938l28-92 84 88z"/><path fill="#deddd5" d="M546 834l-268 88 188-260z"/><path fill="#010b00" d="M506 710l-8-52-32-28z"/><path fill="#bc1128" d="M610 474l164-16-136 60z"/><path fill="#333d20" d="M526 934l32-124-140 128z"/><path fill="#ced1c1" d="M534 798l24 156 48-280z"/><path fill="#a4b49d" d="M318-62l116 316L686-50z"/><path fill="#648c00" d="M358 950v-32l-96 24z"/><path fill="#b5b99a" d="M70 286L-30 582l248-64z"/><path d="M334 382l-16-80-64-12z"/><path fill="#507e3a" d="M562 334l-76 12-24-236z"/><path fill="#ccb31f" d="M106 914l-20-44 124-60z"/><path fill="#59893e" d="M466 282l280 72V162z"/><path fill="#83733a" d="M398 502L226 638l316-124z"/><path fill="#223622" d="M754 954l-140 16-36-104z"/><path fill="#548772" d="M466 1054l172-84-236-40z"/><path fill="#f3ebd1" d="M430 962l-88 28 36 68z"/><path fill="#0d2c20" d="M194 522l-48 28 8 64z"/><path fill="#a4b3a3" d="M182 642l120 192 128-236z"/><path fill="#bbc7b2" d="M594 342l-320 84 184 80z"/><path fill="#cdcec3" d="M610 878l108-40-280-24z"/><path fill="#d59965" d="M614 410l112-8-36 96z"/><path fill="#001b09" d="M618 486l-8-52 24-28z"/><path fill="#d1d4c4" d="M602 482l-52 220 96-144z"/><path d="M318 458l-20-16-28 20z"/><path fill="#49702e" d="M10 906l52-12v-92z"/><path fill="#7e8277" d="M770 774l-76-104-204-24z"/><path fill="#91ab44" d="M710 218l44 68-244-36z"/><path fill="#3a573c" d="M522 558l-32-80 144 88z"/><path fill="#92ae9a" d="M410 38l420-48-168 140z"/><path fill="#c9c593" d="M206 794l116-24-148-212z"/><path fill="#030202" d="M234 322l112 8-44-52z"/><path fill="#ffd84b" d="M-62 934l96-84-16-44z"/><path fill="#ddddc9" d="M362 302l-248-88 12-276z"/><path fill="#85963f" d="M34 706l-96-140 224 136z"/><path fill="#c7c7b7" d="M342 478l4-540 140 20z"/><path d="M742 830l20 20 68-40z"/><path fill="#53615b" d="M570 826l-4-48 92 48z"/><path fill="#dad8bb" d="M258 878l4 208-68-224z"/><path fill="#4c1311" d="M542 130l120-4-176 60z"/><path fill="#464e36" d="M386 638l84-4-80-24z"/><path fill="#bdcfb5" d="M622 334l-140 36 292 16z"/><path fill="#3c6333" d="M154 878L98 738 6 810z"/><path fill="#d1cdbf" d="M630 966l-88 56 268-12z"/><path fill="#215332" d="M738 98v148l-84-84z"/><path fill="#f9de4b" d="M-22 586l72-60 64 124z"/><path d="M270 890l20-4-44-20z"/><path fill="#bdbabb" d="M726 830l-24-92-164 36z"/><path fill="#cfbd36" d="M190 722l-32 156 68-108z"/><path fill="#efebd8" d="M350 354l-64 92 36-8z"/><path fill="#efd23f" d="M94 742l-32-96-28 96z"/><path fill="#918e6e" d="M154 606l-72-32 56-116z"/><path fill="#181a0a" d="M738 966l-24-60-64-12z"/><path fill="#daa865" d="M270 514l60 12 8-84z"/><path fill="#9f1e23" d="M550 374l32 48 52-20z"/><path fill="#d6d7cb" d="M306 762l84 176 156-120z"/><path fill="#030514" d="M174 862l44-40 16 28z"/><path fill="#245f39" d="M746 338v-60l-216 40z"/><path fill="#283e25" d="M546 962l-76-48 72-80z"/><path fill="#ecebce" d="M558 958l4-32-20 28z"/><path fill="#86aeb6" d="M374 542l-144 44 40-72z"/><path fill="#86a152" d="M462 254l-8 84 136-88z"/><path fill="#4a4000" d="M226 982l-40-12 12-12z"/><path fill="#ced3bd" d="M38 454l268-208L66 6z"/><path fill="#b6bea7" d="M562 674l-36-140-124 60z"/><path fill="#bfbd83" d="M62 1026l372-108-148 120z"/><path fill="#6c735d" d="M514 782l-12-100 52 124z"/><path fill="#d8dbd1" d="M366 622l108 40 68 148z"/><path fill="#ede3c9" d="M94 998l-140 88-16-92z"/><path fill="#869251" d="M138 734l160 96-176-48z"/><path fill="#cd853b" d="M254 606l144-68-4 52z"/><path fill="#c17840" d="M258 366l16 72 44-96z"/><path fill="#010300" d="M278 466l36-16-40-4z"/><path fill="#d87a24" d="M230 526l16 64-40 8z"/><path fill="#3e513b" d="M658 222l-176-44-12 68z"/><path fill="#dcdac8" d="M590 518l16 196 64-96z"/><path fill="#b7b4ad" d="M830 658l-140-24 92 188z"/><path fill="#99ad9c" d="M230 758l188-204-40 212z"/><path fill="#d7d6c2" d="M22-62l208 576V-42z"/><path fill="#587a3e" d="M78 646l-48 80-4-84z"/><path fill="#b7bfa2" d="M478 390l-8-248-76-20z"/><path fill="#dbe2d6" d="M266 442l-68 28 56 64z"/><path fill="#d37870" d="M538 390v100l68-32z"/><path fill="#6d7551" d="M290 690v-72l-24 4z"/><path fill="#d7d9c2" d="M554 790l20 76-32 84z"/><path fill="#44633b" d="M38 10l-56-72 56 180z"/><path fill="#07180d" d="M154 570l16-36 40 20z"/><path fill="#b1b190" d="M830 494l-140-16-16 92z"/><path fill="#50653b" d="M30 490l-12 24 20 32z"/><path fill="#d1d0bb" d="M310 922l-84-64-96 16z"/><path fill="#97a28b" d="M830 1010l-92-56-24-152z"/><path fill="#050300" d="M246 362l-12-48 84 28z"/><path fill="#7b7e5c" d="M614 166l-140 40 204 4z"/><path fill="#495a3b" d="M634 470l-124 76 4-72z"/><path fill="#e6b871" d="M618 370l76 84-48 12z"/><path fill="#c5c5b3" d="M286 926l108-12-108-152z"/><path fill="#9aa68e" d="M42 258l28-60v160z"/><path fill="#bdcbb9" d="M830 566l-4-284-132 100z"/><path fill="#e6e8d7" d="M570 646l-28-32 16 120z"/><path fill="#7d4719" d="M282 418l-8 36-40-68z"/><path fill="#4b694c" d="M490 510l-144-12 24 48z"/><path fill="#b5bda7" d="M550 658l16-92-168 4z"/><path fill="#21240e" d="M590 410l48 72-16-60z"/><path fill="#cac463" d="M22 694l4-76-80 124z"/><path fill="#9bad87" d="M382 474l84 52 88-120z"/><path fill="#b66761" d="M666 374l64 32-28 40z"/><path fill="#b9bea7" d="M-22 374l220 164V362z"/><path fill="#748171" d="M610 650l-44 88 4-80z"/><path fill="#c9c6b0" d="M-62 878l56 68 200-8z"/><path fill="#d52b25" d="M670 494l-32-56-16 68z"/><path fill="#e3e4d0" d="M258 246l76-308 16 376z"/><path fill="#71825a" d="M138 922l40-20 44 28z"/><path fill="#446449" d="M38 366l12-188-40 56z"/><path fill="#696437" d="M490 898l-84 40 32 28z"/><path fill="#3e644e" d="M686 922l-176 108 72-96z"/><path fill="#c9c8b0" d="M830 262l-84-12 4-300z"/><path fill="#cdcbc4" d="M706 822l-72 16 52 36z"/><path fill="#9aad92" d="M470 30l-56 80 232 16z"/><path fill="#628258" d="M650 82l24 72 48-72z"/><path fill="#5f613d" d="M250 818l12-32 24 56z"/><path fill="#03080d" d="M154 870l-24-8v-24z"/><path fill="#c7c9b9" d="M414 846l64-104-12 172z"/><path fill="#86846e" d="M734 850l-172 16 100 28z"/><path fill="#000100" d="M234 358l8-48 24-20z"/><path fill="#bdbb76" d="M178 622L38 514l-28 48z"/><path fill="#b8c0ae" d="M418 478l160-112-204-64z"/><path fill="#919374" d="M122 454l-16-92-8 88z"/><path fill="#374a36" d="M42 834l-8-132-40 72z"/><path fill="#d1d8ca" d="M10 482l16 64-48 12z"/><path fill="#94ac42" d="M746 222l-4 36-108-16z"/><path fill="#dadbcd" d="M466 658l-56 252-12-268z"/><path fill="#93a892" d="M458 102l48 68L674-30z"/><path fill="#ddddca" d="M534 746l96-68-56 92z"/><path fill="#757465" d="M702 686l36 132 4-80z"/><path fill="#586051" d="M642 658l40 8-56 28z"/><path fill="#e1cf30" d="M134 874l-28-20-20 68z"/><path fill="#bdbc9b" d="M222 830l52-156-84-100z"/><path fill="#ddd9c7" d="M646 666L538 566h228z"/><path fill="#969e82" d="M86 186l-20 60 4-112z"/><path fill="#1e2216" d="M246 866l8-4-24-16z"/><path fill="#c2c7b8" d="M438-42l4 440-112-40z"/><path fill="#282f19" d="M602 878l88 24-128 16z"/><path fill="#194128" d="M478 246l16-56-20-48z"/><path fill="#315523" d="M42 834l76 32H70z"/><path fill="#b6b89e" d="M514 846l56 20-72-152z"/><path fill="#c67d68" d="M530 450l8 56 52-88z"/><path fill="#c1c7b2" d="M126 70L38-62l8 220z"/><path fill="#3f4937" d="M494 646l-44-12 44 44z"/></g></svg>