<svg xmlns="http://www.w3.org/2000/svg" width="812" height="1024"><path fill="#524449" d="M0 0h812v1024H0z"/><g fill-opacity=".502"><path fill="#fff" d="M650 942l-440 144 52-428z"/><path fill="#e6e6f0" d="M186 370l328-168 240 296z"/><path d="M874 474L826-62-62 2z"/><path d="M18-62l-80 656 352-272z"/><path fill="#ffb4b9" d="M622 574l252-108-96 416z"/><path d="M626 782l-368 24 340-408z"/><path fill="#fffffc" d="M578 1086L198 930l340-164z"/><path d="M254 822L-54 582l76 504z"/><path fill="#a49ba3" d="M282 170L34 762l544-528z"/><path d="M838 558l8-616-544-4z"/><path fill="#fff" d="M598 274l-88-64-92 48z"/><path fill="#7a153b" d="M530 778l72 308 272-332z"/><path fill="#a0c8c4" d="M-62 590l364-96-88-88z"/><path d="M-62 642L38-62l232 340zM366 390l-20 124 280 164z"/><path fill="#fffcf2" d="M582 310l-132 48 60 124z"/><path d="M-62 1046L74 662l128 424z"/><path fill="#0c0513" d="M246 630l408-152-72 348z"/><path fill="#a99094" d="M98 730l36-172 216 144z"/><path fill="#0b0106" d="M874 142l-476 96L-2-62z"/><path fill="#e8ffff" d="M562 314l100 192 60-44z"/><path fill="#d6ecd6" d="M270 742l-40 236 324 108z"/><path fill="#a14e68" d="M622 590l24 328 228-16z"/><path fill="#fbbaae" d="M874 750L758 498l-80 140z"/><path fill="#231c32" d="M490 266l-76-4-60 116z"/><path fill="#e6c5c5" d="M270 274l200 64-176-144z"/><path fill="#330b1f" d="M590 718l104 368-132-88z"/><path fill="#fff" d="M554 230l32 60-144-48z"/><path fill="#2b000a" d="M518 962l-36-8 16 132z"/><path d="M210 562l-16-40-88 32z"/><path fill="#000200" d="M-62 526V-6l420-56z"/><path fill="#833d53" d="M198 126l172 20-160 140z"/><path fill="#1c1726" d="M566 410L302 802l368-300z"/><path fill="#5c2641" d="M330 678l132 140-136 8z"/><path fill="#060003" d="M518 666L362 354v152z"/><path fill="#766c88" d="M318 450l116 164-236-56z"/><path fill="#000100" d="M238 750L14 1086l32-372z"/><path fill="#16090f" d="M602 130l-32 248 236-208z"/><path fill="#ffdfe5" d="M470 506l104-96-76 36z"/><path fill="#070000" d="M666 402V254l208 316z"/><path d="M242 562l28 100 132-16z"/><path fill="#f8ffef" d="M574 1078L450 798l80-8z"/><path fill="#687399" d="M502 450L370 254l52 220z"/><path fill="#513131" d="M114 694L-50 442l-12 440z"/><path fill="#85364c" d="M150 966l108-272-44 392z"/><path fill="#5a526a" d="M362 362L234 470l16-188z"/><path fill="#ccdae6" d="M642 354l-68 64 152 88z"/><path fill="#28051b" d="M746 546l-88-28 68 48z"/><path fill="#ffe6df" d="M562 350l-136 40 52-104z"/><path fill="#785a59" d="M310 1050l-8-84-56 4z"/><path fill="#acb3b9" d="M330 722l-112 28 56 96z"/><path fill="#fff" d="M570 242h-40l52 68z"/><path fill="#ffc4ca" d="M794 506l-80-8 160 92z"/><path fill="#181018" d="M338 430l296 144-100 224z"/><path fill="#8fb3aa" d="M26 530l20 56 152-160z"/><path fill="#883b58" d="M770 1086l104-348-272-8z"/><path fill="#a18a80" d="M174 566l60 108-236-8z"/><path fill="#badfeb" d="M386 238l8 56 68-44z"/><path fill="#e1fff5" d="M238 946l-64-4 76-16z"/><path d="M10 594l-72 76 176-92zM518 206l-160-8 16 40z"/><path fill="#060400" d="M198 394l40-224-300 420z"/><path fill="#e3aaa2" d="M646 534l16 88 124-36z"/><path fill="#bcb4c7" d="M366 422l-48-84-4 120z"/><path fill="#2f0b16" d="M494 262l-76 16 144 8z"/><path fill="#0f1016" d="M322 766l300-40-112 68z"/><path fill="#6a5c7f" d="M434 630l-20 28-80-96z"/><path fill="#435854" d="M102 350l-80 80 92-164z"/><path fill="#16060b" d="M778 298l-52 184 96 36z"/><path fill="#1b182c" d="M438 518l68-92-60 20z"/><path fill="#cde5d1" d="M310 790l-80 128 8 168z"/><path fill="#b66e77" d="M654 734l220 76-232-252z"/><path fill="#050700" d="M-62 518l184-44 128-172z"/><path fill="#e6f3e2" d="M442 966l140-44-244-100z"/><path fill="#d2b6ab" d="M262 238l56-60 56 84z"/><path fill="#8ab4ba" d="M158 442l104-132v76z"/><path fill="#85b5a5" d="M18 762l-80 36 100-16z"/><path fill="#380716" d="M494 302l60 20-4-36z"/><path fill="#120509" d="M142 1002l-8-164 116-132z"/><path fill="#fff" d="M502 218l-44 16 104 44z"/><path fill="#8182a0" d="M354 790V690l24 52z"/><path fill="#6d2448" d="M642 1086l44-280 188 204z"/><path fill="#a7a4a8" d="M250 546l36-8-68 64z"/><path fill="#1c1721" d="M374 778l296-260-100-112z"/><path fill="#dbe1d9" d="M398 966l252 120-436-24z"/><path fill="#2f0c1a" d="M490 270l-40 40-40-16z"/><path fill="#060b12" d="M630 1054l32-128-36-44z"/><path fill="#cedce5" d="M582 406l156 60-152-128z"/><path fill="#9a696e" d="M214 138l60-4-88 68z"/><path fill="#8d4a5f" d="M122 1062l-4-116-20 40z"/><path fill="#040801" d="M-34-62l56 388L278 78z"/><path fill="#5b1228" d="M226 930V770l-68 164z"/><path d="M138 562l100-24-84-4z"/><path fill="#f9e1d9" d="M558 430l-92-48 60-80z"/><path fill="#100b0f" d="M342 454l12 76 192-4z"/><path fill="#d5d3cd" d="M238 530l32-72-76 64z"/><path fill="#a699aa" d="M302 578l24-88 8 108z"/><path fill="#737e98" d="M474 438l-52 44-24-244z"/><path fill="#1f1a23" d="M482 134l60-84 72 252z"/><path fill="#240f15" d="M346 366l20 20 36-72z"/><path fill="#3e324a" d="M346 518L246 410l44-12z"/><path fill="#7a9b93" d="M38 422L-62 530v-52z"/><path fill="#b6787e" d="M482 842l-32-40-116 8z"/><path fill="#7d4257" d="M754 986L626 614l-28 180z"/><path fill="#7b2745" d="M630 914l-68 160 4-284z"/><path fill="#594a62" d="M582 430l4-60-36-16z"/><path fill="#ecf0e9" d="M554 1066l-64-4 68-136z"/><path fill="#0d0807" d="M394 746L266 570l140 68z"/><path fill="#140c0f" d="M590 334l136 56L538-54z"/><path fill="#713447" d="M338 366l-88-136-52 44z"/><path fill="#c58b92" d="M362 222l-80 80 68 56z"/><path fill="#563c58" d="M242 746l-36-196 60 112z"/><path fill="#7c9490" d="M58 578l-48-40 196-24z"/><path fill="#000200" d="M346 710l-28 84 28-12z"/><path fill="#46222c" d="M38 790l32-148-56-16z"/><path fill="#9c8782" d="M42 622l152-60 20 124z"/><path fill="#170b10" d="M666 398l-4-444 196 600z"/><path fill="#1a0f0f" d="M70 310l236-136-108 112z"/><path fill="#080601" d="M254 314L34 426l112-160z"/><path fill="#97a3ab" d="M310 674l-60-16v164z"/><path fill="#f4d3dc" d="M470 486l32 4 20-40z"/><path fill="#3c0316" d="M-62 1058l280 24 16-80z"/><path fill="#aa686e" d="M734 458l56 100-100-72z"/><path fill="#d193a6" d="M630 922l-48-4 32-12z"/><path fill="#bbb0a4" d="M198 1006l-32-12 60-4z"/><path fill="#efe7ee" d="M674 510l16-44-20 8z"/><path fill="#e8f0e1" d="M434 826l-92 4 140 52z"/><path fill="#545066" d="M426 314l-56-8 80 44z"/><path d="M22 726l-40-52 32 92z"/><path fill="#332020" d="M190 478l12 24v-36z"/><path fill="#74394b" d="M298 158l68 80-12-108z"/><path fill="#0d0d0d" d="M334 178h200l-96 60z"/><path fill="#62292f" d="M270 1002l32-8-8 36z"/><path fill="#613a3e" d="M66 586l88 20 16-24z"/><path fill="#372e43" d="M402 590l-92-40 80 84z"/><path fill="#d0c7da" d="M378 390l-4-32 44 44z"/><path fill="#cbccd1" d="M362 394v32l-52-64z"/><path fill="#fdfff8" d="M414 270l112-28-40-16z"/><path fill="#ebacad" d="M434 358l108 76-76-8z"/><path fill="#69274b" d="M454 402l-8 28 36-32z"/><path fill="#624755" d="M470 350l20-12-12-16z"/><path fill="#11090b" d="M346 426l120 72-116-20z"/><path fill="#baced5" d="M398 310l-4-28 52-28z"/><path fill="#ffe6ed" d="M738 530l36 36-20-56z"/><path fill="#6f2649" d="M222 250l76-100-92 20z"/><path fill="#e8e8df" d="M454 790l80 16 32 128z"/><path fill="#211b2b" d="M554 462l-92 168 4-120z"/><path fill="#7d524d" d="M314 858l16-48h16z"/><path fill="#eacbc9" d="M566 410l-20-72-44 144z"/><path fill="#32091e" d="M678 502l36 56 16-40z"/><path fill="#1f1d27" d="M486 214l96 4-56-96z"/><path fill="#b37a81" d="M642 894h28l16-88z"/><path fill="#fbeaec" d="M482 330l-8-28 24-20z"/><path fill="#000700" d="M114 1058L18 770l-28 188z"/><path fill="#331822" d="M546 326l-28-32 48-4z"/><path fill="#747c94" d="M198 566l36 124-40 52z"/><path fill="#ceccbb" d="M134 566l52 12 12-16z"/><path fill="#310a19" d="M154 1002l-56-64 124 24z"/><path fill="#f3fef0" d="M582 298l-112-76 76 4z"/><path fill="#080a04" d="M170 250L2 470h128z"/><path fill="#422027" d="M-42 726l-20-52 212 4z"/><path fill="#100809" d="M506-42L178 162 130-62z"/><path fill="#7b1f2a" d="M874 650L758 534l88 48z"/><path fill="#945364" d="M610 666l132 184 124-40z"/><path fill="#8b465b" d="M710 530l56 44-52-76z"/><path fill="#cad6c9" d="M362 894l-136 36 40-140z"/><path fill="#e3afa1" d="M874 578l-204-20 192 176z"/><path fill="#191821" d="M354 126L406 6l-24 260z"/><path fill="#adb2b8" d="M322 722l-40 80-4-140z"/><path fill="#675774" d="M430 606l-12 60-48-152z"/><path fill="#c98d8d" d="M702 682l164 88-216-224z"/><path fill="#120d0d" d="M610 670L442 794l152-20z"/><path fill="#160b11" d="M402-62l364 568L874 82z"/><path fill="#702536" d="M234 894l20-92-48 8z"/><path fill="#010000" d="M398 422l-36-48 24 88z"/></g></svg>