<svg xmlns="http://www.w3.org/2000/svg" width="748" height="1024"><path fill="#a79f95" d="M0 0h748v1024H0z"/><g fill-opacity=".502"><path fill="#fff" d="M810 514L70 486l136 600z"/><path fill="#5a5635" d="M-10-62l820 96-820 584z"/><path fill="#1f0000" d="M-62 922l136 164 64-324z"/><path d="M10 374l76 172-148 308zM622 814l32 272-112-240z"/><path fill="#ad6041" d="M174 582l-68 144 312-24z"/><path fill="#fbf9ff" d="M326 574l148-428 36 724z"/><path fill="#f3f5ff" d="M498 1086L246 674 70 1086z"/><path fill="#f2f2fb" d="M238 314L-26 778l324-224z"/><path fill="#091313" d="M326 82V-62L-62 18z"/><path fill="#7b371e" d="M494 282l104 172 80-336z"/><path d="M806 734l4 244-136 108z"/><path fill="#c19f85" d="M542 478L62-10l4 444z"/><path d="M362 194l80 108-216-84z"/><path fill="#e4dcd0" d="M810 770l-232 32L762-62z"/><path d="M682 114L554 50l-76 76zM-62 78l124 28V-62zM30 690l-92 20L42 378z"/><path fill="#c4c7a3" d="M474 102L242 82l272 252z"/><path fill="#95abc2" d="M686 574L522 846l24-464z"/><path fill="#0b1b11" d="M22 754v332l-84-312z"/><path d="M262 218l104-4-152 72z"/><path fill="#eef4ff" d="M98 786l24-212-132 168z"/><path fill="#d4cad6" d="M606 886l-104-16 16 216z"/><path d="M650 878l-152-16 44-36z"/><path fill="#eadbc7" d="M602 210l144-48-20 244z"/><path fill="#dfe3ce" d="M262-6l-32 44 28 80z"/><path fill="#ffdfcb" d="M394 322l-132-68 104 4z"/><path fill="#512e22" d="M574 186l-100-52 68 248z"/><path fill="#be8269" d="M402 758l-76-156-200 12z"/><path fill="#e7e7ee" d="M270 590l-100 476-48-276z"/><path fill="#d49072" d="M662 122L506 290l24-180z"/><path d="M338 86h-72l24-148zM422 310l-44-96 20 124z"/><path fill="#663c2f" d="M122 798l28 168L-6 814z"/><path fill="#e6ecfc" d="M598 794L366 374l76 504z"/><path fill="#643836" d="M498 982l-64-116 28 220z"/><path fill="#68554d" d="M542 170l100 260 52-72z"/><path fill="#edeffe" d="M430 898l24 188-212-116z"/><path fill="#fff" d="M802 26l-68 24-100-96z"/><path fill="#373b35" d="M138 398L90 534l80-56z"/><path fill="#221911" d="M578 1022l48 56 4-232z"/><path fill="#d08867" d="M314 554l-80-212 192-8z"/><path fill="#003613" d="M522-38l80 52-124 12z"/><path d="M498 198l36-104-56 32zM810 938l-100 148 16-180z"/><path fill="#d3c5b8" d="M502 258l-112-52 148 304z"/><path fill="#97c77b" d="M670-62l92 304L590 10z"/><path fill="#9f6b53" d="M98 698l168-4-8-88z"/><path fill="#2b0f06" d="M250 326l-24-60 80 72z"/><path fill="#b2a68f" d="M154 510L114-62l112 272z"/><path fill="#f5faff" d="M110 562l396-52 36 152z"/><path fill="#000003" d="M26 702l36-144-124 128z"/><path fill="#867c61" d="M478 358l60 188-84-68z"/><path d="M54-38v140L-62 74z"/><path fill="#000004" d="M550 98l132 36-52-64z"/><path fill="#486b81" d="M542 590l28-84-4 168z"/><path fill="#d5c9c2" d="M738 430l-48 528-108-488z"/><path fill="#cabda7" d="M118 342l-160 44 108 16z"/><path fill="#9bafc5" d="M498 838l128-360-20 360z"/><path fill="#000a17" d="M250 426l-8 32 36-28z"/><path fill="#26522f" d="M366-62l-4 108 68 108z"/><path fill="#986242" d="M102 710l44 32 48-148z"/><path fill="#000e13" d="M594 882l28-104 4 168z"/><path fill="#80bb75" d="M610 38L482 90 330-30z"/><path fill="#82806d" d="M134 498l-60 56-64-72z"/><path fill="#000006" d="M406 278l-4-56-124-16z"/><path fill="#eff3ff" d="M286 454l-180 72-76 140z"/><path fill="#f1c5a5" d="M594 118l-56 36 124 28z"/><path fill="#b35a4d" d="M62 898l64-20-36 168z"/><path fill="#00020a" d="M514 358l20 48-12 12z"/><path fill="#49291f" d="M658 186l-112-12-60 40z"/><path fill="#1b5220" d="M698 62l112-12v104z"/><path fill="#907567" d="M618 990l136-96-92 192z"/><path fill="#897c68" d="M194 126l296 4-260 100z"/><path d="M630 842l-116-4 24 36z"/><path fill="#43301d" d="M78 142v44l-140-60z"/><path fill="#010000" d="M522 302l48 28-36 36z"/><path fill="#dbdedc" d="M230 110l16-40 100 36z"/><path fill="#00131b" d="M-62 410l108-8 12 80z"/><path fill="#da9375" d="M598 270l-20 160 52-100z"/><path fill="#d5ceca" d="M418 782L234 662 90 762z"/><path fill="#78544d" d="M454 922l28-24-116-64z"/><path fill="#fbcaa3" d="M266 262l-8 48 112-4z"/><path fill="#de9e7a" d="M638 258l8-48-160-12z"/><path fill="#c6def4" d="M574 490l4 152 64-252z"/><path fill="#494a42" d="M614 554l16 64-28 20z"/><path fill="#c9c8af" d="M102 146l-164-44H82z"/><path fill="#70614a" d="M-18-62l236 96 36 116z"/><path fill="#00030f" d="M482 106l124-48 24 44z"/><path fill="#c8d9bf" d="M362 114l-40 8 36-92z"/><path fill="#e6d9c3" d="M542 286l8 32 24-24z"/><path fill="#cab99a" d="M70 210l-48 48-40-64z"/><path fill="#c38a77" d="M362 766l-44-144 104 84z"/><path fill="#00191a" d="M126 386l24-8-16 92z"/><path fill="#0d1415" d="M42 934l-96 152 108-48z"/><path d="M314 90l28-56-80-32z"/><path fill="#2c4056" d="M526 398l84 56-84-28z"/><path fill="#96a372" d="M486 242L470-18 338 122z"/><path fill="#170904" d="M546 262l24 32 8-56z"/><path fill="#e6e6f0" d="M318 722l116 224-156 140z"/><path fill="#e5e7ea" d="M558 474l-48-80 28 184z"/><path d="M270 238l-24 56 4-60z"/><path fill="#a16648" d="M334 506l-40 16-20-156z"/><path fill="#d7c3b3" d="M514 358l-252-12 172 68z"/><path fill="#bcafb0" d="M602 966l-28-92-96 96z"/><path fill="#dcdada" d="M-42 698l168 36-36 76z"/><path fill="#e6f2fd" d="M642 366l4-52 16 32z"/><path fill="#e6e5eb" d="M554 542l-52 328-136-92z"/><path fill="#6d5639" d="M98 270L-42 398l-20-148z"/><path fill="#1c0000" d="M614 386l20-88 8 52z"/><path fill="#001116" d="M58 606L-62 814V194z"/><path fill="#ae9a92" d="M630 834l84 176-64 76z"/><path fill="#dbe4e7" d="M210 402l4 84 40-112z"/><path fill="#081b1d" d="M670 158l-24 24 12-80z"/><path fill="#f0f3fb" d="M446 730L286 578l116-148z"/><path fill="#cabfb2" d="M514 286l-64 180-36-260z"/><path fill="#000e0e" d="M530 46l20-92h68z"/><path fill="#e4e3ea" d="M382 614l160 180-76 92z"/><path fill="#a39e9a" d="M134 398L54 518l8-120z"/><path fill="#ddd3cb" d="M706 346l-92 256 184 40z"/><path fill="#3b0000" d="M310 338l40-24 12 16z"/><path fill="#2a4f62" d="M654 426v-56l-32 104z"/><path fill="#9bb876" d="M666 138l60 76-32-188z"/><path fill="#ecedf7" d="M186 710l-4 316-52-184z"/><path fill="#321d1d" d="M126 874V770l-48 68z"/><path fill="#b6bca1" d="M50 130l44-20-8-136z"/><path fill="#edf0f6" d="M82 618l184-164 52 108z"/><path fill="#594a3d" d="M-62 1006L50 814l36 164z"/><path fill="#000005" d="M410 314l-60-116 60 52z"/><path fill="#7d8475" d="M62 862l-124-28 132-24z"/><path fill="#c6b4aa" d="M618 738l24 196 168-228z"/><path fill="#000002" d="M694 1082l52-188 64 12z"/><path fill="#c9d2e1" d="M574 562l-12 212 56-24z"/><path fill="#8699af" d="M534 778l-4-124 44-8z"/><path fill="#214331" d="M334-50l40 128 28-28z"/><path fill="#000103" d="M6 802l-68-48h84z"/><path fill="#1f2a29" d="M234 50l20-112H98z"/><path fill="#bcaf9a" d="M82 334l84 60 128-40z"/><path fill="#85775a" d="M62 206L110-6l60 28z"/><path fill="#cdae98" d="M598 126l76 92-28-68z"/><path fill="#4d4332" d="M214 258l8 44 28-68z"/><path fill="#d0c3bb" d="M522 358l-28-132-148 224z"/><path fill="#c2bdc0" d="M266 886l40 108-12-160z"/><path fill="#5b5051" d="M554 926l-12-44-4 84z"/><path fill="#8d5544" d="M394 734l-60-24 52 40z"/><path fill="#958261" d="M26 206v168l180-80z"/><path fill="#625f4a" d="M690 358l-56-4 52 44z"/><path fill="#a96548" d="M378 382l-136-12 56 44z"/><path fill="#ccd6e7" d="M550 382l-32-28 28 68z"/><path fill="#827564" d="M354 150L214 94l20 152z"/><path fill="#000006" d="M38 94l-100-4L42-62z"/><path fill="#d5cac1" d="M774 130l-48 312-80-168z"/><path fill="#78785a" d="M370 122l24 88 64-228z"/><path fill="#392916" d="M514 490l-8 16 20 24z"/><path fill="#00000a" d="M518 86l-32 44 16 64z"/><path fill="#dadee6" d="M-18 734l172-132-76 152z"/><path fill="#77857b" d="M622 478l16 92-24-4z"/><path fill="#c1bdc9" d="M186 1034l-64-96-24 76z"/><path fill="#a26951" d="M110 682l32 52 76-100z"/><path fill="#541c16" d="M110 930l12-84 12 72z"/><path fill="#eff4fb" d="M174 586l108-164-48 160z"/><path fill="#b8a690" d="M130 258L70 154l184 60z"/><path fill="#152226" d="M514 250l28 76-28 12z"/><path fill="#a08772" d="M722 730l4 172 40-28z"/><path fill="#8f7e6c" d="M582 894l16-28 8 92z"/><path d="M126 478l4 28 12-60z"/><path fill="#6b584f" d="M646 974l4 24 68-12z"/><path fill="#62a772" d="M302-62h136L342 54z"/><path fill="#d4c9bf" d="M650 430l-32 172 144 48z"/><path fill="#968f82" d="M150 370l-12 128 68-24z"/><path fill="#eff3fd" d="M510 514l40 104-152-152z"/><path fill="#f1ecff" d="M642 10l28-40-108 16z"/><path fill="#00050e" d="M338 98L270-62l4 124z"/><path fill="#cbc1bf" d="M310 706l208 164-120 4z"/></g></svg>