<svg xmlns="http://www.w3.org/2000/svg" width="1024" height="748"><path fill="#9d9d9d" d="M0 0h1024v748H0z"/><g fill-opacity=".502"><path fill="#040404" d="M482 486L842 78l244 372z"/><path d="M394 750l-20-532-172 508z"/><path fill="#fff" d="M190 730l48-792-300 84z"/><path fill="#f7f7f7" d="M1086 738l-764 20 580-248z"/><path fill="#fefefe" d="M826 342l260-324-252-76z"/><path fill="#333" d="M558 250l428-124-376-72z"/><path fill="#fff" d="M482 182l-8-244-220 96zM286 290L-62 674l200-72z"/><path fill="#101010" d="M282 378l196 128-276 84z"/><path fill="#212121" d="M750 282L610 562l344-24z"/><path fill="#fff" d="M366 682l248-220-144 348z"/><path fill="#0b0b0b" d="M1086 358l-152 76-60-272z"/><path fill="#fdfdfd" d="M702 158l-88 108 124 44z"/><path fill="#fff" d="M126 510L70-10l172-52zM86 742l152-152 64 28z"/><path d="M378 722l28-200-220 212z"/><path fill="#bfbfbf" d="M574 14L178 134l380 420z"/><path d="M90 782l-4-176-48 48zM194 122l64-68-40 124z"/><path fill="#fff" d="M1086 562L738 698l20-152zM1026 238l-120-68 60-184z"/><path fill="#0a0a0a" d="M-30 506l132-32-64 88z"/><path d="M842 158l-108-28 16 136zM1014 506l-92 40 124 8z"/><path fill="#e8e8e8" d="M858 534l116-48-236 4z"/><path fill="#fff" d="M-62 414l120-72L14-62z"/><path fill="#737373" d="M110 606l108 100-12-236z"/><path fill="#4c4c4c" d="M670 678l68 28-4-248z"/><path fill="#545454" d="M38 382l32-196 36 300z"/><path fill="#e7e7e7" d="M598 574l-184-72-40 308z"/><path fill="#d6d6d6" d="M870 302l36 72-168-100z"/><path fill="#030303" d="M474 522l152-4-116-28z"/><path fill="#0b0b0b" d="M306 238l-88 108 36-104z"/><path fill="#111" d="M754 494L626 282l276 60z"/><path fill="#fff" d="M50-62l180 272 12 324zM1002 334l-48 8 40 28z"/><path fill="#515151" d="M554 322l-76-172 184 44z"/><path fill="#fff" d="M690 662l-28-116-92 140zM346-34l136-20-8 268z"/><path fill="#f8f8f8" d="M890 390l-76-152 44-100z"/><path d="M874 210l44 32-32-136z"/><path fill="#e6e6e6" d="M870 270l216-84-36 68z"/><path fill="#f1f1f1" d="M290 306l36 76L34 494z"/><path fill="#a3a3a3" d="M510-30l416 132-216 52z"/><path fill="#2a2a2a" d="M438 426l-180-4 84 368z"/><path fill="#fff" d="M-58 642l256-204-260 356z"/><path fill="#d9d9d9" d="M598 462l28 52h148z"/><path fill="#1c1c1c" d="M246 90l96 12-100-84z"/><path fill="#e2e2e2" d="M698 230L474 342l-60 164z"/><path fill="#fff" d="M530-62l64 44-36 224z"/><path d="M1022 178l-20-44 28-28z"/><path fill="#090909" d="M726 574l-8-60-140-8z"/><path fill="#101010" d="M882 106l-20 36 136-16z"/><path fill="#f9f9f9" d="M1066 566l-324-28 184 156z"/><path fill="#fff" d="M310 614l-80-16-72 80z"/><path fill="#ededed" d="M262 282l112 44-28-108z"/><path fill="#121212" d="M682 146l-60-44-16 164z"/><path fill="#8a8a8a" d="M858 454l100 16-96-192z"/><path fill="#606060" d="M634 554L514 690l40 32z"/><path fill="#767676" d="M74-14v244L38 114z"/><path fill="#fff" d="M290 730L30 778l400 32z"/><path d="M218 674l96-56 108 192zM1034 478l-52-64 44-144z"/><path fill="#fff" d="M90 446L262-62 82 2zM914-62l172 108-156 76z"/><path fill="#626262" d="M70 374l108-24 24 32z"/><path fill="#0c0c0c" d="M866 278l64-64 48 4z"/><path fill="#a2a2a2" d="M866 610l36 108-224 20z"/><path d="M646 478l-52-44 60-20z"/><path fill="#020202" d="M882 482L754 302l60 188z"/><path fill="#181818" d="M326 342l-60-48 100 32z"/><path fill="#fff" d="M910 202l16-68 160 76z"/><path fill="#c7c7c7" d="M398 34l-96-96-56 140z"/><path fill="#fff" d="M-14 786l232-92-64 108z"/><path fill="#818181" d="M546 346l-128 32 216-236z"/><path fill="#f1f1f1" d="M-62-18l40 568 84-232z"/><path fill="#030303" d="M1070 346l-132 32-84 88z"/><path fill="#5a5a5a" d="M370 122l-8 132 52 4z"/><path d="M238 674l112-20-176 112z"/><path fill="#a4a4a4" d="M774 282L670 98l32 220z"/><path fill="#969696" d="M362 650l-96-44-28-80z"/><path fill="#f2f2f2" d="M290 90l64 104-100-72z"/><path d="M830 142l-84-8 4 112z"/><path fill="#060606" d="M946 546l-80-28-56 20z"/><path fill="silver" d="M398 566l-20 92 204-84z"/><path fill="#c4c4c4" d="M938 530l148-80-304 68z"/><path fill="#4a4a4a" d="M890 510l196 44-16-52z"/><path fill="#fefefe" d="M62 530L-62 730l80 20z"/><path fill="#9d9d9d" d="M614 510l-184-16 84-92z"/><path fill="#5b5b5b" d="M250 486L146 622l144-24z"/><path fill="#3a3a3a" d="M70 390l-100-8 108-20z"/><path fill="#bababa" d="M478 322L366 438l-28-52z"/><path fill="#e5e5e5" d="M238 446l20 44-112 104z"/><path d="M254 58l-16-68 20-4zM982 250l-108 80 56 52zM906 226l56 20 16-40zM238 278l-16 52 48-56z"/><path fill="#525252" d="M246 230l48 24 56-28z"/><path fill="#626262" d="M818 30l-4 68-128-4z"/><path fill="#313131" d="M178 498l-12 48 52-68z"/><path fill="#686868" d="M930 246l-44-36-20 84z"/><path fill="#646464" d="M498 422l32 68 116-168z"/><path d="M718 546l-84-32 176 16z"/><path fill="#353535" d="M90 462l-16-60-24 60z"/><path fill="#303030" d="M206 178l4-80 28 112z"/><path fill="#e8e8e8" d="M666 398l-44 12 36-44z"/><path fill="#c5c5c5" d="M518 198l60 32-212 64z"/><path fill="#fff" d="M838 122h-72l44 12z"/><path fill="#3c3c3c" d="M278 390l152 44-68 288z"/><path fill="#fff" d="M842 206l-20 120 64-104z"/><path fill="#bdbdbd" d="M722 518l-32-40 136 32z"/><path fill="#f7f7f7" d="M106 258l56 112 124-204z"/><path fill="#fff" d="M78 334l144-100-52-284z"/><path fill="#7f7f7f" d="M486 62l128 172-132-32z"/><path fill="#eaeaea" d="M954 354l44-20 24 24z"/><path fill="#8d8d8d" d="M182 670l-40 72 132-104z"/><path fill="#121212" d="M750 230l68 72 8-56z"/><path fill="#f1f1f1" d="M818 218l36-84 20 40z"/><path fill="#f3f3f3" d="M746 538l320 36-320 64z"/><path fill="#fdfdfd" d="M586 350l48-108-124 144z"/><path fill="#0a0a0a" d="M258 486l16-76 64 200z"/><path fill="#919191" d="M882 334l-48 136 92-72z"/><path fill="#0c0c0c" d="M874 430l-172 52 164-104z"/><path fill="#bbb" d="M-62 486L54 378l8 108z"/><path fill="#f1f1f1" d="M250 650l-88-20 144-32z"/><path fill="#fff" d="M50 526l148-40L50 622z"/><path fill="#040404" d="M1014 182l48-40-60-12z"/><path fill="#e3e3e3" d="M878-62l12 80L598 2z"/><path fill="#101010" d="M1010 266l76 268-80-80z"/><path fill="#d9d9d9" d="M146 714l-52 96 8-208z"/><path fill="#fff" d="M906 202l-4-68 156 76z"/><path fill="#e7e7e7" d="M426 514l84 8-124 104z"/><path fill="#fafafa" d="M702 102l20 28-24 24z"/><path fill="#020202" d="M314 102l16-20-68-4z"/><path fill="#888" d="M678 178l-72-36 60 64z"/><path fill="#fff" d="M354 294l8-24 72-8z"/><path fill="#ededed" d="M166 358l120-52 40 88z"/><path fill="#919191" d="M578 130l-4-176L734 54z"/><path fill="#fff" d="M238 810l96-68-100-12zM86 70l160 8-24-140z"/><path fill="#1b1b1b" d="M602 470l-48-4 20-88z"/><path fill="#989898" d="M14 674l60 100-24-140z"/><path fill="#050505" d="M98 598l-44 44 20 8z"/><path fill="#d7d7d7" d="M486 314l8 184-72-8z"/><path fill="#fff" d="M338-62l132 204 8-128z"/><path fill="#010101" d="M238 582l4-56-28 44z"/><path d="M746 222l-16-92 108 56z"/><path fill="#060606" d="M702 366l-52 104-44-28z"/><path fill="#777" d="M742 422l-80 40-4-44z"/><path fill="#fafafa" d="M366 174l-40-60v68z"/><path fill="#141414" d="M278 66l-52 24-16 64z"/><path d="M910 210l-40-8 24-52z"/><path fill="#696969" d="M378 330l92-44-104 4z"/><path fill="#e7e7e7" d="M678 766l316-80-12 124z"/><path fill="silver" d="M262 458l-12-52-120 112z"/><path fill="#5f5f5f" d="M362 222l-4 44 104-36z"/><path fill="#101010" d="M606 138l100 12-60-44z"/><path fill="#7a7a7a" d="M746 582l-64-32 40 208z"/><path fill="#757575" d="M78 198l-40 60 48 140z"/><path d="M890 486l-32-24 64 12z"/><path fill="#080808" d="M1062 554h-92l116-96z"/><path fill="#999" d="M414 222L346-22v152z"/><path fill="#d4d4d4" d="M1006 454l32 52-144-8z"/><path fill="#e7e7e7" d="M-62 366L42-62l16 428z"/><path fill="#616161" d="M542 310l-96 8 148-68z"/><path fill="#f1f1f1" d="M622 598l36-52 28 152z"/><path fill="#9f9f9f" d="M930 414l-120-52 96 12z"/><path fill="#030303" d="M970 438l-64-20 144-52z"/><path fill="gray" d="M1002 134l-60-16 72-8z"/><path d="M458 502l12 12 44-12z"/><path fill="#8e8e8e" d="M626 310l-28 128-4-84z"/><path fill="#242424" d="M146 582l16-36-32 28z"/><path fill="#3c3c3c" d="M42 550l80-80-112 28z"/><path fill="#e9e9e9" d="M578 274l144-40-36-28z"/><path fill="#eaeaea" d="M370 758l232-220-140 272z"/></g></svg>