<svg xmlns="http://www.w3.org/2000/svg" width="1024" height="716"><path fill="#91857f" d="M0 0h1024v716H0z"/><g fill-opacity=".502"><path fill="#fff" d="M78 722l916-12L2 206z"/><path fill="#0d0000" d="M1086 90v604L402 174z"/><path d="M310 450L58 98 338-62z"/><path fill="#fff" d="M714 350L586 778l396-112zM210 546L-62 190 46-62z"/><path fill="#1e0f07" d="M862 318L586 546 414-10z"/><path d="M442 478L98 186l88-248z"/><path d="M114-14l404 128-92-176z"/><path fill="#fff" d="M294 98l208 176-60-196zM-62 14l168-36-16 436z"/><path fill="#523428" d="M530 778l68-132-60-224z"/><path fill="#fff9f2" d="M838 438l-160-64 252 404z"/><path fill="#e1cec6" d="M470-2l96 180L830-62z"/><path fill="#fff" d="M214 298L106 778 50 190z"/><path fill="#280d04" d="M942 650l116-312-28 440z"/><path fill="#fff9f4" d="M598 614L34 574l96 204z"/><path d="M994 350l-396-12 156-172z"/><path fill="#baa79c" d="M670 630l160-300 68 64z"/><path fill="#614239" d="M14 778l-76-380 140-28z"/><path fill="#d4c0b7" d="M586 310l-144-28 208 160z"/><path fill="#7d5f55" d="M1086 282L506 170l580-232z"/><path fill="#100" d="M154-26l-28 260L510-42z"/><path fill="#fbece3" d="M390 258l-92-24 60-164z"/><path fill="#fff" d="M906 558l68 156-468 32z"/><path fill="#3a1d12" d="M230 282l-4 104 272 16z"/><path fill="#0d0500" d="M430 266l388-80-36 184z"/><path fill="#7a6457" d="M754 558l-52 56-80-92z"/><path fill="#fff" d="M-62-62l248 4L-6 290z"/><path fill="#c0aa9f" d="M146 346l404 104-176 60z"/><path fill="#200b01" d="M826 210l148 460V414z"/><path fill="#53382f" d="M562 702l-140 36 144-116z"/><path fill="#9f867d" d="M870 198l216 240-28-196z"/><path fill="#685148" d="M662 394L502 550l252-96z"/><path d="M526 162L418-54l-168-4z"/><path fill="#0c0000" d="M302 362L138 242 298 46z"/><path fill="#473129" d="M862 554l224-32-256-32z"/><path fill="#1e0c01" d="M150-2l-8 240-52-80z"/><path d="M778 230l-164 96 32 120z"/><path fill="#e1d4c7" d="M366 270l104-24V134z"/><path fill="#51382d" d="M390 158l-44 56 100-56z"/><path fill="#382119" d="M-10 682l44-112 16 176z"/><path fill="#cbc0b7" d="M694 366l160 112-248 120z"/><path fill="#2a130c" d="M722 446l-84-28 60 52z"/><path fill="#fefaf5" d="M378 70l104 72-164 36z"/><path fill="#f6f1ec" d="M46 502l12 252 160-356z"/><path fill="#b29e96" d="M446 266l104 40-8 344z"/><path fill="#fff" d="M602 702l428 28-416-152z"/><path d="M466 186l32-84 32 176z"/><path fill="#e2dad3" d="M562 46L666-62l44 168z"/><path fill="#fff" d="M62 46L-62 282l212 56z"/><path fill="#110700" d="M554 214l8 48-144 52z"/><path fill="#452a24" d="M546 534l76-8-52-168z"/><path fill="#7e6258" d="M290 214l80 136 80-36z"/><path fill="#1d0e06" d="M822 482l-56-4 12-16z"/><path fill="#5e453f" d="M726 54l324 104-320-12z"/><path fill="#ede6e1" d="M214 710l228 68-48-356z"/><path fill="#b09e91" d="M322 538l-156-84 44 144z"/><path fill="#231a0e" d="M686 538l64 28v-20z"/><path fill="#f8f7f4" d="M962 610L770 486l-32 60z"/><path fill="#c4afa7" d="M810 342l68 24 12 76z"/><path fill="#d8cac1" d="M622 462l-48-140 60 84z"/><path fill="#d0c5bb" d="M46 346l16 124 168-88z"/><path fill="#d4c7bd" d="M738 518L562 646l8-116z"/><path fill="#fff" d="M198 326L70 154l24 252z"/><path fill="#a69089" d="M586 162L802-62 698 150z"/><path fill="#c3b5ac" d="M774 614l-100-16 216-96z"/><path fill="#6f574f" d="M286 398l184-32-28 72z"/><path fill="#21140c" d="M774 422l-68-76 188-116z"/><path fill="#fff" d="M878 550L530 778l420-136z"/><path fill="#3a271f" d="M794 166L594 334l-76-92z"/><path fill="#d6cbc1" d="M534 702L242 470l276-48z"/><path fill="#d6c9c1" d="M306 90l48-16 8 140z"/><path fill="#5d4439" d="M374 178l40 40 20-60z"/><path fill="#050000" d="M94 130l20-36-8 80z"/><path fill="#816a64" d="M490 38l208 132-172-12z"/><path fill="#442f29" d="M1046 398l-188 48 204 332z"/><path fill="#cbbcb4" d="M302 190l20 76 172-32z"/><path fill="#140902" d="M506 74l4 116-52-84z"/><path fill="#f5f7f0" d="M794 530l-40-60-92 8z"/><path fill="#fffef6" d="M450 318v36l-20-16z"/><path fill="#937c74" d="M-58 662l-4-496L90 458z"/><path fill="#100700" d="M330 158L190 38l40 260z"/><path fill="#ae9c95" d="M606 454l152 168-100-36z"/><path fill="#d8c7bf" d="M170-62L70 42l40 56z"/><path fill="#503d37" d="M538 566l20-24-4 92z"/><path fill="#baa89e" d="M578 778l-8-248 76 248z"/><path fill="#e0d6ce" d="M166 286l56 12-56 172z"/><path fill="#23140a" d="M570 674l-32 40 16-72z"/><path fill="#24160c" d="M522 74L190-62 134 66z"/><path fill="#a9958e" d="M178 374l124 68 120-24z"/><path fill="#140b04" d="M710 330l-40 84-96-104z"/><path fill="#fffdf5" d="M442 142v68l56 40z"/><path fill="#23160e" d="M154 190l264 204-176-52z"/><path fill="#88726b" d="M610 382l-156-96 12 76z"/><path fill="#f2f0ee" d="M130 538l336 204-228-28z"/><path fill="#fff" d="M82 594l-24-88 152-128z"/><path fill="#96807a" d="M946 130h120L778-62z"/><path fill="#1c0f06" d="M894 242l-160-36 212 236z"/><path fill="#6c554e" d="M186 354l196 60-116-88z"/><path fill="#7c655e" d="M718 6l104 200 212 124z"/><path fill="#49342d" d="M970 694l-16-412 132 396z"/><path fill="#8b776e" d="M194 574l8-36 52 52z"/><path fill="#2e1a14" d="M902 566l40-128-72 100z"/><path fill="#473129" d="M854 126l232 136-100-120z"/><path fill="#e7ded6" d="M226 482l48 112-4-140z"/><path fill="#5c463d" d="M862 394l28 108-56 24z"/><path fill="#ad9790" d="M314 242l156 56-28-56z"/><path fill="#5e4740" d="M742 198l-188 8-48-80z"/><path fill="#725f53" d="M202 462l16 48 8-44z"/><path d="M402 306l32-8 16 16z"/><path fill="#6c544d" d="M526 410l60-44 56 128z"/><path d="M526 234l-32 56-28-16z"/><path fill="#b9a7a1" d="M402 462l140 8-48-100z"/><path fill="#fff" d="M974 778L842 610H626z"/><path fill="#baa59e" d="M810 398l80 20-48-88z"/><path fill="#dacec7" d="M798 410l48 76-28 100z"/><path fill="#efede6" d="M674 474l12 92 32-72z"/><path fill="#674e43" d="M338 338l-32-100 76 56z"/><path fill="#5b443e" d="M758 414l68-100-20 112z"/><path fill="#af9c94" d="M506-2l88 52-72 84z"/><path fill="#664a3f" d="M1086 390l-136-44-52-100z"/><path fill="#e2d9ce" d="M698 418l8-56 52 72z"/><path fill="#4b352b" d="M526 778H370l144-92z"/><path d="M746 238l-120 40 116 100z"/><path fill="#21160d" d="M242-62L90 118l64 128z"/><path fill="#88716c" d="M322 546l-60-4 20-20z"/><path fill="#fff" d="M954 614l-56-52-108 44z"/><path fill="#99837b" d="M566 606l-92 100 104-64z"/><path fill="#f3eee8" d="M390 74l60 28-112-8z"/><path fill="#0e0000" d="M634 450l24-40-16 64z"/><path fill="#5b4741" d="M454 370l-36 72-28-92z"/><path fill="#9f8b83" d="M262 466l36-96 32 32z"/><path fill="#968c84" d="M758 530l-64-20 40-8z"/><path fill="#beaaa1" d="M54 382l-64-124-52 88z"/><path fill="#6d554c" d="M654 470l44-84-24-20z"/><path fill="#dfd9d0" d="M158 458l88 84-104-16z"/><path fill="#56413a" d="M554 342l-8 224 68-124z"/><path fill="#f0eeea" d="M734 538l108 72-48-132z"/><path d="M702 474l-20-20h24z"/><path fill="#e1dbd6" d="M638 70l72-132L574 6z"/><path fill="#e1d9d4" d="M454 518L254 650l236 28z"/><path fill="#190d09" d="M426 370l-148-28 100 52z"/><path fill="#c6b9b3" d="M878 502l-16 44-80 24z"/><path fill="#b4a095" d="M430 750l152 28 12-92z"/><path fill="#24120c" d="M562 578h-16l8-56z"/><path fill="#e8e2dc" d="M154 482l96-60-260-148z"/><path fill="#e2dcd3" d="M462 306l-20-28 20-8z"/><path fill="#b9afa3" d="M170 674l4 52-48-92z"/><path fill="#ccc1b9" d="M550 610l-32-156-292-8z"/><path fill="#fff" d="M-62 170l224 128L-38-62z"/><path fill="#6c5852" d="M42 598l-8-204-52 100z"/><path fill="#d8ccc7" d="M418 246l-96-84 16 56z"/><path fill="#35211a" d="M878 546l48-244 60 104z"/><path fill="#e3ddd7" d="M582 538l68 52-20 188z"/><path fill="#130a04" d="M314-62l-12 96 200 68z"/><path fill="#8f7b75" d="M902 230l184 32v104z"/><path fill="#ebe6e3" d="M466 166l-152-40 52-56z"/><path fill="#b8a9a0" d="M614 370l-168-80 124 16z"/><path fill="#4a362b" d="M846 266l-88-112 128 84z"/><path fill="#ad988f" d="M322 182l-28 28 68 68z"/><path fill="#b09d96" d="M710 106L442-6l168 140z"/><path fill="#c3b4ad" d="M398 414l-128 4 172 60z"/><path fill="#a08a83" d="M698 14l248-76 136 108z"/><path fill="#3d2922" d="M442 174l176 84 120-40z"/><path fill="#0e0601" d="M310 238l-104 48-28-212z"/><path fill="#6f5c52" d="M570 702l20-20-28-36z"/><path fill="#3d2a24" d="M862 546l76-88 4 112z"/><path fill="#9f8b82" d="M358 186l84-12v32z"/><path fill="#231810" d="M558 214l-52 40 172 148z"/><path fill="#ad9f96" d="M234 582l32 24 4-36z"/><path fill="#8f7a73" d="M410 302l-16 56-52-20z"/><path fill="#2f1c16" d="M630 526l-36-40-4 44z"/><path fill="#f6f2ee" d="M766 542l-68-16 92-4z"/><path fill="#47312a" d="M858 494l-16-76 60 40z"/><path fill="#dfd6d2" d="M110 594l72-136-44 204z"/></g></svg>