<svg xmlns="http://www.w3.org/2000/svg" width="1024" height="688"><path fill="#a1a1a1" d="M0 0h1024v688H0z"/><g fill-opacity=".502"><path fill="#1c1c1c" d="M274 338l456 412-792-48z"/><path fill="#fff" d="M318 342l44-404 724 88zM262-62L158 390-62 30z"/><path fill="#fff" d="M958 442L566-54l520 64z"/><path d="M1086 686l-320 48 316-404z"/><path fill="#484848" d="M578 246l100 504 96-668z"/><path d="M490 118L398-50l80 352z"/><path fill="#fff" d="M790 42L506 330 458-18z"/><path fill="#161616" d="M230 486l-64-184 72-100z"/><path fill="#fff" d="M354 318l108 80-40-460z"/><path fill="#959595" d="M330 538l588 128 80-304z"/><path fill="#fff" d="M-62 94L218-62l-64 420z"/><path d="M458 222l12 200 36-76z"/><path fill="#fff" d="M866 394L698-62l388 300z"/><path fill="#424242" d="M846 410l-8 152 248-136z"/><path fill="#313131" d="M946 654l-808-56 320 152z"/><path fill="#3b3b3b" d="M326 234l112 264-40 252z"/><path d="M1006 470l80 220H914z"/><path fill="#dbdbdb" d="M462 602l-40-112 252 92z"/><path fill="#fff" d="M594 314l-96 68V-14z"/><path fill="#7a7a7a" d="M-62 614l416-8L86 278z"/><path fill="#d3d3d3" d="M190 566L34 490l136-88z"/><path d="M450 154l44 44-4 108z"/><path fill="#fff" d="M374 442l80-268L334-62z"/><path d="M418-10l28 120 8-172z"/><path fill="#303030" d="M578 278l28-80 220 88z"/><path fill="#d0d0d0" d="M886 682l-12-156h100z"/><path d="M322 58l52-108-64 44z"/><path fill="#6c6c6c" d="M694 122l108 64-188 160z"/><path fill="#2c2c2c" d="M-10 390l-52 96 200-72z"/><path fill="#060606" d="M310 234l20-100 12 168z"/><path fill="#fcfcfc" d="M-62-34L62 290 282 82z"/><path fill="#c8c8c8" d="M586 338l96-48 92 36z"/><path fill="#e6e6e6" d="M798 382l228-444 60 452z"/><path fill="#fff" d="M494 194l172 20 16-264zM346 366l-40-156-4 188z"/><path fill="#515151" d="M338 750H170l124-576z"/><path fill="#727272" d="M718 470l-360-32 304 128z"/><path fill="#bfbfbf" d="M950 502l-72-32 8-120z"/><path d="M522 642l84 8-72-60z"/><path fill="#171717" d="M342 298l-4 200 44-84z"/><path fill="#363636" d="M70 286l96 96-116-52z"/><path fill="#1d1d1d" d="M458 286l32-124-40-108z"/><path d="M790 678l96 72-4-112z"/><path fill="#f0f0f0" d="M702 162L978-14l12 220z"/><path fill="#e5e5e5" d="M-62 374l172 8-172-140z"/><path fill="#6c6c6c" d="M-62 558L98 694l80-200z"/><path fill="#292929" d="M826 578l24-132 48 56z"/><path fill="#fff" d="M522 326L462 66 754 6z"/><path fill="#d0d0d0" d="M734 678l120-80-136 8z"/><path fill="#121212" d="M646 398l68-28-8 52z"/><path fill="#a6a6a6" d="M470 650l136-312 52 164z"/><path fill="#2a2a2a" d="M702 122l-92 156 100-96z"/><path fill="#fff" d="M446 386L334 214l88-260z"/><path fill="#c2c2c2" d="M286 362l-44-24 52-144z"/><path fill="#737373" d="M182 190l96 132V158z"/><path d="M1086 618l-96 20-40-160z"/><path fill="#151515" d="M578 278l96 48-68-108z"/><path fill="#d4d4d4" d="M658 246l60 64-32 48z"/><path fill="#212121" d="M666 750l24-184 20 116z"/><path fill="#d3d3d3" d="M322 38l-68-80 64 248z"/><path fill="#313131" d="M722 182l72 28-4-32z"/><path fill="#161616" d="M342 102l-16-32-4 80z"/><path fill="#414141" d="M266 170l24-32-20-68z"/><path fill="#525252" d="M230 350l76 252 264 92z"/><path fill="#cdcdcd" d="M702 190l104 12-96 16z"/><path fill="#2b2b2b" d="M502 374l-12-76-52 180z"/><path fill="#b6b6b6" d="M690 466l48-128 164 40z"/><path fill="#7e7e7e" d="M490 418l-124 52V370z"/><path fill="#141414" d="M526 466l-12 32 40 28z"/><path fill="#494949" d="M542 418l16-64-48 52z"/><path fill="#3b3b3b" d="M-62 462L86 670l-92 80z"/><path fill="#b4b4b4" d="M170 174l-8 164 104-228z"/><path fill="#4f4f4f" d="M178 682l128-304-120 8z"/><path fill="#717171" d="M262 46l72-64-132-44z"/><path fill="#c4c4c4" d="M518 598h-48l44 44z"/><path fill="#868686" d="M774 686l92-60-204 4z"/><path fill="#f7f7f7" d="M778 210l28 88 204-144z"/><path fill="#fcfcfc" d="M338 26l8 212 100-104z"/><path fill="#dedede" d="M158 330l-4 160 32-108z"/><path fill="#363636" d="M210 190l-20 176 48-20z"/><path fill="#8e8e8e" d="M50 750l124-288-32 252z"/><path fill="#2d2d2d" d="M618 234l140 60-72-72z"/><path fill="#434343" d="M846 398l36-28-40 100z"/><path fill="#fdfdfd" d="M594 290l-100-64 16 152z"/><path fill="#535353" d="M726 238H590l52-36z"/><path fill="#595959" d="M1054 646l-184 40 64-56z"/><path fill="#303030" d="M762 126l-64 8 24-20z"/><path fill="#f8f8f8" d="M234 342l24-76 12 60z"/><path fill="#595959" d="M850 602l-60-4 20-52z"/><path fill="#fefefe" d="M326 118l-32 56 16 28z"/><path fill="#f0f0f0" d="M934-62L558 10l400 212z"/><path fill="#fdfdfd" d="M422 50l-52 296 96 12z"/><path fill="#ccc" d="M854 574l44 84-8-144z"/><path fill="#fff" d="M494 202l176-72 4 72z"/><path fill="#606060" d="M702 494l-140-40 36 52z"/><path fill="#b1b1b1" d="M702 602l136-136-156 48z"/><path fill="#c4c4c4" d="M146 490l-208-4 244-64z"/><path fill="#c1c1c1" d="M638 586l-56 40-144-172z"/><path fill="#505050" d="M282 126l12 60 8-88z"/><path fill="#464646" d="M790 310l40 24-36 12z"/><path fill="#0b0b0b" d="M530 658l4-52 108 48z"/><path fill="#a6a6a6" d="M342 366v88l-32-36z"/><path fill="#3e3e3e" d="M118 638l-4 112 416-84z"/><path fill="#fafafa" d="M418 2l40 220-92-4z"/><path fill="#454545" d="M930 414l40 128 116-40z"/><path fill="#0d0d0d" d="M274 214l4 84-16-48z"/><path fill="#e4e4e4" d="M242 30l28 84-60 68z"/><path fill="#242424" d="M326 30l12 52-16 36z"/><path fill="#5e5e5e" d="M-62 414l160 32 68-60z"/><path fill="#bdbdbd" d="M562 366l-20 76 116-12z"/><path fill="#0a0a0a" d="M714 330l-28 52 24-12z"/><path fill="#353535" d="M446 462l-116 4 108 32z"/><path fill="#b6b6b6" d="M806 190l-24-64-60 12z"/><path fill="#6e6e6e" d="M558 402l28-80 72-44z"/><path fill="#e6e6e6" d="M678 282l-28-28 8 28z"/><path fill="#313131" d="M646 382l-24-28 56-20z"/><path fill="#7c7c7c" d="M126 602l152-44 60 40z"/><path fill="#7f7f7f" d="M782 198l-76 40 72 64z"/><path fill="#b7b7b7" d="M342-62L210 22 90 2z"/><path fill="#a2a2a2" d="M898 674l36-220 28 116z"/><path fill="#393939" d="M274 322l52 148-52-12z"/><path fill="#ababab" d="M1010 398l-144 44 32-52z"/><path fill="#c2c2c2" d="M706 450l192-80-112-16z"/><path fill="#7f7f7f" d="M214 270l-40 8 32-92z"/><path fill="#232323" d="M430 78l52 76-12-56z"/><path fill="#f5f5f5" d="M170 46l4 272-136-52z"/><path fill="#3d3d3d" d="M6 462l12-104-60 104z"/><path fill="#fff" d="M314 134l-16 8 12 44z"/><path fill="gray" d="M570 562l-36-68 96 68z"/><path fill="#020202" d="M870 630l20 116-164 4z"/><path d="M338 302l20 36-16-72z"/><path fill="#e0e0e0" d="M834 602l-92-4 20 28z"/><path fill="#999" d="M782 354l-8-144-44 208z"/><path fill="#212121" d="M466 262l-4 112 36 16z"/><path fill="#c3c3c3" d="M682 318l24 28-80-28z"/><path fill="#898989" d="M270 298l20 80-52 12z"/><path fill="#b4b4b4" d="M846 502l-20-196-44 180z"/><path fill="#f9f9f9" d="M450 10l432 48-380 136z"/><path fill="#303030" d="M714 658l-160-8 80 28z"/><path fill="#fff" d="M242 338l16-40-8 80z"/><path fill="#d7d7d7" d="M882 390l204-312v292z"/><path fill="#a2a2a2" d="M46 210L14 358 2 158z"/><path fill="#f5f5f5" d="M18 342l4-64 20 72z"/><path fill="#919191" d="M466 478l-76-48 68-60z"/><path fill="#212121" d="M338 118l-16 16 8 36z"/><path fill="#0b0b0b" d="M678 482l24 4-12 20z"/><path d="M546 630l-24 4 20-60z"/><path fill="#7b7b7b" d="M702 482l56-112-136 128z"/><path fill="#c6c6c6" d="M162 506l28-12-36 92z"/><path fill="#535353" d="M942 530l-64-64-28 36z"/><path fill="#3e3e3e" d="M674 666l68 4-132-52z"/><path fill="#101010" d="M462-62L438 54 414-62z"/><path fill="#cfcfcf" d="M1086-62l-8 172-168-92z"/><path fill="#bebebe" d="M710 150l-12 32 88-24z"/><path fill="#bcbcbc" d="M514 514l-16 136 56-92z"/><path fill="#171717" d="M342 494l8-80 28 68z"/><path fill="#0b0b0b" d="M718 302l28-4 4-20z"/><path fill="#a7a7a7" d="M242 146l-4 152 44-136z"/><path fill="#717171" d="M150 578l16-88-228 116z"/><path fill="#6a6a6a" d="M990 466l-60-48 156-24z"/><path fill="#dadada" d="M322 46l4 64-16-40z"/><path fill="#c7c7c7" d="M570 558l-88-72-48 68z"/><path d="M846 510l40 4-44 28z"/><path fill="#4c4c4c" d="M766 218l-12 76-12-76z"/><path fill="#565656" d="M102 302l-72 44 96-8z"/><path fill="#f9f9f9" d="M382 370l56-148-100 8z"/><path fill="#5d5d5d" d="M446 434l-104 72 24 148z"/><path fill="#393939" d="M590 286l32 36v-24z"/><path fill="#cdcdcd" d="M474 430l-32 32 96-40z"/><path fill="#aeaeae" d="M602 590l-48 8 116 64z"/><path fill="#8f8f8f" d="M842 546v-48L738 606z"/><path fill="#242424" d="M294 418l20 8-16-72z"/><path fill="#0e0e0e" d="M870 630l-8-36h-12z"/><path fill="#c8c8c8" d="M782 322l-80 52 60-16z"/></g></svg>