<svg xmlns="http://www.w3.org/2000/svg" width="768" height="1024"><path fill="#998982" d="M0 0h768v1024H0z"/><g fill-opacity=".502"><path d="M830 1086L-62 974l704-264z"/><path fill="#fff" d="M534 798l-596-48L34-58z"/><path d="M70 758l-132 328 892-216z"/><path fill="#fff" d="M706 490L830 14 470-62z"/><path d="M634 242l-480-76L434 14z"/><path fill="#fff" d="M-62 842l268-124-48-780z"/><path d="M830 1006l-892 44 208-308z"/><path fill="#fff" d="M-14-62l344 48-344 372z"/><path fill="#fff7e4" d="M390 762l440-280v292z"/><path fill="#000200" d="M366 610l464-248-124 200z"/><path fill="#fff" d="M830 18L670 494 510-62z"/><path fill="#c47453" d="M182 126l396 656-372-28z"/><path d="M614 134l-456 80L262 42z"/><path fill="#fff" d="M-14 102L-2-62 606 2z"/><path d="M702 782l-764 48 892 256z"/><path fill="#ffdccb" d="M830 362L242 494l-36-160z"/><path fill="#fff" d="M830 1010L654 694l176 4zM-50 994L10-62l176 460z"/><path fill="#310600" d="M606 330l-40-224-148 208z"/><path fill="#fffde6" d="M390 274l144-88-308 40z"/><path fill="#fff" d="M830 298L598 462l68-524z"/><path d="M830 1074L634 722l-368 364z"/><path d="M802 1058l-864-48L42 806z"/><path fill="#b0583d" d="M426 782l184-436-248 76z"/><path fill="#24200a" d="M266 546l-72-124 12 176z"/><path fill="#fff" d="M238-62l592 40v232z"/><path fill="#040000" d="M182 142l416 32L298 26z"/><path fill="#680000" d="M446 466l-20 56-140-36z"/><path d="M574 466l-64 108 172 20z"/><path fill="#eccfc0" d="M502 614l52 188 276-264z"/><path fill="#ffd7c4" d="M318 210l72-56v304z"/><path fill="#340000" d="M246 246l56 84 52-72z"/><path fill="#fff" d="M174-26L-62 682l252 92z"/><path fill="#050000" d="M186 142l56-4-52 204z"/><path fill="#ffe4d6" d="M482 550l-244-56 120 92z"/><path d="M566 1086l168-252-124-116z"/><path fill="#fff" d="M638 402L550-62l280 312z"/><path d="M-62 902l188-140 408 56z"/><path fill="#fec5bb" d="M574 290L470 522l-36-148z"/><path fill="#040000" d="M498 70L354 214h72z"/><path fill="#fff" d="M-30 234L450-62l-472 4z"/><path fill="#ffe2d6" d="M270 534l-68-256 176 160z"/><path fill="#fff" d="M210 642L26-62l-88 968zM702 770l128 268V598z"/><path fill="#d7c0b3" d="M482 794l220-264 128 124z"/><path fill="#140000" d="M470 42l112 220L322 30z"/><path fill="#540900" d="M506 606l-60-32 28 116z"/><path fill="#4e6c53" d="M830 298l-44 232-144-36z"/><path fill="#4a1c02" d="M578 254l28 132-44 72z"/><path fill="#ffe8db" d="M334 250l120-52-76 148z"/><path fill="#acb098" d="M546 470l184-64 20 76z"/><path fill="#ffc4a8" d="M250 166l-48 104 116-52z"/><path fill="#190000" d="M414 278l20-36 88 8z"/><path fill="#ffc5b4" d="M486 166l8 64-156 44z"/><path fill="#fff" d="M830 886V786l-240-84z"/><path fill="#f2c5ae" d="M474 262l92 56-4-48z"/><path d="M786 1034l-52-196-132-112z"/><path fill="#958572" d="M390 582l-192-36 4 148z"/><path fill="#fff" d="M526 78L318-62 830 58z"/><path fill="#e5ad97" d="M434 782l-64-152L98 762z"/><path fill="#790000" d="M498 478l-148-8-4 60z"/><path fill="#fff" d="M762 758l8 328 60-120z"/><path d="M810 1050L38 794l576 4z"/><path fill="#000903" d="M746 514l84 16-68-144z"/><path d="M550 518l52 72 96-92zM-30 1082l860-60-892-180z"/><path fill="#601006" d="M354 426l64-4-4-28z"/><path fill="#fff" d="M22 38L186-62l340 80z"/><path fill="#ffdac7" d="M318 278l-124-8 36 28z"/><path fill="#f2d6c3" d="M490 694l24-104 136 20z"/><path fill="#481707" d="M250 314l48-64 52 88z"/><path fill="#fff" d="M58 618L-62 30l276-8z"/><path fill="#0b0000" d="M434 290l88 32-24-40z"/><path fill="#580900" d="M330 198L222 90l40 112z"/><path fill="#cca999" d="M594 462l-32-216-36 96z"/><path fill="#fff" d="M622 454l192-240L606 62z"/><path fill="#020000" d="M586 262L542 90l-36 136z"/><path fill="#090000" d="M270 42l40 140 180-92z"/><path fill="#979279" d="M546 102l40 104 4-60z"/><path fill="#fffffa" d="M-22 842l220-144-12-300z"/><path fill="#fac2b2" d="M318 582l168-48-232-24z"/><path fill="#fac3ba" d="M438 434l-88 16 160 28z"/><path fill="#967053" d="M446 30l-132 4 56 36z"/><path fill="#fed2c4" d="M398 310L178 418l124 92z"/><path fill="#7c927e" d="M714 590l8-84-92 84z"/><path fill="#dac7b6" d="M422 778l244-100-128 116z"/><path fill="#bb8f7e" d="M290 734l108 60-244-28z"/><path fill="#3f1600" d="M242 530l-36-72h28z"/><path fill="#450000" d="M182 366l12-72 12 32z"/><path d="M386 798L-62 910 78 778z"/><path fill="#130000" d="M202 262l48-172-76 92z"/><path fill="#fff" d="M754 610l72-108-96 52z"/><path fill="#c89889" d="M394 586l116-168-32 144z"/><path fill="#0c0000" d="M542 150L426 50l-52 152z"/><path fill="#ffecdf" d="M370 274l-144-68 216 28z"/><path fill="#974b2f" d="M426 298l-24 36 108-4z"/><path fill="#fff" d="M486 30l284 280 16-372z"/><path fill="#797568" d="M538 86l52 48-24 20z"/><path fill="#fff" d="M-62 58L66 214 406-62z"/><path fill="#870000" d="M326 494l60 32 40-64z"/><path fill="#fcb8a5" d="M382 326l56-48H302z"/><path fill="#fffae8" d="M582 450l148-180-80 180z"/><path fill="#fff" d="M830 314L606 94l-4 200z"/><path fill="#946f4f" d="M474 646l-92 56 144 40z"/><path fill="#e4a99f" d="M482 398l-72 8 40-100z"/><path d="M646 746L482 854l208-68z"/><path fill="#fff" d="M510 78L414-62l416 84z"/><path fill="#c9ac9f" d="M590 630l240 12-396 88z"/><path fill="#010800" d="M518 574l208-68-168-8z"/><path fill="#5c2a13" d="M254 62l140-4-84-28z"/><path fill="#fffffe" d="M186 218L-62 330l244 4z"/><path fill="#8d3d29" d="M442 422l-104-12 24 24z"/><path fill="#f8eedd" d="M554 734l124-20-180-24z"/><path fill="#b36a4f" d="M506 190l-28-32-52 52z"/><path fill="#161b0f" d="M426 86l52-40 32 44z"/><path fill="#fcc0ac" d="M230 270l56 4-56 52z"/><path fill="#baa585" d="M794 318l-60 80-8-76z"/><path fill="#fffffc" d="M166 750L-30 578l64 208z"/><path fill="#7a2f02" d="M494 574l-96 12 100 80z"/><path fill="#b6654d" d="M366 298l-32 48-72-8z"/><path fill="#100000" d="M270 250l12 12-56 4z"/><path fill="#f2c3b1" d="M206 254l44 272 120 56z"/><path d="M754 906l-200 80 184-140z"/><path fill="#b88974" d="M422 758l120 36-180-4z"/><path fill="#5a290b" d="M190 158v-40l48-8z"/><path fill="#e9ab94" d="M222 210l56-60-56 140z"/><path fill="#485d4a" d="M734 526l52-60-216 4z"/><path fill="#faccc3" d="M390 426l8-168-56 128z"/><path fill="#421600" d="M602 362l-28-116-4 156z"/><path d="M-62 862l664-72-560 296z"/><path fill="#be754d" d="M418 638l-88-60 112 24z"/><path fill="#270000" d="M430 266l72-32 24 24z"/><path fill="#fffffa" d="M774 934l56-184-132-36z"/><path fill="#fae0d5" d="M210 330l92 120 104 16z"/><path fill="#ffd9c7" d="M346 234l32-64-96 64z"/><path fill="#bd7b69" d="M434 418l-40-84 28-80z"/><path fill="#872d07" d="M190 322l20 32-32-8z"/><path fill="#2d0700" d="M226 82l100 52-52 60z"/><path fill="#dab09d" d="M126 766h372l-280-76z"/><path fill="#e7a48f" d="M378 670l-84-32 4-120z"/><path fill="#a68370" d="M526 382l56 96-152 104z"/><path fill="#99331a" d="M390 186l-32 32 52-4z"/><path fill="#f1cab0" d="M246 334l36-24v12z"/><path fill="#9e9788" d="M530 538l32-52v-60z"/><path fill="#f1cabc" d="M34 806l-96 144 36-204z"/><path fill="#502b11" d="M230 514l-36-84 8 88z"/><path fill="#fff" d="M830 1006l-60-156-4 128z"/><path fill="#080000" d="M262 298l-8 28 40-36z"/><path fill="#beaba0" d="M458 782l60-72 72 76z"/><path fill="#f1e1c4" d="M718 434l-76-16 104-128z"/><path fill="#947e68" d="M578 606l-72-24h136z"/><path fill="#99a495" d="M754 522l-96 80 20-68z"/><path fill="#a95736" d="M594 334l4 56 20-92z"/><path fill="#5a0000" d="M442 506l20-28-92-4z"/><path fill="#89897b" d="M206 698l72-152-76 8z"/><path fill="#a29e8c" d="M734 410l-72 84-40-40z"/><path fill="#fff" d="M266-62L-22 30l604-12z"/><path fill="#88512b" d="M430 690l4 72-36-56z"/><path fill="#f9d7cc" d="M206 326l200 56-108 60z"/><path d="M18 830l148-64 180 40z"/><path fill="#f8c9b8" d="M222 222l-16 52 124-68z"/><path fill="#f4c6bc" d="M474 350v104l-44-4z"/><path fill="#c57257" d="M494 270l-96 40 24-36z"/><path fill="#2a3c2b" d="M566 254l28-48v124z"/><path fill="#be8976" d="M586 402l24-36-12 60z"/><path fill="#100000" d="M334 306l-84 4 64-24z"/><path fill="#140000" d="M482 334l-12-52-28 8z"/><path fill="#090000" d="M422 110l-112 92-24-148z"/><path fill="#fff8ee" d="M690 698l80 160-132-128z"/><path d="M746 870l-68-88 80 208z"/><path fill="#160000" d="M390 154l68 4-48 56z"/><path fill="#8b3a21" d="M250 306l40 32-44-16z"/><path fill="#a87f5d" d="M222 78h32l-36 28z"/><path fill="#fff" d="M582 94l56 328L830-54zM66-62l112 284-240 456z"/></g></svg>