<svg xmlns="http://www.w3.org/2000/svg" width="684" height="1024"><path fill="#848383" d="M0 0h684v1024H0z"/><g fill-opacity=".502"><path d="M258 22L14 898 10-6z"/><path fill="#fff" d="M178 1086l376-324-424-420zM690-62l56 592L162-62z"/><path d="M306 230l440 436-324 4zM278 14L18 722 10-2z"/><path fill="#fff" d="M162 362l248 260-76-260zM406-62L234 30l108 292z"/><path fill="#030203" d="M246 346l172-200 80 76z"/><path fill="#252424" d="M178 994L78 370 6 1026z"/><path fill="#e3e4e4" d="M606 38l8 520-180-260z"/><path fill="#fff" d="M370 882l268 204-224-28z"/><path fill="#fcfdfd" d="M262 614l80 472-176-116z"/><path d="M554 562L406 258l16 428zM670 414l-96 212 96 36zM46 442L10-26l260 196z"/><path fill="#626362" d="M586 454L434 878l180-172z"/><path fill="#dcdddd" d="M142 354l256 496-288-308z"/><path d="M442 434L270 334l28-56z"/><path fill="#100f10" d="M430 1086L314 874l24 172z"/><path d="M102 318l20 360L6 614z"/><path d="M198-6L6 410l184-68z"/><path fill="#abacab" d="M306 382l140-156-100 20z"/><path fill="#e7e8e8" d="M338 266L450-30 246 150z"/><path fill="#dadedd" d="M686 982l60-496-100 244z"/><path fill="#fff" d="M6-62l-68 216 60 216z"/><path fill="#484949" d="M586 878L462 982l232 36z"/><path fill="#e4e5e5" d="M266 726l128-116 68 380z"/><path fill="#fff" d="M-62 14l96-68 192 40zM486 662l-44-8 40 100zM206 1086l-248-72 504 4z"/><path fill="#010000" d="M482 682h128l-100-92z"/><path d="M398 154l88 80-128-28z"/><path fill="#a6a8a8" d="M242 382l-72-152 128 36z"/><path d="M382 466l-48-92 100-52z"/><path fill="#727070" d="M186 1050L-62 726l188-52z"/><path fill="#d1d1d1" d="M746 498L450 306 566-58z"/><path fill="#d2d2d2" d="M518 502l112-20-32 44z"/><path fill="#fff" d="M10 662l-72-68 60 284z"/><path fill="#cacbcb" d="M126 546l52 516 164-744z"/><path fill="#100d0a" d="M158 962l16 56H70z"/><path fill="#010001" d="M446 486l-8 244-52-188z"/><path fill="#e4e4e4" d="M538 2l-24 240L298-54z"/><path fill="#fff" d="M646 1086l76-72-324 4z"/><path fill="#929493" d="M386 662L274 470l-52 104z"/><path fill="#e9e9e9" d="M334 374l48 148-252-108z"/><path fill="#090607" d="M654 642l-24-212 48 68z"/><path fill="#828685" d="M310 882l84 128-52-216z"/><path fill="#fff" d="M678 770l4-424 60 200z"/><path fill="#1d1c1c" d="M454 522l56-148 56 112z"/><path fill="#909392" d="M590-62v168l100-68z"/><path fill="#e9e9e9" d="M486 270l-12 152 60-88z"/><path d="M10 286l4 244 184-260zM334 354l-92-20 84-28z"/><path fill="#fff" d="M2 422l4 488-68-244z"/><path fill="#6c6c6c" d="M358 374l12-116 104-16z"/><path fill="#444344" d="M270 266L254 2l-40 172z"/><path d="M246 6H18l40 596zM402 310l72 52-32 180z"/><path fill="#fff" d="M230-2L46 6l-80-68z"/><path fill="#b5b6b5" d="M634 390l-24 200-88-204z"/><path d="M322 302l20-48h-60z"/><path fill="#fff" d="M682 406l64-252-72-216z"/><path fill="#fbfcfb" d="M322 1038l-88 12 80-224z"/><path fill="#878b89" d="M434 870l16-112 272-104z"/><path fill="#d9d8d9" d="M570 554h-24l4 72z"/><path fill="#fff" d="M-62 838L2 618v440zM746 778l-64 232V634zM426 434l-24-8-8 20z"/><path fill="#d7d7d7" d="M326-22l40 268-88 20z"/><path fill="#fff" d="M386 490l28 24-16-32z"/><path fill="#d8d8d8" d="M262-62v240l344-60z"/><path fill="#9d9d9d" d="M238 58l60 152-56-44z"/><path fill="#bdbdbd" d="M726 406l-248-4 84 60z"/><path fill="#d7d7d7" d="M206 418l-40 236-56-32z"/><path fill="#b6b6b6" d="M98 730l264-152-76-192z"/><path fill="#fff" d="M378 522l-16 96 64 84z"/><path fill="#2f2d2d" d="M462 170l20 60-48-72z"/><path fill="#d1d1d1" d="M130 382l-8 112 160 160z"/><path fill="#fff" d="M490 1054l-72-24-40-104z"/><path fill="#848786" d="M678 938l-8-280-228 120z"/><path fill="#62605f" d="M438 650h44l4-96z"/><path fill="#020202" d="M278 206L50 222 26 74z"/><path fill="#020202" d="M26 414L134 6l56 332z"/><path fill="#302d2b" d="M10 886v132h56z"/><path fill="#fff" d="M366 494l-80-124 40-12zM674 1074l-212-96 36 84z"/><path fill="#0f0e0e" d="M590 490l-212-28 88-48z"/><path fill="#5e5d5e" d="M458 958l216-72 4 132z"/><path d="M362 974l28 36-64-4zM122 578l-32 96-44-140z"/><path fill="#fdfefe" d="M438 670l56 76-20-92z"/><path fill="#fff" d="M-62 278L2 114v308z"/><path fill="#8d8f8e" d="M658 122l32-112-68-4z"/><path fill="#0c0b0c" d="M542 506v100l-60 36z"/><path fill="#494646" d="M6 630l8 188 104-156z"/><path fill="#737474" d="M430 826l44 156 204-76z"/><path d="M358 438l88-28-56-80z"/><path fill="#979696" d="M18 174l-24 88 32 8z"/><path fill="#bcbcbc" d="M258 278l-28-64-40 56z"/><path fill="#fff" d="M746 338l-72 240 72 84z"/><path fill="#181717" d="M682 662l-8-208-92 180z"/><path d="M18 74L234 2l4 144z"/><path fill="#363636" d="M254 198l64 72-68-24z"/><path fill="#9b9c9c" d="M294 366H182l28-72z"/><path fill="#727473" d="M258 522l4 56-40-32z"/><path fill="#5b5b5b" d="M510 370l32 40v-40z"/><path fill="#c7c7c7" d="M606-62l-96 396 120 140z"/><path fill="#5a5959" d="M646 958l-88 48-84-20z"/><path fill="#fff" d="M-62 434L6 210l-8 420zM674 582l68 24-52-76zM66 2l216-60L498 2z"/><path fill="#0c0b0b" d="M386 166l68 60-100 8z"/><path fill="#bbb" d="M198 342l-72 36 12 40z"/><path fill="#d5d5d5" d="M138 738l28 188 268-188z"/><path fill="#fff" d="M518-2l148 8 28-64zM-14 1018l200 60 48-56z"/><path fill="#e6e6e6" d="M390 118L274 226l64 32z"/><path fill="#6e6e6e" d="M370 350l-24-72 128-48z"/><path fill="#dedede" d="M482 358l-44-48 64-128z"/><path fill="#d6d6d6" d="M458 970l-56-288-28 256z"/><path fill="#1b1c1b" d="M394 574l36 136 20-128z"/><path fill="#b2b2b2" d="M114 438l4 56 40-4z"/><path fill="#e5e5e5" d="M350 326h-20l8-44z"/><path fill="#eaeaea" d="M402 818l48-24-36-120z"/><path fill="#717171" d="M654 706l-68-48 84-4z"/><path fill="#070707" d="M358 430l56 20-36 52z"/><path fill="#8c8f8d" d="M670 898L482 706l172-12z"/><path fill="#010101" d="M330 338l-32-64-16 80z"/><path fill="#0b0a0a" d="M202 62l32 84-32 116z"/><path fill="#959696" d="M338 658l-4-124-48 92z"/><path fill="#616162" d="M6 866l132-176v284z"/><path fill="#b8b7b8" d="M558 562l12 28-20 40z"/><path fill="#3e3c3d" d="M266 222l16-36-92-32z"/><path fill="#010101" d="M14 450l92 216 8-240z"/><path fill="#070707" d="M50 258L10 554l120-136z"/><path fill="#fff" d="M-62-62L6 2l156-8z"/><path fill="#b1b1b1" d="M662 386L554 506l32 32z"/><path fill="#8f8f8f" d="M466 250l-56-24-52 28z"/><path fill="#d8d8d8" d="M294 2l-8 156 280-12z"/><path fill="#413f3f" d="M466 494l-24 148 56 32z"/><path fill="#010101" d="M442 326l28 48-60 108z"/><path fill="#767776" d="M506 590v20l24-8z"/><path fill="#fff" d="M2 742l-64 64 64 224zM674 1086l60-108-48-204z"/><path fill="#a2a3a2" d="M186 266l-4-40 68 84z"/><path fill="#292627" d="M630 442l44 40-52 92z"/><path fill="#fff" d="M682 758l56-188-56-196z"/><path fill="#a5a6a6" d="M358 806v-56l-52 100z"/><path fill="#d6d6d6" d="M262 538l100-80 24 80z"/><path fill="#a2a2a2" d="M438 758l8-72-20 24z"/><path fill="#393535" d="M158 1014l-116-4 120-76z"/><path fill="#cbcbcb" d="M390 322l-24 20v-12z"/><path fill="#919393" d="M98 750l76-108-48-8z"/><path fill="#6c6c6c" d="M442 718l-20-24h36z"/><path fill="#d5d5d5" d="M298 562l-96-192-72 4z"/><path fill="#323233" d="M330 362l68-64-32-8z"/><path fill="#fcfcfc" d="M446 750l44-72-32-24z"/><path fill="#101010" d="M198 54L26 6l96-4z"/><path fill="#d4d3d4" d="M154 642l180-32-216-52z"/><path fill="#777877" d="M242 346l-36-52 76-16z"/><path fill="#fff" d="M514 1022l-244 64-44-68z"/><path fill="#070707" d="M486 690l4-156 32 36z"/><path fill="#636263" d="M178 982L10 710l4 216z"/><path fill="gray" d="M266 18l-16 36-16-48z"/><path fill="#f1f1f1" d="M290 670l48 4-4 116z"/><path fill="#d3d3d3" d="M270 282h20l-12-44z"/><path d="M174 354l16-60-132 72z"/><path fill="#b4b5b5" d="M514 6l168 52-12 104z"/><path fill="#e9e9e9" d="M274 354l44 4 40 88z"/><path fill="#716f70" d="M514 490h16l-24 52z"/><path fill="#7b7c7c" d="M574 590l28-12v-88z"/><path fill="#fff" d="M2-58v184L-34 10z"/><path fill="#070608" d="M574 674l52 8-72-36z"/><path fill="#808180" d="M634 754l-196 4 84 208z"/><path fill="#8c8d8d" d="M474 1010l-32-8-28-56z"/></g></svg>