<svg xmlns="http://www.w3.org/2000/svg" width="1024" height="800"><path fill="#4f4f4f" d="M0 0h1024v800H0z"/><g fill-opacity=".502"><path fill="#fff" d="M850 358l-156-12 124 492z"/><path fill="#dedede" d="M-62 514l236-12-32-240z"/><path d="M826 642l260-396-80 616z"/><path fill="#bcbcbc" d="M326 338l188-88 116 260z"/><path fill="#bebebe" d="M382-62l448 228-340-48z"/><path fill="#0d0d0d" d="M698 570L150 406l696 456z"/><path fill="#f0f0f0" d="M206 34l24 244-96-240z"/><path fill="#fff" d="M858 458l-88-112-28 360z"/><path fill="#020202" d="M182 474l-36-248 292 240z"/><path fill="#202020" d="M1066 274L182 78l496 264z"/><path d="M6 38l-40 200L154 70z"/><path fill="#f6f6f6" d="M202 166l116 24-188 44z"/><path fill="#010101" d="M810 714l-16-136-40 228z"/><path fill="#212121" d="M514 742L-62 502v248z"/><path fill="#131313" d="M214 38l16 128L594-62z"/><path fill="#0d0d0d" d="M610 546l20-268 92 104z"/><path fill="#090909" d="M830 546l8 308 248-308z"/><path fill="#fbfbfb" d="M394 718l40 144 52-44z"/><path fill="#dbdbdb" d="M706 266L666 74l64 16z"/><path fill="#0d0d0d" d="M586-62L730-6 610 138z"/><path fill="#151515" d="M618 586l128-136-4 392z"/><path fill="#e6e6e6" d="M574-62l-36 168 64 16z"/><path fill="#878787" d="M822 286l128 16-112 136z"/><path fill="#fff" d="M778 506l-44 152 44 52z"/><path fill="#c7c7c7" d="M198 706l-28-180-12 104z"/><path fill="#fff" d="M134 282l-40 64 64 152z"/><path fill="#6f6f6f" d="M18 290l104 212-184 48z"/><path fill="#bcbcbc" d="M150 842l212 20-20-124z"/><path fill="#161616" d="M1086 150L794 74l220-48z"/><path fill="#fff" d="M970 26l80-88-8 68z"/><path fill="#dadada" d="M570 490L438 362l184 92z"/><path fill="#585858" d="M182 494l316-68-96 320z"/><path d="M262 242l120 104-48-120z"/><path fill="#797979" d="M174 138l444 320-8-156z"/><path fill="#2c2c2c" d="M-42 750l224 112-16-348z"/><path fill="#1e1e1e" d="M382-62l160 320-144-16z"/><path fill="#151515" d="M130 218h156l-144 48z"/><path fill="#181818" d="M594 486l-44 224-156-8z"/><path fill="#fff" d="M826 794l-20-112 28 24z"/><path fill="#ebebeb" d="M850 442l-148-44 4 76z"/><path fill="#fefefe" d="M698 338l132 28-24 60z"/><path fill="gray" d="M514 862l180-256-308 256z"/><path fill="#ededed" d="M222 674l36-64-72 72z"/><path fill="#212121" d="M750 74l4 288 112-72z"/><path fill="#0b0b0b" d="M226 170L-62 50 2 154z"/><path fill="#454545" d="M870 554l-40-184 256-12z"/><path fill="#868686" d="M598 422l-240-32-200-172z"/><path d="M582 314l-44 88 28-192zM802 726l-128-96-56 60z"/><path fill="#ababab" d="M66 358L-62 482V270z"/><path fill="#0e0e0e" d="M266 610l112 132-188-32z"/><path fill="#898989" d="M-62 246l124 44 16-132z"/><path fill="#b3b3b3" d="M826 286l44 28 4 112z"/><path fill="#090909" d="M58 338l68-40-152-8z"/><path fill="#5f5f5f" d="M266 694l-40 168L38 638z"/><path fill="#161616" d="M446 390l-20 44 144 80z"/><path fill="#9e9e9e" d="M282 646l108 36-48-84z"/><path fill="#101010" d="M186 542v148l80-120z"/><path fill="#6e6e6e" d="M974 238L758 26l-16 136z"/><path fill="#525252" d="M442 510l320 76-20-132z"/><path fill="#565656" d="M278 166l72-140 112 344z"/><path fill="#111" d="M170-14L90 166l-80-60z"/><path fill="#a6a6a6" d="M122 14L-46 2l36 40z"/><path fill="#dfdfdf" d="M814 690l32-232-80-32z"/><path fill="#e2e2e2" d="M270 222l-44-48 80 36z"/><path fill="#c5c5c5" d="M198 18l20 92-96 24z"/><path fill="#131313" d="M610 470l92 24-80-188z"/><path fill="#818181" d="M362-62L594 2 494 110z"/><path fill="#ebebeb" d="M730 106l-100 60 108-20z"/><path fill="#a6a6a6" d="M122 266l32 12v88z"/><path fill="#141414" d="M38 174l-100 92L42-62z"/><path fill="#fff" d="M218-62l60 88-8-56z"/><path fill="#878787" d="M542 514l-108-8-4-76z"/><path fill="#545454" d="M782 174l-372 16 120-84z"/><path fill="#292929" d="M658 358l92 28-200 40z"/><path fill="#e9e9e9" d="M534 58l-36 44 100 8z"/><path fill="#ddd" d="M162 394l-24 84 40 56z"/><path fill="#141414" d="M986 766l-140 92-44-72z"/><path fill="#191919" d="M302 186l-92-48L326-42z"/><path fill="#c5c5c5" d="M622 314l-72 76 48-100z"/><path fill="#050505" d="M746 594l-8 72-172 48z"/><path fill="#282828" d="M894 150l24-212 136 140z"/><path fill="#f8f8f8" d="M378 262l28 24-12 20z"/><path fill="#383838" d="M554 46l-80 40 12-64z"/><path fill="#fff" d="M178 186l-20 40 100-52z"/><path fill="#202020" d="M246 198l-124 60 160-24z"/><path fill="#161616" d="M106 498L70 722l104-124z"/><path fill="#dfdfdf" d="M786 762l44-36 8 68z"/><path fill="#939393" d="M630 458l-36 36 4 100z"/><path fill="#a3a3a3" d="M966 154l108 4-132 32z"/><path fill="#040404" d="M914 710l172 136-52-300z"/><path fill="#9d9d9d" d="M418 370l120 36 16-156z"/><path fill="#636363" d="M570 862l28-248 132 248z"/><path fill="#9c9c9c" d="M78 670l-20-28 12-64z"/><path fill="#afafaf" d="M146 674l16-52-36 52z"/><path fill="#363636" d="M442 662l-40-268-116 196z"/><path fill="#7c7c7c" d="M878 622l-24 60 12-116z"/><path fill="#181818" d="M174 98l92-56 60 28z"/><path fill="#fefefe" d="M790 706l-44-28 24-92z"/><path fill="#9e9e9e" d="M722 566l40-12-72 56z"/><path fill="#797979" d="M190 242l60 88-40-8z"/><path fill="#fafafa" d="M606 402l8 68-28 8z"/><path fill="#fff" d="M1002 18l84-16-144-64z"/><path fill="#5d5d5d" d="M790 582l12-32 8 72z"/><path fill="#ccc" d="M922 778l-36-8 12-20z"/><path fill="#b8b8b8" d="M586 26H474l136-64z"/><path fill="#595959" d="M818 278l44 20-28 124z"/><path fill="#1e1e1e" d="M562 430l44-4-4-120z"/><path fill="#d1d1d1" d="M282 554v28l-36 36z"/><path fill="#131313" d="M290 354l-112 80 284 4z"/><path fill="#1c1c1c" d="M986 542L862 838l12-416z"/><path fill="#0b0b0b" d="M306 762l80-72-96-40z"/><path fill="#fff" d="M146 38l48 48-4-52z"/><path fill="#e8e8e8" d="M670 106l68 24-72 40z"/><path fill="#020202" d="M770 750l24-100 4 100z"/><path fill="#ddd" d="M86 666l-20 16v-28z"/><path fill="#f7f7f7" d="M178 674l8 36 12-28z"/><path fill="#dbdbdb" d="M570 410l12-76-52 112z"/><path fill="#0d0d0d" d="M702 586l-104 92 12-152z"/><path fill="#373737" d="M798 202l-156-32 236-32z"/><path fill="#fff" d="M758 374l-52-8-4-32z"/><path fill="#e0e0e0" d="M662 638l-56 36 32-8z"/><path fill="#8b8b8b" d="M314 478L86 490l120 32z"/><path fill="#717171" d="M714 74l-144 56 12 52z"/><path fill="#111" d="M178 714l-56-16 48-72z"/><path fill="#222" d="M62 514l-124 96L54 822z"/><path fill="#383838" d="M662 694l-220 80-52-104z"/><path fill="#626262" d="M62 170l-8 120 176-148z"/><path fill="#242424" d="M290 706l8-140-140 176z"/><path fill="#909090" d="M766 42l-104 8 44-28z"/><path fill="#7b7b7b" d="M782 830l-340 32 56-136z"/><path fill="#282828" d="M142 102L86 22l84 52z"/><path fill="#adadad" d="M778 402l-64 80-20-32z"/><path fill="#dedede" d="M230-58l32-4-28 92z"/><path fill="#181818" d="M834 382l-8 32 28 16z"/><path fill="#f6f6f6" d="M102 18l24 4-20-24z"/><path fill="#212121" d="M694 770l44 92 136-72z"/><path fill="#2f2f2f" d="M418 206l364 152L298-62z"/><path fill="#9c9c9c" d="M134 410L78 310l44 208z"/><path fill="#d9d9d9" d="M610 362v48l-12-20z"/><path fill="#121212" d="M210 18L82-2l216-36z"/><path fill="#a8a8a8" d="M882 466l-20 44 8-96z"/><path fill="#666" d="M62 342l40 148-112-28z"/><path fill="#303030" d="M622 262l-16 256 152-288z"/><path fill="#454545" d="M1042 490l44-240-212 224z"/><path fill="#303030" d="M742 482l12 108-144-132z"/><path fill="#b3b3b3" d="M54 198l32-40-64 28z"/><path fill="#f6f6f6" d="M790 590l8-236-48 116z"/><path fill="#1f1f1f" d="M358 338l-48-120 76 68z"/><path fill="#a3a3a3" d="M126 722l48-4-92-20z"/><path fill="#1f1f1f" d="M170 726L50 694l4 116z"/><path fill="#353535" d="M314 434l-72 176 152-184z"/><path fill="#202020" d="M830-18L606 66l-8-80z"/><path fill="#9d9d9d" d="M506 106l-44-84 12 100z"/><path fill="#fff" d="M150 410l-16-72-36-8z"/><path fill="#afafaf" d="M258 230l76-4-68-52z"/><path fill="#777" d="M434 426L214 270l232 76z"/><path fill="#828282" d="M918 162l36 72-100-40z"/><path fill="#6a6a6a" d="M558 482l28-28-76-4z"/><path fill="#050505" d="M834 830l40-108-32-88z"/><path fill="#e5e5e5" d="M162 566l4-68 16 60z"/><path fill="#2d2d2d" d="M658 14l4 124-60-96z"/><path fill="#949494" d="M846 142l-52-16V70z"/><path fill="#505050" d="M594 82l-56-68-24 24z"/><path fill="#f1f1f1" d="M662 110l-4 28 92-12z"/><path fill="#353535" d="M822 114l72-16-36-160z"/><path fill="#1f1f1f" d="M162 622l-92 40 12-156z"/><path fill="#b5b5b5" d="M434 574l-4 60 12-24z"/><path fill="#1c1c1c" d="M338 766l32-36 24 68z"/><path fill="#3d3d3d" d="M798 122l-80-24 12-60z"/><path fill="#545454" d="M310 242l96-64-60-160z"/><path fill="#aeaeae" d="M158 382l-24-116 28 52z"/><path fill="#fff" d="M14 18l-76 12L2-26z"/><path fill="#646464" d="M334 862H18l212-148z"/><path fill="#222" d="M726 186l-24 144 128 16z"/></g></svg>