<svg xmlns="http://www.w3.org/2000/svg" width="840" height="1024"><path fill="#bababa" d="M0 0h840v1024H0z"/><g fill-opacity=".502"><path d="M102 330l152 192 68-328z"/><path fill="#070707" d="M458 546l96-492 112 196z"/><path fill="#fff" d="M902 982L450 626 858-30z"/><path d="M522 846L326 998l284-388z"/><path fill="#fff" d="M154 226L22 954-62-62z"/><path d="M806 946l-16 84-248-128zM122 338l80 144 100-268z"/><path fill="#626262" d="M246 1086L102 746l236-132z"/><path d="M654 246L382 94l228 12z"/><path fill="#fff" d="M650 514L290 894l148-400z"/><path d="M670 654l-120 12 16-40zM530 514l-84-56 96-24z"/><path fill="#979797" d="M302 198l-68 348 456-308z"/><path d="M122 326l248-72-124-36zM314 470l-44 32-128-84z"/><path fill="#3e3e3e" d="M254 994l236-140-128 232z"/><path fill="#2d2d2d" d="M442 658l-16 120 128 112z"/><path d="M642 226l-20 152-36-52z"/><path fill="#f4f4f4" d="M186 1086L-2 150l-60 912z"/><path fill="#f6f6f6" d="M606 910l296-384L658 10z"/><path fill="#fff" d="M274 394l44-120-68 40z"/><path fill="#dedede" d="M330 14l472 180-84-256z"/><path fill="#fefefe" d="M770 1006l-428 80 156-156z"/><path fill="#505050" d="M394 522l-68-96 68 252z"/><path fill="#fff" d="M442 774L322 970l-76-60z"/><path fill="#dadada" d="M242 854l40-304-312-300z"/><path d="M190 254l-44 164 140-8z"/><path fill="#ececec" d="M902 694l-332-32-28 188z"/><path d="M494 414l-68-24 124-16z"/><path fill="#d9d9d9" d="M-62-14l476 220-280 36z"/><path fill="#fff" d="M902 670L546 390l12 240z"/><path d="M618 634l-28 20 84 4z"/><path fill="#5a5a5a" d="M138 658l140 388-136-192z"/><path d="M542 246l92-68-68-44z"/><path fill="#bababa" d="M550 338l-208-80 180-144z"/><path fill="#fff" d="M494 606L306 846l8-120z"/><path d="M538 462l-84-20 16 52z"/><path fill="#8e8e8e" d="M514 790l56-128-144 28z"/><path fill="#929292" d="M486 450l112-148 20 64z"/><path fill="#5d5d5d" d="M554 894l280 32-240 36z"/><path fill="#2f2f2f" d="M514 126l-100-12-8 44z"/><path d="M310 278l-24-56 48 12z"/><path fill="#c5c5c5" d="M226 454l332-20-256-72z"/><path fill="#f8f8f8" d="M454 834l-32-72-64 172z"/><path fill="#4f4f4f" d="M298 862l16-188-88 232z"/><path fill="#fcfcfc" d="M-62 642l196-276L18 90z"/><path fill="#3d3d3d" d="M382 434v44l-84-32z"/><path fill="#d5d5d5" d="M442 58l-96 224-8-180z"/><path fill="#212121" d="M798 954l-108-24 116 124z"/><path fill="#fff" d="M798 962l104-20-92 144z"/><path fill="#040404" d="M378 998l20-96-56 56z"/><path fill="#414141" d="M442 330l-8 76-36-68z"/><path d="M154 434l4-152 164-48z"/><path fill="#aeaeae" d="M378 978l-136-68 112 176z"/><path fill="#cdcdcd" d="M282 498L10 886l52-388z"/><path fill="#1a1a1a" d="M422 770l84 24 8 88z"/><path d="M230 490l68 4-140-108z"/><path fill="#fff" d="M574 678l-72-192-108 144z"/><path fill="#ececec" d="M414 362l-104 40 64-88z"/><path fill="#d7d7d7" d="M614 218l-80 68h68z"/><path d="M630 234l4 128-36-64z"/><path fill="#f4f4f4" d="M398 434l-32 100 124-128z"/><path fill="#acacac" d="M274 974l8-340-128 24z"/><path fill="#dadada" d="M510 874l184-276 64 268z"/><path fill="#111" d="M390 518l4 112-20-60z"/><path fill="#434343" d="M470 214l-4 44-40-32z"/><path fill="#b2b2b2" d="M174 454l208 124 24 136z"/><path d="M538 446l-8 52-72-24z"/><path fill="#fafafa" d="M-62 994l244-32 68 124z"/><path fill="#f6f6f6" d="M390 578l244 64 268-324z"/><path fill="#4a4a4a" d="M366 270l-24 92-32-40z"/><path fill="#cecece" d="M602 970l-180 16 56-116z"/><path fill="#3a3a3a" d="M162 870l40-16-92-72z"/><path d="M570 642l88-4-36 20z"/><path fill="#f2f2f2" d="M902 450l-36-248-332 228z"/><path fill="#0e0e0e" d="M442 922l68-120-152 144z"/><path fill="#d0d0d0" d="M690-62l52 272L490 46z"/><path fill="#f5f5f5" d="M258 890l184-88-168 160z"/><path d="M642 262l-20-120-72-20z"/><path fill="#cfcfcf" d="M190 1034l-20-152-216-100z"/><path fill="#5b5b5b" d="M306 970l136 68-116-108z"/><path fill="#626262" d="M490 90l76 24-48 92z"/><path d="M134 378l140-40-64 124z"/><path fill="#e6e6e6" d="M334 266l24 84 40 4z"/><path fill="#f6f6f6" d="M242 330l92-64-36 68z"/><path fill="#c2c2c2" d="M538 18L222 54l-12 200z"/><path fill="#929292" d="M594 686l-176 84 20-100z"/><path fill="#ececec" d="M714 986l-196 100-136-108z"/><path fill="#f9f9f9" d="M598 674l-72 168 188-208z"/><path fill="#d5d5d5" d="M286 150h100l12 164z"/><path fill="#0a0a0a" d="M334 242l-144 12 40 80z"/><path d="M550 646l28-8 32 24z"/><path fill="#dbdbdb" d="M274 458l-40-12-8-32z"/><path fill="#080808" d="M126 698l28 40v-24z"/><path fill="#dbdbdb" d="M646 210L862-2 626 522z"/><path fill="#8b8b8b" d="M630 918l88-32 144 68z"/><path fill="#e8e8e8" d="M770 934l116-164-148 80z"/><path fill="#4b4b4b" d="M258 966l-32 48 64-32z"/><path d="M546 442l-76 56-12-52z"/><path fill="#f6f6f6" d="M642 378L454 606l172 36z"/><path fill="#a8a8a8" d="M902 1086L650 950l112 120z"/><path fill="#d3d3d3" d="M138 742l-12-352-148 584z"/><path fill="#d9d9d9" d="M258 214L-62-10l200 296z"/><path fill="#bfbfbf" d="M550 262l-80-128 28 228z"/><path fill="#959595" d="M138 746l68-76 16 260z"/><path d="M242 486l-76-68 152 68z"/><path fill="#b9b9b9" d="M662 922l12-84-156 4z"/><path fill="#4f4f4f" d="M374 310l72-20h-76z"/><path fill="#060606" d="M142 790l28 4-48-24z"/><path fill="#262626" d="M410 114l60-24 68 16z"/><path fill="#2c2c2c" d="M298 862l-4-60-24 72z"/><path fill="#b6b6b6" d="M426 518l-112-52-144 120z"/><path fill="#222" d="M466 394l16-16 40 68z"/><path fill="#878787" d="M622 366l-32-60-92 144z"/><path fill="#646464" d="M550 902l8-48-44 8z"/><path d="M198 262h144l-32-44z"/><path fill="#dadada" d="M310 378l-24-108-16 72z"/><path fill="#3d3d3d" d="M602 294l-44 4-44 100z"/><path fill="#050505" d="M810 966l-100-16 72-12z"/><path fill="#1a1a1a" d="M538 698l36 16-12 16z"/><path fill="#bdbdbd" d="M746 790l-52-156v144z"/><path fill="#f2f2f2" d="M622 366l280 336-376-92z"/><path fill="#414141" d="M318 694l-28-20 8 112z"/><path fill="#b8b8b8" d="M818 110L694 26l172-88z"/><path fill="#979797" d="M406 666l-84-92-72 144z"/><path fill="#7a7a7a" d="M422 774l120 12-16-116z"/><path fill="#f8f8f8" d="M466 498l44 68-112-4z"/><path fill="#5c5c5c" d="M410 166l-4-44 72-8z"/><path fill="#c9c9c9" d="M790 558l112-4-108-112z"/><path fill="#e0e0e0" d="M398 306l-4 92-44-84z"/><path fill="#a6a6a6" d="M418 442H314l-64-80z"/><path fill="#b5b5b5" d="M314 922l-28 60 116-80z"/><path d="M530 454l12 52-32-28z"/><path fill="#d2d2d2" d="M446 730l60-60-80 44z"/><path fill="#fff" d="M626 366l-4 124-84-60z"/><path fill="#212121" d="M670 922l-68 4 120 28z"/><path fill="#ebebeb" d="M314 878l136-228-136 60z"/><path fill="#262626" d="M430 326l-12 20-40 8z"/><path fill="#d2d2d2" d="M558 918l-120 8 80-60z"/><path d="M178 866l-28-16 24-4z"/><path fill="#ccc" d="M726 122l-8-108-304 68z"/><path fill="#dedede" d="M566 290l20-72-20 16z"/><path fill="#646464" d="M406 258l-12-20 48-20z"/><path fill="#e0e0e0" d="M154 446l-88 88-12-396z"/><path d="M602 126l40 84-104-4z"/><path fill="#4a4a4a" d="M370 490l24-60-44 44z"/><path fill="#2a2a2a" d="M426 390l-24-8 20-20z"/><path fill="#0a0a0a" d="M394 546l-4 52-20-56z"/><path fill="#fff" d="M390 974l12 20-4-56z"/><path fill="#f8f8f8" d="M610 690l-84-68-60 8z"/><path fill="#cdcdcd" d="M298 526l-32 172L82 410z"/><path fill="#020202" d="M134 334l136 80-36-128z"/><path fill="#6a6a6a" d="M782 982l-88-20 108 80z"/><path fill="#6c6c6c" d="M650 938l-84-4 128 48z"/><path fill="#acacac" d="M182 1050l160-68 92 80z"/><path fill="#919191" d="M390 502l68-16-36 44z"/><path fill="#9b9b9b" d="M394 170l132-12-44-24z"/><path fill="#898989" d="M542 230l56 100-88-20z"/><path fill="#efefef" d="M438 670l-20-136-28 56z"/><path fill="#fbfbfb" d="M802 950l20 80 80-80z"/><path fill="#d2d2d2" d="M494 266l-16 68-64-88z"/><path fill="#dfdfdf" d="M318 810l148 16-196 136z"/><path fill="#737373" d="M170 694l-36 24-12-32z"/><path fill="#e9e9e9" d="M298 458l-60-8 60-16z"/><path fill="#555" d="M446 238v20l48-24z"/><path fill="#202020" d="M414 1086l-40-116 80 116z"/><path fill="#dfdfdf" d="M326 390l-60-16 84-20z"/><path fill="#eaeaea" d="M718 870l-44-136-124-44z"/><path fill="#aaa" d="M410 806l-80 44 76-80z"/><path d="M626 266l-36 36 40 8z"/><path fill="silver" d="M554-62L102 118l220 104z"/><path fill="#636363" d="M182 922l92-56-92 104z"/><path fill="#565656" d="M346 530l8 16 16-56z"/><path d="M250 386l-48 68-56-156z"/><path fill="#101010" d="M638 362l-28-4 8-52z"/></g></svg>