<svg xmlns="http://www.w3.org/2000/svg" width="1024" height="752"><path fill="#8f8f8f" d="M0 0h1024v752H0z"/><g fill-opacity=".502"><path d="M1086 322l-96 492L50-62z"/><path fill="#fff" d="M678 730L-62 78 2 814zM662-62l424 108-360 316z"/><path d="M594 774l360-568 132 536zM50-62l8 260L738 30z"/><path fill="#fff" d="M-62 710l548-504 188 600zM666 270l420-48-92-284z"/><path d="M666-54L174-34l504 232z"/><path fill="#fff" d="M654-62l432 84-348 308z"/><path fill="#828282" d="M314 530l464 20L306 14z"/><path fill="#fff" d="M434 786L-2 70l-60 704z"/><path d="M1022 814L618 674l420-448z"/><path fill="#fff" d="M742 362l-28 236-36-108z"/><path fill="#fcfcfc" d="M414 114L6 250l260-8z"/><path fill="#040404" d="M258 282l-136-36 68 104z"/><path d="M1046 238L730 546l36-244z"/><path fill="#fff" d="M-22 770l-8-516 752 548zM-6 2l-8 188L78-54z"/><path fill="#0a0a0a" d="M86-62l192 236-264-20z"/><path fill="#fff" d="M662-62l424 272-348 56z"/><path fill="#e9e9e9" d="M338 322l176-120-40 264z"/><path fill="#fff" d="M606 566l-492 48 532 92z"/><path d="M998 734L614 590l72 224z"/><path fill="#353535" d="M366 554l104-112-148 44z"/><path fill="#eaeaea" d="M326 486l-40-304-76 32z"/><path fill="#414141" d="M498 554l220-140-28-228z"/><path d="M422 46l180 96 12-204z"/><path fill="#fff" d="M750-10l224-52-248 444z"/><path fill="#212121" d="M294 226l172 16-104-92z"/><path fill="#fff" d="M390 738L-18 70l16 744zM674 134l372 124-24-320z"/><path fill="#1c1c1c" d="M1086 234l-284 32-76 372z"/><path fill="#101010" d="M466-62L226-14l12 208z"/><path fill="#747474" d="M542 122l-12 344-92-384z"/><path fill="#474747" d="M414 406l-76 36-16-112z"/><path fill="#323232" d="M734 286L518 114l180 288z"/><path fill="#848484" d="M218 82l16 64-84 56z"/><path fill="#fff" d="M62-10L-6 154-42-38z"/><path fill="#303030" d="M122 258l100-4-64 80z"/><path fill="#fff" d="M86 194L-62 78 86 606zM734 322l352-240L666-62z"/><path fill="#c1c1c1" d="M190 290l160 284-156-148z"/><path fill="#fff" d="M602 574l-652 92 716 144z"/><path d="M890 614L710 814l-92-204z"/><path fill="#838383" d="M658 410L490 526l220 96z"/><path fill="#bcbcbc" d="M462 170l-140 60 72-60z"/><path fill="#fff" d="M698-54l96 304-120-96z"/><path fill="#d7d7d7" d="M546 450L442 610l-116-48z"/><path fill="#e4e4e4" d="M382 474l-108 20 192-104z"/><path fill="#cecece" d="M682 522l28 92 28-152z"/><path fill="#fff" d="M1026-62l12 316L674 90z"/><path fill="#262626" d="M858 250l124-16 4 224z"/><path fill="#828282" d="M558 522l-96 20-28 48z"/><path fill="#fff" d="M6 814l-68-448 224-88z"/><path fill="#454545" d="M702 402l-192-20L638-14z"/><path fill="#080808" d="M858 246l-112 92-8 296z"/><path fill="#212121" d="M270 318l-104-8 16-60z"/><path fill="#565656" d="M402 74l-44-32-116 140z"/><path fill="#fff" d="M686 802l-400-24 244-248z"/><path d="M670 206l12 80 16-100z"/><path fill="#050505" d="M470 178l-140 68 84-4z"/><path fill="#bfbfbf" d="M310 178l16-56 112-4z"/><path fill="#303030" d="M370 474l76-28-24 68z"/><path fill="#161616" d="M18 142L210 10l-40 180z"/><path fill="#ddd" d="M474 426L330 302l48-52z"/><path d="M378-62h240l-24 212z"/><path fill="#919191" d="M614 10l28-24-4 72z"/><path fill="#cfcfcf" d="M362 402l-144 48-32-140z"/><path fill="#dbdbdb" d="M218 174l76 120-188-92z"/><path fill="#393939" d="M370 290l-28-24 4-76z"/><path fill="#1d1d1d" d="M262-6l36 156-72 40z"/><path fill="#0a0a0a" d="M758 518L642 726l444 64z"/><path fill="#b4b4b4" d="M202 274l56-12-12 28z"/><path fill="#f6f6f6" d="M730 314l44-28-52 104z"/><path fill="#fff" d="M634 654l-352-88 364 248zM-62 806l308-304L42 146zM66-62L-62-26l12 356z"/><path fill="#1a1a1a" d="M398 138l44 16-136 60z"/><path fill="#fff" d="M682 154l164 100 240-104z"/><path fill="#606060" d="M630 334l44 180 44-108z"/><path fill="#181818" d="M678 70l-8-44-68 24z"/><path fill="#c9c9c9" d="M470 342l-36 236 76-88z"/><path fill="#4c4c4c" d="M94-62h380L154 38z"/><path fill="#363636" d="M22 90l4 60L86 26z"/><path fill="#242424" d="M786 294l216-56-176 252z"/><path fill="#b3b3b3" d="M446 238l40 172 20-232z"/><path fill="#e0e0e0" d="M430 450l40-196-92 72z"/><path fill="#8c8c8c" d="M170 326l84 12-92 12z"/><path fill="#848484" d="M422 138l52-24-136 4z"/><path fill="#eee" d="M354 534l116-16-72 92z"/><path fill="#2d2d2d" d="M170 166L38 142l60 60z"/><path fill="#4d4d4d" d="M406 278l72-68-12-100z"/><path fill="#0c0c0c" d="M342 410l-16 20 56-20z"/><path fill="#4c4c4c" d="M630 346L514 538l96-84z"/><path fill="#0b0b0b" d="M614 598l472 124-388 92z"/><path fill="#292929" d="M690 282h44l-28 84z"/><path fill="#4e4e4e" d="M338 526l-24-28 48-4z"/><path fill="#fff" d="M1018-62L874 222l168 20z"/><path fill="#0b0b0b" d="M1086 290l-72 524-364-84z"/><path fill="#ccc" d="M386 466l-216-88 108 140z"/><path fill="#101010" d="M110 170L418-62 146 42z"/><path fill="#1d1d1d" d="M806 274l172 76-212-32z"/><path fill="#b3b3b3" d="M318 358l52-124 32 64z"/><path fill="#323232" d="M586 118l28 204 64-204z"/><path fill="#bbb" d="M710 422l20 136-52 64z"/><path fill="#adadad" d="M138 250l-20-56-36 32z"/><path fill="#4f4f4f" d="M630 142l-92 264-16-220z"/><path fill="#fff" d="M406 778l-468-28 76-620zM954 182l-260 60 48 64z"/><path fill="#1d1d1d" d="M206 250h-72l-12 36z"/><path fill="#b1b1b1" d="M318 254l-68 16 120-68z"/><path fill="#797979" d="M418 514l-24-60-24 84z"/><path fill="#fff" d="M678-34l408 32-404 168z"/><path fill="#9f9f9f" d="M690 618l-200-96h120z"/><path fill="#fff" d="M638 678L534 554 178 702z"/><path fill="#535353" d="M402 402l-44 48-24-20z"/><path fill="#3b3b3b" d="M82 98l-56 56L58 2z"/><path fill="#a6a6a6" d="M634 370l24-8-40-16z"/><path fill="#b0b0b0" d="M182 182l32-12 20-40z"/><path fill="#c5c5c5" d="M278 302l16 140-68-96z"/><path fill="#2d2d2d" d="M322 222l-24-12 68-52z"/><path fill="#9e9e9e" d="M550 470l-80 104 80-196z"/><path fill="#505050" d="M394 114l136 24-40-60z"/><path fill="#1b1b1b" d="M282 26l-84 128L462-42z"/><path fill="#8a8a8a" d="M466 182l48 100 16-68z"/><path fill="#626262" d="M366 282l56-48 20 24z"/><path fill="#3e3e3e" d="M742 286l-128-40 88 68z"/><path fill="#b0b0b0" d="M366 202l36-40h32z"/><path fill="#404040" d="M358 198l-20 60 20 24z"/><path fill="#4e4e4e" d="M390 86L246 186 354 34z"/><path fill="#fff" d="M626 642L278 814l276-256z"/><path fill="#636363" d="M166 294l-20-24h76z"/><path fill="#d3d3d3" d="M294 162l-124 64 132 28z"/><path fill="#070707" d="M726 566l60-64-20-76z"/><path fill="#fff" d="M66-62L22 98-62-42z"/><path fill="#5a5a5a" d="M678 146L626-10l-12 112z"/><path fill="#1d1d1d" d="M530 78L386 18l-12 96z"/><path fill="#202020" d="M638 362l20 8-52 40z"/><path fill="#fff" d="M-62 138l140 48 104 212z"/><path fill="#c7c7c7" d="M694 458l-12 100 52-108z"/><path fill="#040404" d="M634 38l36 48-4-52z"/><path fill="#1c1c1c" d="M442 450l-68 40 64-16z"/><path fill="#0b0b0b" d="M590 150l28-112-92 76z"/><path fill="#7c7c7c" d="M178 346l32 4 40-28z"/><path fill="#070707" d="M398 198l-20 48 68-28z"/><path fill="#6b6b6b" d="M218 106l-96 92 60-20z"/><path fill="#d7d7d7" d="M246 270l-56-40 164-100z"/><path fill="#757575" d="M470 574l92-72-68 28z"/><path fill="#121212" d="M238 290l-20 32-32-36z"/><path fill="#8b8b8b" d="M310 358l-12-64 76 64z"/><path fill="#020202" d="M674 174l8 60 16-60z"/><path fill="#727272" d="M518 450l-20-68 36-20z"/><path fill="#cbcbcb" d="M634 26v-40l16-16z"/><path fill="#bfbfbf" d="M634 18l-24 20 16-4z"/><path fill="#0c0c0c" d="M662 266l-60-12 8 20z"/><path fill="#858585" d="M674 34l-4-44-24-12z"/><path fill="#4e4e4e" d="M278-62L206 38 354-62z"/><path fill="#525252" d="M654 158l28 16-64 84z"/><path fill="#090909" d="M654 330l-8 24-8-60z"/><path fill="#7d7d7d" d="M706 602l-56-136-88 52z"/><path fill="#bababa" d="M406 390l-80-132v56z"/><path fill="#1a1a1a" d="M46 86l-24 28 64 72z"/><path fill="#101010" d="M818 534l-24 248-96-168z"/><path fill="#5e5e5e" d="M62 130l36 44v52z"/><path fill="#a9a9a9" d="M354 534l48-40-40 8z"/><path fill="#cdcdcd" d="M290 382l-72 76-52-116z"/><path fill="#272727" d="M818 270l128-32 140 68z"/><path fill="#171717" d="M206 318l-4-24 48 4z"/><path fill="#fff" d="M258 502l-276 20 492 136z"/><path fill="#adadad" d="M494 454l12-144-56 132z"/><path fill="#0b0b0b" d="M150 326l36-36-8 36z"/><path fill="#060606" d="M538-58L174 78 350-62z"/><path fill="#dbdbdb" d="M290 394l-8-100 36 100z"/><path fill="#d0d0d0" d="M122 190h160l-164 68z"/><path fill="#343434" d="M646 42l8 92 24-12z"/></g></svg>