<svg xmlns="http://www.w3.org/2000/svg" width="1024" height="800"><path fill="#8e8681" d="M0 0h1024v800H0z"/><g fill-opacity=".502"><path fill="#fff" d="M438 6l644 244-572 340z"/><path fill="#28221c" d="M1086 350L314 862h680z"/><path fill="#19140f" d="M226 714L-6-62l16 804z"/><path fill="#fff" d="M74 298l336 84L94-2z"/><path fill="#352d26" d="M622 302L926 30 650-62z"/><path fill="#160f09" d="M162-10l8 204 220-72z"/><path fill="#5d544c" d="M142 862l492-428-200-164z"/><path fill="#fbf2ea" d="M234 614l172-420-216 64z"/><path fill="#fffffe" d="M1086 134l-404 60-64 328z"/><path fill="#0c0704" d="M82 390L78-62-62 94z"/><path fill="#fdf3eb" d="M606 414L426 142 634-62z"/><path fill="#201c16" d="M550 622l172-160-48 400z"/><path fill="#d1c8bf" d="M1062 134L938-62l-76 696z"/><path fill="#fff" d="M78 10l52 324 48-396z"/><path fill="#0e0801" d="M174 426l-84-48 76-116z"/><path fill="#282621" d="M502 794L290 586l-104 76z"/><path fill="#3e3127" d="M718 198l36 116 16-156z"/><path fill="#d8cfc7" d="M190 606l56-160 268 80z"/><path fill="#1f1813" d="M418 490l16-116-152 8z"/><path fill="#0b0a05" d="M862 706L662 862l184-336z"/><path fill="#d0c6bf" d="M398 578l224 280-84-196z"/><path d="M10 234l60 284-132 36z"/><path fill="#524b45" d="M1022-22l-52 600 116-288z"/><path fill="#4d4640" d="M378 82L154 234l16-296z"/><path fill="#8b837c" d="M234 826L50 386l148 28z"/><path fill="#d9ccc7" d="M898 862L798 726l88 36z"/><path fill="#f8efe8" d="M378 662L278 862h-80z"/><path fill="#fffbf9" d="M562 366l180 108 208-212z"/><path fill="#7b7168" d="M330-6l212 28-268 232z"/><path fill="#2a2721" d="M650 62l288 124L754 18z"/><path fill="#e2d9d1" d="M606 466l-60 188-132 104z"/><path fill="#938881" d="M-62 530l220 32-220 160z"/><path fill="#c4b9b1" d="M-62 818V718l372 80z"/><path fill="#080600" d="M430 734l-108 28 84-100z"/><path fill="#beb1ac" d="M702 698l60 28-44-144z"/><path fill="#6b635b" d="M414 262l76-84-212-56z"/><path fill="#e4d9d1" d="M750 178l-88-92 64 12z"/><path fill="#fff" d="M166-38l-20 312L78-30z"/><path fill="#e9e1da" d="M630 82L458-2l116-60z"/><path fill="#211c16" d="M302 526l-8 232 64-100z"/><path fill="#2b251f" d="M622 514l80-36 12 124z"/><path fill="#d0c7c0" d="M378 490L222 338l-16 296z"/><path fill="#4b443e" d="M138 370L58 534l172-156z"/><path fill="#fff" d="M98 302l-8-120 68 132zM314 390L178 214l68-28z"/><path fill="#c5bcb4" d="M418 106l108-72-48 372z"/><path fill="#fffaf3" d="M870 410l100-32-4 56z"/><path fill="#bdb4ad" d="M486 742l-60 112-324-48z"/><path fill="#998f89" d="M922 390l-80 108 36 236z"/><path fill="#6e6660" d="M578 594l236-28-420 248z"/><path fill="#6c625b" d="M690 626l184-112 4-172z"/><path fill="#fff" d="M938 214l-116-80-116 312z"/><path fill="#382f28" d="M486 654l-44-56 48-68z"/><path fill="#d9d1cb" d="M1006-62L858 350l152-48z"/><path fill="#fdf4f1" d="M370 366l68-32-168-4z"/><path fill="#c0b7af" d="M266 642l-8 104 48 4z"/><path fill="#493f39" d="M442 650L282 534l80 12z"/><path fill="#1a1711" d="M578 758l68 88 68-208z"/><path fill="#a39b96" d="M46 402l24 124 40-132z"/><path fill="#322c27" d="M954 358l52 60-20-100z"/><path fill="#392f26" d="M538 410l8 36 96-28z"/><path fill="#2a2520" d="M174 682l-16-156-52-16z"/><path fill="#6b635c" d="M1062 474l-160-52-8 116z"/><path fill="#3d3530" d="M122 410L-62 214l208 116z"/><path fill="#69605b" d="M898 158l52-216-188 184z"/><path fill="#514843" d="M690 186l-60 152 20-260z"/><path fill="#2e2923" d="M230 778l-12-148 56 144z"/><path fill="#3a342f" d="M374 94L162 214l-4-92z"/><path fill="#fffffc" d="M610 410l144-152-64-52z"/><path fill="#e7dfd9" d="M402 262L166 366l28-132z"/><path fill="#a39992" d="M618 498l36 104-112-16z"/><path fill="#b2a7a0" d="M970 690h-40l4 108z"/><path fill="#13100c" d="M866 566l-8 200-44-96z"/><path fill="#ada49e" d="M242 542l-64 220-4-356z"/><path fill="#cdc3bf" d="M698 534l-12-128-52 72z"/><path fill="#b4aaa6" d="M894 718l-24-108-12 216z"/><path fill="#150b06" d="M1058-14l28 60-100-4z"/><path fill="#877d75" d="M54 782l192-8-308-92z"/><path fill="#24201c" d="M806 734l-232-56 292 184z"/><path fill="#d7cec8" d="M314 746l60-92h48z"/><path fill="#453e36" d="M406 622l64 52-92 104z"/><path fill="#938983" d="M234 170l76-36-16 140z"/><path fill="#fff" d="M90-62l-4 344 92-328z"/><path fill="#fffffc" d="M78 418l20-40 4 28z"/><path fill="#433d38" d="M1042 714l-148-8 12-236z"/><path fill="#79716c" d="M502-62L186 114 150-62z"/><path fill="#6f6460" d="M334 334l96-120 36 80z"/><path fill="#26221c" d="M278 594l76 84-156-44z"/><path fill="#a0968e" d="M1086 482l-16 76-144 8z"/><path fill="#776d6c" d="M702 334l-4 56 20-56z"/><path fill="#fffffd" d="M390 862h-68l112-128z"/><path fill="#948a83" d="M754 274l-76-116 104-44z"/><path fill="#39332f" d="M74 386L-62 186 86-62z"/><path fill="#49423d" d="M470 458l-176-56 28-44z"/><path fill="#6f6661" d="M934-62H706l204 256z"/><path fill="#f4ede9" d="M330 198l68 48-164 164z"/><path fill="#1a130d" d="M150 358l24-56-20-20z"/><path fill="#b7ada4" d="M462 518l60 36 28-228z"/><path fill="#1b1711" d="M614 510l92 24-56 24z"/><path fill="#cec4be" d="M586 686v28l-48-20z"/><path fill="#fff" d="M598 446h148l-144 52z"/><path fill="#38312b" d="M114 710l52 24 4-212z"/><path fill="#98918b" d="M90 586l120-16-128-24z"/><path fill="#1f1d16" d="M662 70l120-36 28 72z"/><path fill="#f5eeea" d="M966 366L750 206l188 16z"/><path fill="#918882" d="M402 666l-100-56 152-88z"/><path fill="#8c837d" d="M1006 454l-72-8 16 132z"/><path fill="#f3eae2" d="M530 742l-12-40 68 76z"/><path fill="#fdf8f4" d="M162 58l-48 56 36 164z"/><path fill="#37302b" d="M558 606l72 68-72 20z"/><path fill="#cdc3be" d="M410 382v-76l-52-64z"/><path fill="#faf3ef" d="M158 82L78 290l68 24z"/><path fill="#6a625b" d="M806 134l-56 88-80-32z"/><path fill="#8f837d" d="M882 334l-24 80 64-100z"/><path fill="#eee7e2" d="M630 298l-172 20 168-100z"/><path fill="#16140d" d="M662 626l-16-88 60 108z"/><path fill="#aea5a0" d="M670 566l60 104-4-56z"/><path fill="#25221b" d="M942 638l-52 92 12 68z"/><path fill="#b8b0aa" d="M842 746l-44-36 56 88z"/><path fill="#7d7772" d="M938 618l100 20-220 32z"/><path fill="#736c67" d="M618 506l80 180-64-12z"/><path fill="#443d39" d="M210 530l-16 68-52 48z"/><path fill="#eae4df" d="M950 50l-36 28 16 56z"/><path fill="#48403c" d="M470 398l-40-24 32 144z"/><path fill="#e1d8d2" d="M498 670l-96-100 36 72z"/><path fill="#8d837c" d="M534 58L402-62 250 50z"/><path fill="#fff8f2" d="M974 386l12 28-92 8z"/><path fill="#d7cec7" d="M874 446l12 88 20-144z"/><path fill="#ded4d0" d="M738 718l-32-28 4 28z"/><path fill="#3b322d" d="M994 274l88-64 4 100z"/><path fill="#443d36" d="M814 526l44 4-52-88z"/><path fill="#a39992" d="M238 754l24-116 12 108z"/><path fill="#1a1710" d="M-26 718l84-36v-44z"/><path fill="#0c0300" d="M870 426l8 16-36-8z"/><path fill="#ada49c" d="M782 426l100 36-176 28z"/><path fill="#988f88" d="M478 266l-4-92L314 62z"/><path fill="#fdf9f7" d="M818 154l-8 264-52-208z"/><path fill="#d7cfc7" d="M254 374l-64 252 104-44z"/><path fill="#5f5750" d="M346 198l88 60-48-88z"/><path fill="#978d87" d="M454 714l84 120-32-88z"/><path fill="#2e2722" d="M178 778l76-16-8-40z"/><path fill="#221b16" d="M166 382l44 12v-24z"/><path fill="#bbb0aa" d="M790 114l-36 48h-80z"/><path fill="#27231d" d="M430 706l-68 64-32-24z"/><path fill="#8f8680" d="M278 382l-4 76 36 52z"/><path fill="#b8b1aa" d="M198 362l32-44-76-80z"/><path fill="#756d67" d="M842-62L722-50 974 74z"/><path fill="#59514c" d="M434 502l84-12-44 32z"/><path fill="#57504b" d="M1026 386l-44-84-16 28z"/><path fill="#c6bdb6" d="M-18 794l340 68-76-92z"/><path fill="#58504b" d="M766 282l-20-76-4 104z"/><path fill="#1f1d16" d="M306 654l28 40-52 72z"/><path fill="#9d948e" d="M962 674l4 96-36-72z"/><path fill="#c4bbb7" d="M342 342l-12 36-72 28z"/><path fill="#554c46" d="M1010 250l8-160 68 156z"/><path fill="#87807b" d="M614 862h48l52-132z"/><path fill="#3d342f" d="M698 482l-4 52 44-76z"/><path fill="#c4b9b0" d="M506 586l28-92 24 212z"/><path fill="#4e4641" d="M642 286l24-8v-48z"/><path fill="#615953" d="M278 246l-16-44 68-4z"/><path fill="#f0e9e1" d="M398 790l24 52-112-88z"/><path fill="#e1d9d2" d="M602 414l-100-88 4-252z"/><path fill="#837972" d="M310 766l-20 68 84-36z"/><path fill="#8f8887" d="M670 418l44-16-44 36z"/><path fill="#35312c" d="M522 702l168 152-64-124z"/><path fill="#fff9f7" d="M250 246l-20-60-76 60z"/><path fill="#807974" d="M378 470l52-140-52 40z"/><path fill="#eee8e3" d="M618 850l-52-72 68 32z"/><path fill="#fffbf8" d="M74 22l80 48 16-96z"/><path d="M902 582l28 28-32 20z"/><path fill="#968d86" d="M74 390l120 132-68-8z"/><path fill="#38312b" d="M-34 366l216 24-244-232z"/><path fill="#222019" d="M986 522l24-68 64 16z"/><path fill="#e0d6cf" d="M310 506l44-36-68-52z"/><path fill="#d4cbc5" d="M922-38l136-24-92 120z"/></g></svg>