<svg xmlns="http://www.w3.org/2000/svg" width="732" height="1024"><path fill="#727372" d="M0 0h732v1024H0z"/><g fill-opacity=".502"><path d="M30 158L614-62l180 824z"/><path fill="#e6e6e6" d="M146 198l-208 804 828 84z"/><path fill="#fff" d="M-62 266L-2-14l312-4z"/><path d="M634 746L562-62 154 86z"/><path fill="#d8d8d8" d="M546 790l248-272v536z"/><path d="M54 166L14 454 450-50zM558 882l-76-56-72 224z"/><path fill="#fff" d="M122 786L-62 970l4-672zM754 130l40-192H414z"/><path d="M502 742l-4-420 296 232z"/><path fill="#e8e7e8" d="M186 370l336 128-276 56z"/><path d="M794 198L270 414l88-476z"/><path fill="#fff" d="M-26-62L2 410 86 6z"/><path fill="#060806" d="M354 546l172 56-216 4z"/><path fill="#eee" d="M282 890L-62 594l308 492z"/><path fill="#fff" d="M682 82l112 92v276z"/><path d="M158 534l-64-68 92 24z"/><path fill="#444643" d="M794 982l-172-60-116 164z"/><path d="M478 730l220-80 96-416z"/><path fill="#ebeaeb" d="M294 722L114 502-62 622z"/><path d="M10 386l100-164-72 344z"/><path fill="#c1c1c1" d="M238 206l60 372L90 350z"/><path fill="#100f0e" d="M394 774l-128 56 12-48z"/><path fill="#d4d3d3" d="M794 574L474 786l276-84z"/><path fill="#a3a6a2" d="M718 378l-48-104-72 112z"/><path fill="#eaebea" d="M-62 102l260 8 28-172z"/><path d="M282 22l-20 356 172 92z"/><path fill="#131413" d="M106 834l4 140-36-92z"/><path d="M454 978l92-64-64-88zM522-6l172 296 16-152z"/><path fill="#393836" d="M34 1010V906l-96-4z"/><path fill="#606460" d="M58 150l156-76L30 262z"/><path d="M78 206L22 418l188-252z"/><path fill="#747474" d="M398 522l-96-4-56 252z"/><path fill="#d5d4d5" d="M414 1034L150 870l-200 212z"/><path fill="#e6e6e6" d="M694 642l100 124-52-220z"/><path fill="#4c504c" d="M214 50l-76 296 124-160z"/><path fill="#cecece" d="M534 530l-252-20-128-168z"/><path fill="#e7e6e7" d="M550 858l112 80 132-16z"/><path fill="#f4f4f4" d="M-62-38L6 442l36-284z"/><path fill="#cecece" d="M110 474L34 602l60-252z"/><path fill="#f5f5f5" d="M82 854l-136 88L6 458z"/><path fill="#d5d4d5" d="M382 750l192 12-264-132z"/><path fill="#818081" d="M354 974l88-148-208 128z"/><path fill="#e1e1e1" d="M366-2L46 86-62-10z"/><path fill="#030903" d="M490 382l304 84-260 256z"/><path fill="#7d7c7d" d="M550 834l192 68-4-140z"/><path fill="#d9d8d9" d="M266 826l-48 152 200-176z"/><path fill="#000200" d="M478-22l-32 480L234 46z"/><path fill="#0e100e" d="M150 534l56-28-64-24z"/><path d="M438 570l-84-16 36 52z"/><path fill="#cbcbcb" d="M706 54L410-22l256-40z"/><path fill="#141314" d="M138 722l12 44 44 36z"/><path fill="#504f4e" d="M102 414l64 64 44-8z"/><path fill="#5c5f5b" d="M454 674l40 52 44-220z"/><path fill="#a7a7a7" d="M582 690l-52 256 216-256z"/><path fill="#b2b2b2" d="M70 790L38 678l236-48z"/><path fill="#cdcccd" d="M290 546l-76 260-88-108z"/><path fill="#828182" d="M470 766l-20 68-212-164z"/><path fill="#a8a8a8" d="M490 666l-64-84-56 64z"/><path fill="#c5c6c5" d="M686-62l64 252L542-54z"/><path fill="#7e807e" d="M666 306l-76 24 32 96z"/><path fill="#000100" d="M662 662L562 458l-64 276z"/><path fill="#747773" d="M522 470l-8 76-108-88z"/><path fill="#080e08" d="M522 610L450-14 666 98z"/><path fill="#dbdadb" d="M402 886l80-72-84 196z"/><path fill="#9d9f9d" d="M58 234l-4-36 56-32z"/><path fill="#575657" d="M86 698l68-44-52 68z"/><path fill="#c7c6c7" d="M610 902l-296 184h160z"/><path fill="#484a48" d="M574 458l-20-96-52-28z"/><path fill="#141414" d="M186 1002l-60 56h72z"/><path fill="#0b0f0b" d="M294 410L626 74 502 462z"/><path fill="#bcbdbc" d="M574 806l-12-80H342z"/><path fill="#090e09" d="M42 274l4 212 116-356z"/><path fill="#cfcfcf" d="M242 294l-4 156-160-36z"/><path fill="#0c100c" d="M642 358l48 112 104-12z"/><path fill="#4a494a" d="M302 830l-4-24-84 4z"/><path fill="#8e8e8d" d="M250 274L78 382l88-140z"/><path fill="#040904" d="M490 826l-8 128 48-100z"/><path fill="#d9d9d9" d="M62 486L22 710l180-76z"/><path fill="#242723" d="M230 234V54L106 170z"/><path fill="#000300" d="M270 354L590 46l-352 4z"/><path fill="#b0b1b0" d="M450 554l-176 4-132-96z"/><path fill="#dcdcdc" d="M338 754l-168-28 92 48z"/><path fill="#4f4e4f" d="M198 562l4-44 28 20z"/><path fill="#60625f" d="M458 910l-68 136 68-60z"/><path fill="#7c7c7c" d="M286 622l-48 124 100-12z"/><path fill="#e4e4e4" d="M114 78L-38 306 2-62z"/><path fill="#060807" d="M82 878l12 40 12-56z"/><path fill="#9a9a9a" d="M362 590l56 52-180-44z"/><path fill="#696a69" d="M314 918l-76 20 108 20z"/><path fill="#4c4b4c" d="M122 422l-44 4 92 32z"/><path fill="#d4d4d4" d="M434 990l-304-64 116 160z"/><path fill="#cbcdc9" d="M794 26l-84 168 40 116z"/><path fill="#979a97" d="M690 318l32 84-8-120z"/><path fill="#2f312e" d="M526 550l-108-12 108-28z"/><path fill="#c3c3c3" d="M486 630l-188 32 108 116z"/><path fill="#454945" d="M710 950l-20 136 104-124z"/><path fill="#747472" d="M154 534l-32-68-28 24z"/><path fill="#dfdedf" d="M70 678l36 168 140 80z"/><path fill="#191e19" d="M362 550l-32 44 76-44z"/><path fill="#d3d4d2" d="M658 710l-80 8 8-28z"/><path fill="#8b8b8a" d="M38 898l-56 156 72-56z"/><path fill="#aeafad" d="M466 530l-92-88 112 40z"/><path fill="#3f3e3f" d="M166 742l-44-20 32 36z"/><path fill="#bababa" d="M310 750l-108-92-24-148z"/><path fill="#848584" d="M546 898l-20 68-96 44z"/><path fill="#171c17" d="M614 314l48 12-28-116z"/><path fill="#3a3e3a" d="M702 238l-4 128-24-100z"/><path fill="#797a79" d="M110 854l12 144-32-68z"/><path fill="#141815" d="M86 138l132-16-52 132z"/><path fill="#e0e0e0" d="M466 726l20 88 24-76z"/><path fill="#eaeaea" d="M-10 886l28-276 48 292z"/><path fill="#acadaa" d="M662 294l28 60-28 4z"/><path fill="#777677" d="M298 770h-80l72 32z"/><path fill="#0c100c" d="M262 258l164 24 4 192z"/><path fill="#3c3e3d" d="M46 182l-12 88 60-136z"/><path fill="#515452" d="M526 590l-56 100 24 28z"/><path fill="#f0eff0" d="M226 806l44-4-92-28z"/><path fill="#e6e6e6" d="M-26 438l-20-204 84 52z"/><path fill="#515451" d="M118 126l116 4-4-44z"/><path d="M718 334l36 204 40-48z"/><path fill="#010501" d="M522 626l252-128-148 192z"/><path fill="#060a06" d="M518 634v76l64 20z"/><path fill="#c3c4c4" d="M118 978l28-116-48 32z"/><path fill="#232321" d="M6 946l16-40-84 16z"/><path fill="#c6c6c6" d="M794 698V414L682 698z"/><path fill="#9f9f9f" d="M618 882L510 754l284-92z"/><path fill="#040603" d="M698 130l-268-24 152-76z"/><path fill="#4f534f" d="M486 426v-36l-32-40z"/><path fill="#c6c6c6" d="M106 1074L42 934l32-92z"/><path fill="#818181" d="M474 774l-44-44-8 136z"/><path fill="#b8b8b7" d="M158 102l72-96 96-28z"/><path fill="#a4a5a3" d="M422 542l56 52 4-36z"/><path fill="#a9a9a9" d="M250 574L78 494l68 72z"/><path fill="#212521" d="M6 442l96-136-76 24z"/><path fill="#bcbdbb" d="M70 474l128 8-124-60z"/><path fill="#878687" d="M138 762l24 48h60z"/><path fill="#eaeae9" d="M-46 726L54 846 2 402z"/><path fill="#4d514d" d="M642 322l-52 16-4-52z"/><path fill="#aaa9aa" d="M350 798l-56 52H194z"/><path fill="#6d6d6d" d="M794 954l-100-96 72-100z"/><path fill="#c0bfc0" d="M550 942l-8-56 120 28z"/><path fill="#d6d6d6" d="M434 602l-12-20-12 16z"/><path fill="#4a4d49" d="M718 230l-28 60 8-152z"/><path fill="#7c7d7c" d="M634 926l84 20-28 136z"/><path fill="#010501" d="M378 442l-76-48 172 24z"/><path fill="#707070" d="M266 666l24-76 32 128z"/><path fill="#a3a3a3" d="M298 678l48-48-20-68z"/><path fill="#8d8d8d" d="M402 1022l-4-44 60-20z"/><path fill="#dddedd" d="M454 914l-60 72 60-132z"/><path fill="#c9c9c9" d="M254 398l148 64-144 136z"/><path fill="#c3c4c3" d="M666 678l24-40 88 100z"/><path fill="#030603" d="M698 626l-88-204-116 312z"/><path fill="#dadbda" d="M118 730l48 60-132 88z"/><path fill="#090e09" d="M534 910l-60-76 4 124z"/><path fill="#010100" d="M354 782l-8 16h-40z"/><path fill="#e9e8e9" d="M202 530l-36 12 24-32z"/><path fill="#030703" d="M326 278L218 70l56-40z"/><path fill="#919191" d="M306 630l60-56 4 48z"/><path fill="#cdcdcd" d="M34 558l8 168 32-88z"/><path fill="#040703" d="M106 182L54 306l140-100z"/><path fill="#949594" d="M614 366l4 32 60-80z"/><path fill="#282d28" d="M426 570l20 40 52 8z"/><path fill="#bebebe" d="M678-58l-168-4 268 264z"/><path fill="#7d7e7d" d="M290 578l80-68 48 24z"/><path fill="#c5c5c6" d="M726 282l68 152V86z"/><path fill="#d4d4d4" d="M246 774l-132-76 36-28z"/><path fill="#060906" d="M58 438L46 538l-12-52z"/><path fill="#a9a8a9" d="M254 586l-64 112 44-228z"/><path fill="#6b6d6c" d="M626 930l-68 124-4-64z"/><path fill="#444" d="M358 746l16 36 12-8z"/><path fill="#b2b2b2" d="M126 326l108-28L58 462z"/><path fill="#878886" d="M434 626l48 52 28-68z"/><path fill="#363937" d="M490 474v136l48-136z"/></g></svg>